SplineFontDB: 3.0
FontName: CMUSansSerif-Oblique
FullName: CMU Sans Serif Oblique
FamilyName: CMU Sans Serif
Weight: Medium
Copyright: Converted by Andrey V. Panov from TeX fonts
UComments: "2009-6-18: Created." 
Version: 0.7.0
ItalicAngle: -12
UnderlinePosition: -100
UnderlineWidth: 50
Ascent: 800
Descent: 200
LayerCount: 2
Layer: 0 0 "+BBcEMAQ0BD0EOAQ5 +BD8EOwQwBD0A"  1
Layer: 1 0 "+BB8ENQRABDUENAQ9BDgEOQAA +BD8EOwQwBD0A"  0
NeedsXUIDChange: 1
XUID: [1067 12981711]
FSType: 0
OS2Version: 0
OS2_WeightWidthSlopeOnly: 0
OS2_UseTypoMetrics: 1
CreationTime: 1245314465
ModificationTime: 1245314822
PfmFamily: 33
TTFWeight: 500
TTFWidth: 5
LineGap: 200
VLineGap: 90
OS2TypoAscent: 0
OS2TypoAOffset: 1
OS2TypoDescent: 0
OS2TypoDOffset: 1
OS2TypoLinegap: 200
OS2WinAscent: 900
OS2WinAOffset: 0
OS2WinDescent: 250
OS2WinDOffset: 0
HheadAscent: 900
HheadAOffset: 0
HheadDescent: -250
HheadDOffset: 0
Lookup: 1 0 0 "Case substitutions"  {"Case substitutions subtable"  } ['case' ('cyrl' <'dflt' > 'grek' <'dflt' > 'latn' <'dflt' > ) ]
Lookup: 3 0 0 "Greek alternatives"  {"Greek alternatives subtable"  } ['salt' ('grek' <'dflt' > ) ]
Lookup: 1 0 0 "Greek substitutions"  {"Greek substitutions subtable"  } ['locl' ('grek' <'dflt' > ) ]
Lookup: 4 0 1 "Latin Dutch ligatures"  {"Latin Dutch ligatures subtable"  } ['liga' ('latn' <'NLD ' > ) ]
Lookup: 4 0 1 "Latin ligatures excepting Turkic"  {"Latin ligatures excepting Turkic subtable"  } ['liga' ('latn' <'dflt' 'NLD ' 'VIT ' > ) ]
Lookup: 4 0 1 "Latin ligatures"  {"Latin ligatures subtable"  } ['liga' ('latn' <'dflt' 'NLD ' 'VIT ' 'TRK ' 'AZE ' > ) ]
Lookup: 4 0 1 "Cyrillic ligatures"  {"Cyrillic ligatures subtable"  } ['liga' ('cyrl' <'dflt' 'MKD ' 'SRB ' > ) ]
Lookup: 3 0 0 "Latin alternatives"  {"Latin alternatives subtable"  } ['salt' ('latn' <'dflt' > ) ]
Lookup: 3 0 0 "Stilistic set 01"  {"Stilistic set 01 subtable"  } ['ss01' ('latn' <'dflt' > 'grek' <'dflt' > 'cyrl' <'dflt' > ) ]

StartChar: .notdef
Encoding: 0 0 0
Width: 760
Flags: HW
HStem: 10 60<105 655> 705 60<105 655>
VStem: 10 60<112 663> 690 60<112 663>
DStem2: 105 705 70 663 0.702289 -0.711892<5.31938 389.612 448.699 832.991> 70 112 105 70 0.702289 0.711892<0 384.292 443.379 827.672>
LayerCount: 2
Fore
SplineSet
10 10 m 1
 10 765 l 1
 750 765 l 1
 750 10 l 1
 10 10 l 1
70 112 m 1
 346 388 l 1
 70 663 l 1
 70 112 l 1
105 70 m 1
 655 70 l 1
 380 346 l 1
 105 70 l 1
105 705 m 1
 380 429 l 1
 655 705 l 1
 105 705 l 1
414 388 m 1
 690 112 l 1
 690 663 l 1
 414 388 l 1
EndSplineSet
EndChar

StartChar: uni262D
Encoding: 9773 9773 1
Width: 700
Flags: HW
TeX: 117 0
HStem: -1 21G<56 93 593.5 601> 39 76<321.786 462.78> 102 51<140.549 177.987>
VStem: 129 54<101.776 137.734> 556 82<197.341 366.709>
DStem2: 123 357 178 301 0.707107 0.707107<0 86.9741 130.108 182.434>
LayerCount: 2
Fore
SplineSet
40 18 m 0
 40 64 129 102 129 128 c 0
 129 148 134 153 148 153 c 0xb8
 162 153 164 157 182 180 c 1
 229 156 307 115 390 115 c 0
 438 115 463 128 463 129 c 0
 463 135 406 186 240 363 c 1
 178 301 l 1
 123 357 l 1
 252 486 l 1
 347 470 l 1
 271 393 l 1
 484 190 l 1
 513 165 l 1
 519 165 556 218 556 295 c 0
 556 473 346 588 346 593 c 1
 394 593 638 478 638 267 c 0
 638 167 592 118 580 100 c 1
 636 44 637 42 637 38 c 0xd8
 637 17 605 -1 597 -1 c 2
 596 -1 l 2
 591 -1 590 1 529 62 c 1
 500 51 474 39 428 39 c 0xd8
 297 39 201 138 188 138 c 0
 183 138 182 134 182 130 c 0
 182 126 183 123 183 118 c 0
 183 108 178 102 168 102 c 0
 131 102 122 0 64 -0 c 0
 48 0 40 7 40 18 c 0
EndSplineSet
EndChar

StartChar: longs
Encoding: 383 383 2
Width: 305
Flags: HW
TeX: 108 0
HStem: 0 21G<100 179.135> 672 61<340.805 488.412>
DStem2: 100 0 175 0 0.207912 0.978148<15.5934 659.799>
AnchorPoint: "above" 422 722 basechar 0
AnchorPoint: "below" 136 0 basechar 0
LayerCount: 2
Fore
SplineSet
100 0 m 1
 195 445 l 2
 221 568 221 575 237 607 c 0
 254 641 312 733 424 733 c 0
 455 733 483 727 500 722 c 1
 485 655 l 1
 457 666 444 672 408 672 c 0
 343 672 312 625 304 607 c 0
 299 596 296 583 267 445 c 2
 175 0 l 1
 100 0 l 1
EndSplineSet
EndChar

StartChar: florin
Encoding: 402 402 3
Width: 620
Flags: HW
TeX: 102 0
HStem: -205 64<38.4137 169.277> 386 59<234 296 380 482> 672 61<454.709 601.912>
DStem2: 170.379 -205 246.379 -205 0.207912 0.978148<80.6151 604.203 679.379 872.069>
LayerCount: 2
Fore
SplineSet
6 -171 m 1
 40 -110 l 1
 50 -120 67 -141 108 -141 c 0
 191 -141 200 -62 200 -62 c 1
 296 386 l 1
 222 386 l 1
 234 445 l 1
 308 445 l 1
 334 568 334 575 350 607 c 0
 367 641 426 733 538 733 c 0
 569 733 597 727 614 722 c 1
 598 655 l 1
 570 666 558 672 522 672 c 0
 457 672 426 625 418 607 c 0
 413 596 410 583 380 445 c 1
 494 445 l 1
 482 386 l 1
 372 386 l 1
 284 -27 l 2
 278 -55 273 -82 260 -107 c 0
 247 -134 202 -205 120 -205 c 0
 75 -205 38 -192 6 -171 c 1
EndSplineSet
EndChar

StartChar: uni03F5
Encoding: 1013 1013 4
Width: 430
Flags: HW
TeX: 117 0
HStem: -11 66<258.656 372> 199 64<173 361> 389 66<321.938 457>
VStem: 84 72<136.44 198.588>
LayerCount: 2
Fore
SplineSet
84 184 m 0
 84 341 261 454 471 455 c 1
 457 389 l 1
 328 388 224 350 173 263 c 1
 374 263 l 1
 361 199 l 1
 156 199 l 1
 159 109 247 57 386 55 c 1
 372 -11 l 1
 210 -11 84 65 84 184 c 0
EndSplineSet
EndChar

StartChar: circumflex.cap
Encoding: 65536 -1 5
Width: 500
Flags: HW
HStem: 727 173
VStem: 249 311
DStem2: 249 727 311 727 0.68352 0.729932<42.3782 213.452>
AnchorPoint: "above" 402 716 mark 0
LayerCount: 2
Fore
SplineSet
249 727 m 1
 411 900 l 1
 487 900 l 1
 560 727 l 1
 499 727 l 1
 431 849 l 1
 311 727 l 1
 249 727 l 1
EndSplineSet
EndChar

StartChar: caron.cap
Encoding: 65539 -1 8
Width: 500
Flags: HW
HStem: 727 162
VStem: 280 318
AnchorPoint: "above" 402 716 mark 0
LayerCount: 2
Fore
SplineSet
280 889 m 1
 342 889 l 1
 415 778 l 1
 536 889 l 1
 598 889 l 1
 440 727 l 1
 369 727 l 1
 280 889 l 1
EndSplineSet
EndChar

StartChar: ring.cap
Encoding: 65540 -1 9
Width: 500
Flags: HW
HStem: 666 61<362.816 456.237> 828 61<375.111 468.706>
VStem: 302 57<731.205 812.33> 472 57<742.137 823.64>
AnchorPoint: "above" 403 716 mark 0
LayerCount: 2
Fore
SplineSet
302 754 m 0
 302 821 367 889 439 889 c 0
 491 889 529 853 529 800 c 0
 529 733 464 666 392 666 c 0
 338 666 302 704 302 754 c 0
359 765 m 0
 359 737 378 727 405 727 c 0
 459 727 472 768 472 790 c 0
 472 818 450 828 428 828 c 0
 373 828 359 786 359 765 c 0
EndSplineSet
EndChar

StartChar: breve.cap
Encoding: 65541 -1 10
Width: 500
Flags: HW
HStem: 727 67<355.411 491.419>
VStem: 266 63<821.84 889> 547 61<846.335 889>
AnchorPoint: "above" 402 716 mark 0
LayerCount: 2
Fore
SplineSet
266 856 m 0
 266 869 269 885 269 889 c 1
 331 889 l 1
 330 886 329 880 329 872 c 0
 329 823 370 794 419 794 c 0
 475 794 533 831 547 889 c 1
 608 889 l 1
 589 793 492 727 405 727 c 0
 327 727 266 779 266 856 c 0
EndSplineSet
EndChar

StartChar: uni026A
Encoding: 618 618 11
Width: 191
Flags: HW
HStem: 0 21G<46 148.407> 425 20G<136.593 239>
VStem: 46 193
DStem2: 46 0 144 0 0.207912 0.978148<20.3753 60.4136 62.4927 412.91 414.989 455.027>
AnchorPoint: "affricate-below" 150 -195 basechar 0
AnchorPoint: "affricate-above" 344 722 basechar 0
AnchorPoint: "below" 95 0 basechar 0
AnchorPoint: "above" 193 461 basechar 0
LayerCount: 2
Back
SplineSet
56 0 m 1
 151 445 l 1
 229 445 l 1
 134 0 l 1
 56 0 l 1
EndSplineSet
Fore
SplineSet
46 0 m 1
 59 59 l 1
 69 59 l 1
 138 386 l 1
 128 386 l 1
 141 445 l 1
 239 445 l 1
 226 386 l 1
 216 386 l 1
 147 59 l 1
 157 59 l 1
 144 0 l 1
 46 0 l 1
EndSplineSet
EndChar

StartChar: grave
Encoding: 96 96 12
Width: 500
Flags: HW
TeX: 638 0
HStem: 510 130
VStem: 233 184
DStem2: 311 640 233 640 0.631938 -0.775019<0 128.558>
LayerCount: 2
Fore
SplineSet
233 640 m 1
 311 640 l 1
 417 510 l 1
 355 510 l 1
 233 640 l 1
EndSplineSet
EndChar

StartChar: acute
Encoding: 180 180 13
Width: 500
Flags: HW
TeX: 638 0
ItalicCorrection: 80
HStem: 510 130
VStem: 299 239
DStem2: 299 510 361 510 0.808143 0.588986<50.1049 205.871>
LayerCount: 2
Fore
SplineSet
299 510 m 1
 459 640 l 1
 505 640 l 1
 538 639 l 1
 361 510 l 1
 299 510 l 1
EndSplineSet
EndChar

StartChar: circumflex
Encoding: 710 710 14
Width: 500
Flags: HW
TeX: 638 0
HStem: 509 141
VStem: 202 311
DStem2: 418 650 378 608 0.558766 -0.829326<12.4811 135.933>
LayerCount: 2
Fore
SplineSet
202 510 m 1
 357 650 351 650 370 650 c 0
 386 650 402 650 418 650 c 1
 513 509 l 1
 452 509 l 1
 378 608 l 1
 263 509 269 509 250 509 c 2
 241 509 l 1
 202 510 l 1
EndSplineSet
EndChar

StartChar: tilde
Encoding: 732 732 15
Width: 500
Flags: HW
TeX: 638 0
ItalicCorrection: 80
HStem: 529 61<386.005 477.119> 577 62<269.35 361.104>
VStem: 195 61<529 564.774> 490 62<601.163 639>
LayerCount: 2
Fore
SplineSet
195 529 m 1xb0
 212 598 268 639 316 639 c 0x70
 367 639 397 590 441 590 c 0xb0
 479 590 489 638 490 639 c 1
 552 639 l 1x70
 532 563 474 529 431 529 c 0xb0
 378 529 350 577 306 577 c 0x70
 268 577 257 530 256 529 c 1
 195 529 l 1xb0
EndSplineSet
EndChar

StartChar: ring
Encoding: 730 730 18
Width: 722
Flags: HW
TeX: 638 0
HStem: 477 32<429.759 513.199> 606 32<443.324 528.611>
VStem: 366 56<513.991 590.407> 535 56<523.756 601.218>
LayerCount: 2
Fore
SplineSet
366 545 m 0
 366 586 415 634 487 638 c 1
 503 638 l 1
 540 636 591 618 591 570 c 0
 591 529 542 481 469 477 c 1
 453 477 l 1
 417 479 366 497 366 545 c 0
422 546 m 0
 422 531 430 509 469 509 c 0
 518 509 535 546 535 569 c 0
 535 599 509 606 488 606 c 0
 438 606 422 566 422 546 c 0
EndSplineSet
EndChar

StartChar: caron
Encoding: 711 711 19
Width: 500
Flags: HW
TeX: 638 0
HStem: 545 94
VStem: 224 323
DStem2: 285 639 224 639 0.760231 -0.649652<0 98.3187>
LayerCount: 2
Fore
SplineSet
224 639 m 1
 285 639 l 1
 371 571 l 1
 486 638 482 639 499 639 c 2
 509 639 l 1
 547 638 l 1
 397 545 402 545 383 545 c 2
 334 545 l 1
 224 639 l 1
EndSplineSet
EndChar

StartChar: breve
Encoding: 728 728 20
Width: 500
Flags: HW
TeX: 638 0
ItalicCorrection: 83
HStem: 498 67<296.885 448.652>
VStem: 214 63<585.016 639> 493 62<602.806 639>
LayerCount: 2
Fore
SplineSet
214 612 m 0
 214 623 215 638 216 639 c 1
 278 639 l 1
 277 635 277 631 277 628 c 0
 277 579 331 565 371 565 c 0
 406 565 475 578 493 638 c 1
 493 639 l 1
 555 639 l 1
 530 547 438 499 357 498 c 1
 356 498 l 2
 276 498 214 544 214 612 c 0
EndSplineSet
EndChar

StartChar: macron
Encoding: 175 175 21
Width: 500
Flags: HW
TeX: 657 0
ItalicCorrection: 98
HStem: 618 64<214 560>
LayerCount: 2
Fore
SplineSet
200 618 m 1
 214 682 l 1
 574 682 l 1
 560 618 l 1
 200 618 l 1
EndSplineSet
EndChar

StartChar: cedilla
Encoding: 184 184 23
Width: 444
Flags: HW
TeX: 0 170
HStem: -192 169
VStem: 76 171
DStem2: 76 -192 146 -192 0.545511 0.838104<38.1858 201.646>
LayerCount: 2
Fore
SplineSet
76 -192 m 1
 186 -23 l 1
 247 -23 l 1
 146 -192 l 1
 76 -192 l 1
EndSplineSet
EndChar

StartChar: ogonek
Encoding: 731 731 24
Width: 278
Flags: HW
TeX: 0 194
HStem: -214 74<5.5 104.257>
VStem: -58 86<-127 -91.5559>
LayerCount: 2
Fore
SplineSet
-58 -144 m 0
 -58 -65 81 -6 149 48 c 1
 167 0 l 1
 119 -39 70 -54 38 -98 c 0
 30 -109 28 -116 28 -120 c 0
 28 -123 29 -125 29 -127 c 1
 34 -133 l 1
 38 -136 46 -140 58 -140 c 0
 76 -140 103 -130 136 -91 c 1
 179 -126 l 1
 146 -165 95 -214 29 -214 c 0
 -18 -214 -58 -186 -58 -144 c 0
EndSplineSet
EndChar

StartChar: guilsinglleft
Encoding: 8249 8249 26
Width: 444
Flags: HW
TeX: 441 0
ItalicCorrection: 37
HStem: 0 21G<260.589 332>
VStem: 157 269
DStem2: 157 220 235 220 0.686916 0.726737<53.5794 301.347>
LayerCount: 2
Fore
SplineSet
157 219 m 1
 157 220 l 1
 364 439 l 1
 426 439 l 1
 235 220 l 1
 332 0 l 1
 271 0 l 1
 157 219 l 1
EndSplineSet
EndChar

StartChar: guilsinglright
Encoding: 8250 8250 27
Width: 444
Flags: HW
TeX: 441 0
ItalicCorrection: 37
HStem: 0 21G<110 189.995>
VStem: 110 269
LayerCount: 2
Fore
SplineSet
110 0 m 1
 301 219 l 1
 203 439 l 1
 265 439 l 1
 379 219 l 1
 171 0 l 1
 110 0 l 1
EndSplineSet
EndChar

StartChar: endash
Encoding: 8211 8211 33
Width: 500
Flags: HW
TeX: 441 0
ItalicCorrection: 86
HStem: 244 61<64 551>
LayerCount: 2
Fore
SplineSet
51 244 m 1
 64 305 l 1
 564 305 l 1
 551 244 l 1
 51 244 l 1
EndSplineSet
EndChar

StartChar: emdash
Encoding: 8212 8212 34
Width: 1000
Flags: HW
TeX: 441 0
ItalicCorrection: 86
HStem: 244 61<64 1050>
LayerCount: 2
Fore
SplineSet
51 244 m 1
 64 305 l 1
 1063 305 l 1
 1050 244 l 1
 51 244 l 1
EndSplineSet
Substitution2: "Cyrillic substitutions subtable" emdash.cyr
AlternateSubs2: "Cyrillic alternatives subtable" emdash.cyr
EndChar

StartChar: dotlessi
Encoding: 305 305 36
Width: 239
Flags: HW
TeX: 441 0
ItalicCorrection: 41
HStem: 0 21G<81 160.27> 425 20G<171.73 251>
VStem: 81 170
DStem2: 81 0 156 0 0.207912 0.978148<15.5934 455.027>
AnchorPoint: "below" 118 0 basechar 0
AnchorPoint: "above" 216 461 basechar 0
LayerCount: 2
Fore
SplineSet
81 0 m 1
 176 445 l 1
 251 445 l 1
 156 0 l 1
 81 0 l 1
EndSplineSet
EndChar

StartChar: dotlessj
Encoding: 567 567 37
Width: 267
Flags: HW
TeX: 441 194
ItalicCorrection: 41
HStem: -205 64<-64.5137 66.7307> 425 20G<200.74 280>
DStem2: 66.8382 -205 141.838 -205 0.207912 0.978148<79.8421 664.521>
AnchorPoint: "below" 51 -195 basechar 0
AnchorPoint: "above" 245 461 basechar 0
LayerCount: 2
Fore
SplineSet
-97 -171 m 1
 -63 -110 l 1
 -53 -120 -36 -141 5 -141 c 0
 89 -141 97 -62 97 -62 c 1
 205 445 l 1
 280 445 l 1
 180 -27 l 2
 174 -54 169 -82 157 -107 c 0
 137 -148 89 -205 16 -205 c 0
 -33 -205 -67 -190 -97 -171 c 1
EndSplineSet
EndChar

StartChar: ff
Encoding: 64256 64256 38
Width: 583
Flags: HW
TeX: 722 0
ItalicCorrection: 222
HStem: 0 21G<100 179.249 378 457.249> 386 59<121 182 267 368 545 645> 672 61<340.795 488.338 618.337 766.329>
DStem2: 100 0 175 0 0.207912 0.978148<15.5934 394.614 469.997 661.174> 378 0 453 0 0.207912 0.978148<15.5934 410.207 469.997 662.16>
LayerCount: 2
Fore
SplineSet
378 0 m 1
 487 513 l 2
 497 561 502 594 533 639 c 0
 566 685 621 733 701 733 c 0
 728 733 755 728 777 722 c 1
 763 655 l 1
 741 663 724 672 686 672 c 0
 623 672 590 628 581 607 c 0
 576 596 574 579 545 445 c 1
 658 445 l 1
 645 386 l 1
 535 386 l 1
 453 0 l 1
 378 0 l 1
EndSplineSet
Refer: 113 102 S 1 0 0 1 0 0 2
Ligature2: "Latin ligatures subtable" f f
EndChar

StartChar: fi
Encoding: 64257 64257 39
Width: 536
Flags: HW
TeX: 722 0
ItalicCorrection: 103
HStem: -0 21G<100 179.249 378 457.27> 386 59<121 182 267 375> 425 20<468.73 548> 639 84<527 593> 672 61<329.322 436.014>
VStem: 378 170 509 101
DStem2: 100 0 175 0 0.207912 0.978148<15.5934 394.614 469.997 671.036> 378 0 453 0 0.207912 0.978148<15.5934 455.027>
LayerCount: 2
Fore
SplineSet
100 -0 m 1
 182 386 l 1
 109 386 l 1
 121 445 l 1xc0
 195 445 l 1
 217 550 223 617 284 681 c 0
 313 711 348 733 390 733 c 0
 417 733 430 727 447 722 c 1
 432 654 l 1
 416 664 401 672 377 672 c 0xa8
 302 672 294 571 267 445 c 1xc8
 388 445 l 1xa0
 375 386 l 1
 257 386 l 1
 175 -0 l 1
 100 -0 l 1
EndSplineSet
Refer: 36 305 S 1 0 0 1 297 0 2
Refer: 57 46 S 1 0 0 1 413 639 2
Ligature2: "Latin ligatures excepting Turkic subtable" f i
EndChar

StartChar: fl
Encoding: 64258 64258 40
Width: 536
Flags: HW
TeX: 722 0
ItalicCorrection: 100
HStem: -0 21G<100 179.249 378 457.266> 386 59<121 182 267 375> 672 61<330.25 435.633> 702 20<526.762 607>
VStem: 378 229
DStem2: 100 0 175 0 0.207912 0.978148<15.5934 394.614 469.997 672.263> 378 0 453 0 0.207912 0.978148<15.5934 738.033>
LayerCount: 2
Fore
SplineSet
100 -0 m 1
 182 386 l 1
 109 386 l 1
 121 445 l 1
 195 445 l 1
 217 550 223 617 284 681 c 0
 313 711 348 733 390 733 c 0xe8
 417 733 430 727 447 722 c 1xd8
 432 655 l 1
 416 664 400 672 377 672 c 0xe8
 346 672 322 647 309 622 c 0
 301 607 301 605 267 445 c 1
 388 445 l 1
 375 386 l 1
 257 386 l 1
 175 -0 l 1
 100 -0 l 1
EndSplineSet
Refer: 119 108 S 1 0 0 1 297 0 2
Ligature2: "Latin ligatures subtable" f l
EndChar

StartChar: ffi
Encoding: 64259 64259 41
Width: 814
Flags: HW
TeX: 722 0
ItalicCorrection: 103
HStem: 0 21G<100 179.249 378 457.249 655 734.27> 386 59<121 182 267 375 545 653> 425 20<745.73 825> 639 84<805 871> 655 67<393.392 458.343 668.891 711.324> 672 61<335.185 455.884 608.266 713.636>
VStem: 655 170 787 101
DStem2: 100 0 175 0 0.207912 0.978148<15.5934 394.614 469.997 663.531> 378 0 453 0 0.207912 0.978148<15.5934 410.207 469.997 673.713> 655 0 730 0 0.207912 0.978148<15.5934 455.027>
LayerCount: 2
Fore
SplineSet
100 0 m 1
 182 386 l 1
 109 386 l 1
 121 445 l 1xc0
 195 445 l 1
 214 533 218 562 229 590 c 0
 262 675 333 732 403 733 c 1
 404 733 l 2xa4
 429 733 446 730 472 722 c 1
 457 655 l 1x88
 433 666 422 672 392 672 c 0x84
 349 672 320 641 307 616 c 0
 300 601 296 583 267 445 c 1xc4
 388 445 l 1xa0
 375 386 l 1
 257 386 l 1
 175 0 l 1
 100 0 l 1
378 0 m 1
 486 511 l 2
 494 552 507 645 586 704 c 0
 609 722 635 733 668 733 c 0xc4
 687 733 707 729 725 723 c 1x90
 710 654 l 1
 691 665 673 672 656 672 c 0
 637 672 621 664 604 646 c 0
 579 618 579 605 545 445 c 1xc4
 665 445 l 1xa0
 653 386 l 1
 535 386 l 1
 453 0 l 1
 378 0 l 1
EndSplineSet
Refer: 36 305 S 1 0 0 1 574 0 2
Refer: 57 46 S 1 0 0 1 691 639 2
Ligature2: "Latin ligatures excepting Turkic subtable" ff i
Ligature2: "Latin ligatures excepting Turkic subtable" f f i
EndChar

StartChar: ffl
Encoding: 64260 64260 42
Width: 814
Flags: HW
TeX: 722 0
ItalicCorrection: 100
HStem: 0 21G<100 179.249 378 457.249 656 735.266> 386 59<121 182 267 375 545 653> 655 67<392.392 458.567 656.073 711.567> 672 61<335.185 455.838 608.872 709.25> 702 20<804.762 885>
VStem: 656 229
DStem2: 100 0 175 0 0.207912 0.978148<15.5934 394.614 469.997 663.531> 378 0 453 0 0.207912 0.978148<15.5934 410.207 469.997 673.88> 656 0 731 0 0.207912 0.978148<15.5934 738.033>
LayerCount: 2
Fore
SplineSet
100 0 m 1
 182 386 l 1
 109 386 l 1
 121 445 l 1
 195 445 l 1
 214 533 218 562 229 590 c 0
 262 675 333 732 403 733 c 1
 404 733 l 2xd4
 429 733 446 730 472 722 c 1xcc
 457 655 l 1xe4
 432 666 421 672 391 672 c 0
 348 672 320 641 307 616 c 0
 300 601 296 583 267 445 c 1
 388 445 l 1
 375 386 l 1
 257 386 l 1
 175 0 l 1
 100 0 l 1
378 0 m 1
 486 511 l 2
 495 553 507 645 586 704 c 0
 625 733 658 733 667 733 c 2
 668 733 l 2xd4
 691 733 703 729 725 722 c 1xcc
 710 655 l 1xe4
 694 664 678 672 655 672 c 0xd4
 624 672 600 647 587 622 c 0
 579 607 579 605 545 445 c 1
 665 445 l 1
 653 386 l 1
 535 386 l 1
 453 0 l 1
 378 0 l 1
EndSplineSet
Refer: 119 108 S 1 0 0 1 575 0 2
Ligature2: "Latin ligatures subtable" ff l
Ligature2: "Latin ligatures subtable" f f l
EndChar

StartChar: uni2423
Encoding: 9251 9251 43
Width: 500
Flags: HW
TeX: 441 97
ItalicCorrection: 32
HStem: -119 44<68 398>
DStem2: 15.8359 -119 58.6475 -119 0.207912 0.978148<53.884 356.917> 388.648 -119 431.71 -119 0.207912 0.978148<44.983 356.91>
LayerCount: 2
Fore
SplineSet
21 -100 m 0
 21 -97 21 -93 22 -90 c 2
 85 208 l 2
 86 211 89 240 113 240 c 0
 127 240 130 232 130 222 c 0
 130 214 128 205 127 200 c 2
 68 -75 l 1
 398 -75 l 1
 457 205 l 2
 458 210 462 240 486 240 c 0
 500 240 503 232 503 222 c 0
 503 213 500 203 499 198 c 2
 440 -80 l 2
 435 -104 434 -104 424 -113 c 1
 415 -117 414 -119 399 -119 c 2
 45 -119 l 2
 34 -119 21 -117 21 -100 c 0
EndSplineSet
EndChar

StartChar: exclam
Encoding: 33 33 44
Width: 319
Flags: HW
TeX: 722 0
ItalicCorrection: 63
HStem: 0 84<135 201> 702 20G<266.051 354>
VStem: 117 101
LayerCount: 2
Fore
SplineSet
162 175 m 1
 270 722 l 1
 354 722 l 1
 229 175 l 1
 162 175 l 1
EndSplineSet
Refer: 57 46 S 1 0 0 1 21 -0 2
EndChar

StartChar: numbersign
Encoding: 35 35 46
Width: 833
Flags: HW
TeX: 722 222
ItalicCorrection: 50
HStem: 119 61<89.5469 265 362 485 581 806.728> 320 61<131.422 357 454 577 673 849.453> 702 20G<552 572 772 792>
DStem2: 133 -167 192 -188 0.418923 0.908022<-21.6827 314.992 411.017 536.045 632.07 971.318> 353 -167 411 -188 0.418046 0.908426<-21.685 314.992 410.538 536.046 631.592 970.843>
LayerCount: 2
Fore
SplineSet
88 150 m 0
 88 162 93 180 126 180 c 2
 294 180 l 1
 357 320 l 1
 169 320 l 2
 162 320 155 319 149 322 c 0
 138 327 130 338 130 350 c 0
 130 359 134 381 170 381 c 2
 386 381 l 1
 527 687 l 2
 534 702 541 722 563 722 c 0
 581 722 593 706 593 691 c 0
 593 680 586 670 584 665 c 2
 454 381 l 1
 606 381 l 1
 746 687 l 2
 753 702 761 722 783 722 c 0
 801 722 812 706 812 691 c 0
 812 680 806 670 804 665 c 2
 673 381 l 1
 803 381 l 2
 810 381 817 381 824 380 c 0
 843 377 851 362 851 350 c 0
 851 340 847 320 813 320 c 2
 645 320 l 1
 581 180 l 1
 769 180 l 2
 802 180 808 162 808 150 c 0
 808 138 802 119 768 119 c 2
 552 119 l 1
 411 -188 l 2
 405 -201 397 -222 375 -222 c 0
 368 -222 347 -219 346 -188 c 1
 347 -181 350 -174 353 -167 c 2
 485 119 l 1
 332 119 l 1
 192 -188 l 2
 186 -201 178 -222 156 -222 c 0
 149 -222 127 -219 126 -188 c 1
 127 -181 130 -174 133 -167 c 2
 265 119 l 1
 135 119 l 2
 128 119 122 119 115 120 c 0
 96 123 88 138 88 150 c 0
362 180 m 1
 513 180 l 1
 577 320 l 1
 425 320 l 1
 362 180 l 1
EndSplineSet
EndChar

StartChar: dollar
Encoding: 36 36 47
Width: 500
Flags: HW
TeX: 746 27
ItalicCorrection: 111
HStem: -10 65<154.046 217> 665 66<316.105 361 434 499.312>
VStem: 164 78<459.497 584.367> 414 78<152.412 290.828>
DStem2: 214.358 -28 272.72 -28 0.207912 0.978148<11.9845 18.156 100.055 369.93 468.085 708.345 789.058 795.23>
LayerCount: 2
Fore
SplineSet
57 61 m 1
 83 130 l 1
 127 87 156 66 232 55 c 1
 291 337 l 1
 167 366 164 468 164 492 c 0
 164 588 240 708 375 731 c 1
 379 750 l 1
 438 750 l 1
 434 732 l 1
 490 727 523 713 570 675 c 1
 544 609 l 1
 513 637 483 661 420 667 c 1
 367 414 l 1
 392 408 492 382 492 252 c 0
 492 129 392 10 277 -8 c 1
 272 -28 l 1
 214 -28 l 1
 217 -10 l 1
 139 -2 93 28 57 61 c 1
242 522 m 0
 242 487 258 446 311 430 c 1
 361 665 l 1
 360 665 l 1
 282 641 242 579 242 522 c 0
291 58 m 1
 380 85 414 168 414 222 c 0
 414 258 402 301 347 322 c 1
 291 58 l 1
EndSplineSet
EndChar

StartChar: percent
Encoding: 37 37 48
Width: 833
Flags: HW
TeX: 746 27
ItalicCorrection: 33
HStem: -28 62<613.221 688.647> 300 61<660.599 735.39> 361 61<251.699 326.471> 688 62<297.641 373.674>
VStem: 167 73<431.654 601.61> 387 70<507.406 676.792> 529 73<42.7356 215.095> 749 70<118.766 288.358>
DStem2: 189 19 213 -16 0.632178 0.774823<-28.6291 945.605>
LayerCount: 2
Fore
SplineSet
167 500 m 0
 167 624 261 750 354 750 c 0
 416 750 457 692 457 611 c 0
 457 488 364 361 272 361 c 0
 209 361 167 419 167 500 c 0
175 -7 m 0
 175 3 184 12 189 19 c 2
 774 736 l 2
 780 743 786 749 794 749 c 0
 804 749 814 740 814 730 c 0
 814 719 802 707 794 698 c 2
 213 -16 l 2
 208 -21 202 -27 194 -27 c 0
 183 -27 175 -17 175 -7 c 0
240 494 m 0
 240 450 259 422 285 422 c 0
 338 422 387 527 387 606 c 0
 387 648 373 688 341 688 c 0
 269 688 240 542 240 494 c 0
529 112 m 0
 529 236 623 361 716 361 c 0
 778 361 819 303 819 223 c 0
 819 99 726 -28 634 -28 c 0
 571 -28 529 31 529 112 c 0
602 107 m 0
 602 44 629 34 649 34 c 0
 694 34 749 129 749 218 c 0
 749 268 730 300 702 300 c 0
 694 300 684 296 674 290 c 0
 616 252 602 136 602 107 c 0
EndSplineSet
EndChar

StartChar: ampersand
Encoding: 38 38 49
Width: 758
Flags: HW
TeX: 722 0
ItalicCorrection: 30
HStem: -22 64<177.902 347.437 526.315 698.803> 683 61<395.647 480.516>
VStem: 70 81<68.3789 199.773> 267 72<420 577.751> 489 69<544.058 676.364>
DStem2: 273 365 286 305 0.788632 0.614866<-173.042 -26.6397 89.0218 263.334>
LayerCount: 2
Fore
SplineSet
70 116 m 0
 70 179 106 229 136 258 c 0
 148 270 163 281 273 365 c 1
 269 391 267 417 267 443 c 0
 267 619 359 744 459 744 c 0
 519 744 558 696 558 624 c 0
 558 567 543 511 404 397 c 0
 388 384 372 371 355 359 c 1
 371 285 432 171 465 125 c 1
 512 162 617 246 689 405 c 1
 749 389 l 1
 680 246 595 153 502 81 c 1
 518 69 544 42 598 42 c 0
 645 42 681 51 715 60 c 1
 701 -7 l 1
 654 -18 616 -22 580 -22 c 2
 578 -22 l 2
 559 -22 494 -21 435 37 c 1
 397 18 319 -22 221 -22 c 0
 125 -22 70 41 70 116 c 0
151 131 m 0
 151 85 177 42 235 42 c 0
 299 42 359 65 395 83 c 1
 395 83 314 199 286 305 c 1
 223 257 151 217 151 131 c 0
339 472 m 2
 339 466 340 462 343 420 c 1
 491 530 489 588 489 622 c 0
 489 672 463 683 446 683 c 0
 404 683 339 640 339 477 c 2
 339 472 l 2
EndSplineSet
EndChar

StartChar: quoteright
Encoding: 8217 8217 50
Width: 278
Flags: HW
TeX: 722 0
ItalicCorrection: 84
HStem: 514 208
VStem: 205 128
LayerCount: 2
Fore
SplineSet
205 514 m 1
 257 639 l 1
 232 639 l 1
 250 722 l 1
 333 722 l 1
 322 669 l 1
 315 639 l 1
 247 514 l 1
 205 514 l 1
EndSplineSet
EndChar

StartChar: parenleft
Encoding: 40 40 51
Width: 389
Flags: HW
TeX: 746 249
ItalicCorrection: 131
VStem: 111 76<-98.8955 239.35>
LayerCount: 2
Fore
SplineSet
111 62 m 0
 111 263 193 541 381 710 c 0
 397 724 413 737 430 750 c 1
 491 750 l 1
 325 618 247 422 210 250 c 0
 196 183 187 115 187 47 c 0
 187 -135 252 -213 279 -250 c 1
 217 -250 l 1
 182 -210 111 -125 111 62 c 0
EndSplineSet
EndChar

StartChar: parenright
Encoding: 41 41 52
Width: 389
Flags: HW
TeX: 746 249
ItalicCorrection: 25
VStem: 306 76<260.673 598.066>
LayerCount: 2
Fore
SplineSet
2 -250 m 1
 172 -114 251 87 287 268 c 0
 299 329 306 392 306 454 c 0
 306 634 243 711 215 750 c 1
 276 750 l 1
 304 717 382 633 382 437 c 0
 382 216 288 -71 85 -234 c 0
 73 -244 67 -250 50 -250 c 0
 34 -250 18 -250 2 -250 c 1
EndSplineSet
EndChar

StartChar: asterisk
Encoding: 42 42 53
Width: 500
Flags: HW
TeX: 746 0
ItalicCorrection: 117
VStem: 286 91<343.557 415.613>
LayerCount: 2
Fore
SplineSet
155 427 m 0
 155 459 173 462 310 528 c 1
 202 593 195 592 195 613 c 0
 195 633 217 655 237 655 c 0
 252 655 256 649 345 576 c 1
 368 723 366 718 369 724 c 0
 374 735 389 750 408 750 c 0
 423 750 436 739 436 723 c 0
 436 716 437 721 398 575 c 1
 530 656 525 654 538 655 c 1
 563 652 567 637 567 628 c 0
 567 597 549 593 412 528 c 1
 412 527 l 1
 527 458 527 462 527 442 c 0
 527 416 502 400 485 400 c 0
 471 400 455 415 377 480 c 1
 358 355 362 306 314 306 c 0
 296 306 289 318 286 327 c 1
 285 336 284 330 324 480 c 1
 192 400 197 400 183 400 c 1
 158 404 155 420 155 427 c 0
EndSplineSet
EndChar

StartChar: plus
Encoding: 43 43 54
Width: 778
Flags: HW
TeX: 583 83
ItalicCorrection: 25
HStem: 220 61<114.555 403 479 772.426>
DStem2: 338.595 -83 401.595 -83 0.207912 0.978148<32.3912 309.769 385.237 661.89>
LayerCount: 2
Fore
SplineSet
109 250 m 0
 109 278 136 281 151 281 c 2
 417 281 l 1
 473 546 l 2
 475 557 479 583 506 583 c 0
 521 583 536 570 536 552 c 0
 536 546 534 539 533 533 c 2
 479 281 l 1
 738 281 l 2
 767 281 774 260 774 250 c 0
 774 233 760 223 751 221 c 0
 745 219 738 220 731 220 c 2
 466 220 l 1
 410 -46 l 2
 409 -49 406 -83 377 -83 c 0
 362 -83 347 -70 347 -52 c 0
 347 -45 349 -38 350 -32 c 2
 403 220 l 1
 151 220 l 2
 128 220 126 221 114 233 c 0
 111 237 109 243 109 250 c 0
EndSplineSet
EndChar

StartChar: comma
Encoding: 44 44 55
Width: 278
Flags: HW
TeX: 83 124
HStem: -125 209
VStem: 70 128
LayerCount: 2
Fore
SplineSet
70 -125 m 1
 122 0 l 1
 97 0 l 1
 115 84 l 1
 198 84 l 1
 184 15 l 1
 180 -0 l 1
 112 -125 l 1
 70 -125 l 1
EndSplineSet
EndChar

StartChar: hyphen
Encoding: 45 45 56
Width: 333
Flags: HW
TeX: 441 0
ItalicCorrection: 19
HStem: 193 59<64 317>
VStem: 51 279
LayerCount: 2
Fore
SplineSet
51 193 m 1
 64 252 l 1
 330 252 l 1
 317 193 l 1
 51 193 l 1
EndSplineSet
EndChar

StartChar: period
Encoding: 46 46 57
Width: 278
Flags: HW
TeX: 83 0
HStem: 0 84<114 180>
VStem: 96 101
LayerCount: 2
Fore
SplineSet
96 0 m 1
 114 84 l 1
 197 84 l 1
 180 0 l 1
 96 0 l 1
EndSplineSet
EndChar

StartChar: slash
Encoding: 47 47 58
Width: 500
Flags: HW
TeX: 746 249
ItalicCorrection: 131
DStem2: 25 -181 74 -220 0.489072 0.872243<-40.4743 1064.61>
LayerCount: 2
Fore
SplineSet
9 -219 m 0
 9 -207 19 -192 25 -181 c 2
 532 723 l 2
 536 730 546 749 566 749 c 0
 581 749 596 737 596 720 c 0
 596 707 585 692 582 686 c 2
 74 -220 l 2
 58 -249 51 -248 39 -250 c 1
 23 -250 9 -236 9 -219 c 0
EndSplineSet
EndChar

StartChar: zero
Encoding: 48 48 59
Width: 500
Flags: HW
TeX: 657 0
ItalicCorrection: 111
HStem: -22 61<200.942 322.745> 616 62<313.995 439.291>
VStem: 90 77<76.5163 332.729> 473 74<331.14 579.33>
LayerCount: 2
Fore
SplineSet
90 170 m 0
 90 211 96 274 121 374 c 0
 191 656 339 678 393 678 c 0
 455 678 547 648 547 484 c 0
 547 415 534 353 519 290 c 0
 454 16 317 -22 245 -22 c 0
 183 -22 90 7 90 170 c 0
167 170 m 0
 167 58 222 39 258 39 c 0
 283 39 340 51 385 132 c 0
 437 225 473 416 473 490 c 0
 473 599 417 616 380 616 c 0
 338 616 303 592 281 568 c 0
 202 482 167 236 167 170 c 0
EndSplineSet
Substitution2: "LGC old numerals subtable" zerooldstyle
EndChar

StartChar: one
Encoding: 49 49 60
Width: 500
Flags: HW
TeX: 657 0
ItalicCorrection: 111
HStem: 0 59<108 233 313 425> 554 58<220 339.443> 658 20G<412.5 444>
DStem2: 220.459 0 300.459 0 0.207912 0.978148<76.951 589.869>
LayerCount: 2
Fore
SplineSet
95 0 m 1
 108 59 l 1
 233 59 l 1
 343 577 l 1
 305 563 269 554 207 554 c 1
 220 612 l 1
 343 612 401 659 424 678 c 1
 444 678 l 1
 313 59 l 1
 437 59 l 1
 425 0 l 1
 95 0 l 1
EndSplineSet
Substitution2: "LGC old numerals subtable" oneoldstyle
EndChar

StartChar: two
Encoding: 50 50 61
Width: 500
Flags: HW
TeX: 657 0
ItalicCorrection: 111
HStem: 0 70<50 465> 613 65<296.5 433.5>
VStem: 469 84<432 562.5>
LayerCount: 2
Fore
SplineSet
50 0 m 1
 64 64 59 61 78 76 c 2
 244 212 l 2
 316 268 469 366 469 498 c 0
 469 569 422 613 353 613 c 0
 240 613 198 487 182 459 c 1
 151 514 l 1
 165 552 240 678 380 678 c 0
 487 678 553 613 553 512 c 0
 553 382 459 315 344 231 c 0
 273 179 205 124 136 70 c 1
 465 71 l 1
 450 0 l 1
 50 0 l 1
EndSplineSet
Substitution2: "LGC old numerals subtable" twooldstyle
EndChar

StartChar: three
Encoding: 51 51 62
Width: 500
Flags: HW
TeX: 657 0
ItalicCorrection: 111
HStem: -22 62<162.946 325.372> 323 62<248 366.205> 619 59<293.194 439.196>
VStem: 411 89<132.757 288.045> 461 83<477.138 598.546>
LayerCount: 2
Fore
SplineSet
59 80 m 1
 83 142 l 1
 98 117 l 1
 116 94 l 1
 147 69 184 40 254 40 c 0
 349 40 411 137 411 220 c 0xf0
 411 264 390 323 309 323 c 2
 235 323 l 1
 248 385 l 1
 316 390 330 388 363 404 c 0
 432 438 461 507 461 547 c 0
 461 590 430 619 379 619 c 0
 314 619 254 581 217 536 c 1
 201 514 l 1
 176 568 l 1
 176 569 l 1
 261 671 363 678 392 678 c 0
 478 678 544 627 544 553 c 0xe8
 544 513 520 415 394 354 c 1
 470 326 500 271 500 215 c 0xf0
 500 105 384 -22 243 -22 c 0
 133 -22 82 42 59 80 c 1
EndSplineSet
Substitution2: "LGC old numerals subtable" threeoldstyle
EndChar

StartChar: four
Encoding: 52 52 63
Width: 500
Flags: HW
TeX: 657 0
ItalicCorrection: 111
HStem: -0 21G<293 377.211> 171 61<155 329 422 508>
DStem2: 293 -0 373 -0 0.207912 0.978148<16.6329 174.748 253.751 632.979>
LayerCount: 2
Fore
SplineSet
64 171 m 1
 78 236 75 229 92 250 c 2
 420 655 l 1
 512 655 l 1
 422 232 l 1
 521 232 l 1
 508 171 l 1
 409 171 l 1
 373 -0 l 1
 293 -0 l 1
 329 171 l 1
 64 171 l 1
155 232 m 1
 348 232 l 1
 430 618 l 1
 399 538 339 460 155 232 c 1
EndSplineSet
Substitution2: "LGC old numerals subtable" fouroldstyle
EndChar

StartChar: five
Encoding: 53 53 64
Width: 500
Flags: HW
TeX: 657 0
ItalicCorrection: 111
HStem: -22 62<158.348 312.369> 366 61<265.903 386.26> 591 64<279 542>
VStem: 411 88<160.253 341.341>
DStem2: 75.5326 -22 148.277 -22 0.207912 0.978148<328.811 376.473 432.239 640.722>
LayerCount: 2
Fore
SplineSet
55 77 m 1
 100 132 l 1
 124 68 180 40 237 40 c 0
 272 40 375 58 405 211 c 0
 409 230 411 249 411 268 c 0
 411 322 388 366 336 366 c 0
 308 366 254 354 208 286 c 1
 141 286 l 1
 220 655 l 1
 555 655 l 1
 542 591 l 1
 279 591 l 1
 278 590 l 1
 235 386 l 1
 270 410 303 427 350 427 c 0
 439 427 499 356 499 258 c 0
 499 101 358 -22 224 -22 c 0
 151 -22 84 15 55 77 c 1
EndSplineSet
Substitution2: "LGC old numerals subtable" fiveoldstyle
EndChar

StartChar: six
Encoding: 54 54 65
Width: 500
Flags: HW
TeX: 657 0
ItalicCorrection: 111
HStem: -22 62<203.242 327.245> 401 61<297.192 400.112> 619 59<362.813 546.625>
VStem: 93 78<75.9361 250.681> 432 82<177.111 368.002>
LayerCount: 2
Fore
SplineSet
93 180 m 0
 93 233 105 347 150 442 c 0
 214 578 332 678 453 678 c 0
 497 678 525 670 556 658 c 1
 543 598 l 1
 513 609 480 619 445 619 c 0
 350 619 257 542 207 380 c 1
 257 426 319 462 394 462 c 0
 438 462 471 446 496 385 c 0
 506 361 514 333 514 299 c 0
 514 254 500 188 478 142 c 0
 454 92 370 -22 246 -22 c 0
 185 -22 93 13 93 180 c 0
171 167 m 0
 171 57 224 40 260 40 c 0
 345 40 390 124 401 150 c 0
 412 176 432 249 432 292 c 0
 432 337 414 401 341 401 c 0
 262 401 187 324 177 220 c 1
 174 220 l 1
 172 203 171 185 171 167 c 0
EndSplineSet
Substitution2: "LGC old numerals subtable" sixoldstyle
EndChar

StartChar: seven
Encoding: 55 55 66
Width: 500
Flags: HW
TeX: 657 0
ItalicCorrection: 111
HStem: -11 21G<150 253.5> 585 71<181 515>
VStem: 150 84<-11 69.1378>
LayerCount: 2
Fore
SplineSet
150 -11 m 1
 203 245 364 455 515 585 c 1
 166 585 l 1
 181 656 l 1
 597 655 l 1
 583 585 589 596 562 570 c 1
 513 520 478 484 425 410 c 0
 349 304 273 166 234 -11 c 1
 150 -11 l 1
EndSplineSet
Substitution2: "LGC old numerals subtable" sevenoldstyle
EndChar

StartChar: eight
Encoding: 56 56 67
Width: 500
Flags: HW
TeX: 657 0
ItalicCorrection: 111
HStem: -22 62<189.014 331.207> 323 62<261.209 382.361> 619 59<300.985 450.252>
VStem: 75 81<73.8313 227.037> 158 70<416.002 547.788> 419 80<134.203 288.405> 483 70<454.939 587.483>
LayerCount: 2
Fore
SplineSet
75 141 m 0
 75 226 134 315 255 354 c 1
 189 375 158 427 158 475 c 0
 158 573 267 678 393 678 c 0
 484 678 553 620 553 534 c 0xfa
 553 462 503 391 393 354 c 1
 444 338 499 291 499 215 c 0xfc
 499 101 380 -22 245 -22 c 0
 148 -22 75 43 75 141 c 0
156 141 m 0
 156 73 200 40 258 40 c 0
 357 40 419 135 419 221 c 0xfc
 419 284 380 323 317 323 c 0
 227 323 156 238 156 141 c 0
228 475 m 0
 228 419 269 385 330 385 c 0
 423 385 483 457 483 529 c 0
 483 585 442 619 381 619 c 0xfa
 283 619 228 543 228 475 c 0
EndSplineSet
Substitution2: "LGC old numerals subtable" eightoldstyle
EndChar

StartChar: nine
Encoding: 57 57 68
Width: 500
Flags: HW
TeX: 657 0
ItalicCorrection: 111
HStem: -22 62<139.586 287.996> 193 62<237.833 341.839> 619 59<314.514 437.523>
VStem: 125 81<289.173 478.671> 469 77<405.559 586>
LayerCount: 2
Fore
SplineSet
77 24 m 1
 119 78 l 1
 139 61 160 40 213 40 c 0
 300 40 389 125 432 276 c 1
 349 196 269 193 245 193 c 0
 192 193 167 220 151 251 c 0
 136 279 125 315 125 357 c 0
 125 543 266 678 396 678 c 0
 503 678 546 590 546 478 c 0
 546 416 529 320 505 254 c 0
 447 95 323 -22 201 -22 c 0
 148 -22 113 -9 77 24 c 1
206 364 m 0
 206 327 220 255 297 255 c 0
 377 255 451 333 462 436 c 1
 465 436 l 1
 467 438 469 484 469 496 c 0
 469 601 418 619 384 619 c 0
 343 619 314 601 292 581 c 0
 247 540 229 498 216 436 c 0
 207 393 206 378 206 364 c 0
EndSplineSet
Substitution2: "LGC old numerals subtable" nineoldstyle
EndChar

StartChar: less
Encoding: 60 60 71
Width: 778
Flags: HW
TeX: 544 47
ItalicCorrection: 60
DStem2: 234 247 166 215 0.870754 -0.49172<0 529.181> 174 287 234 247 0.909829 0.414982<37.9905 658.969>
LayerCount: 2
Fore
SplineSet
137 252 m 1
 141 271 144 273 174 287 c 2
 755 552 l 2
 762 555 768 558 775 558 c 0
 791 558 805 543 805 527 c 0
 805 503 777 495 767 490 c 2
 234 247 l 1
 659 7 l 2
 666 3 687 -7 687 -28 c 0
 687 -44 673 -58 657 -58 c 2
 656 -58 l 2
 647 -58 646 -57 539 4 c 2
 166 215 l 2
 138 231 138 239 137 252 c 1
EndSplineSet
EndChar

StartChar: equal
Encoding: 61 61 72
Width: 778
Flags: HW
TeX: 369 -129
ItalicCorrection: 50
HStem: 119 61<89.3281 751.666> 320 61<131.335 793.629>
LayerCount: 2
Fore
SplineSet
88 150 m 0
 88 162 96 177 112 180 c 1
 715 180 l 2
 749 180 753 159 753 150 c 0
 753 138 747 119 712 119 c 2
 128 119 l 2
 93 119 88 140 88 150 c 0
EndSplineSet
Refer: 297 8722 S 1 0 0 1 21 100 2
EndChar

StartChar: greater
Encoding: 62 62 73
Width: 778
Flags: HW
TeX: 544 47
DStem2: 248 550 224 493 0.870632 -0.491935<-22.7209 495.228> 649 253 128 -52 0.909829 0.414982<-621.888 0>
LayerCount: 2
Fore
SplineSet
78 -28 m 0
 78 -6 101 3 116 10 c 2
 649 253 l 1
 626 265 604 278 581 291 c 2
 224 493 l 2
 217 497 196 507 196 528 c 0
 196 544 210 558 226 558 c 0
 235 558 243 553 248 550 c 2
 717 285 l 2
 745 269 745 260 746 248 c 1
 743 230 741 228 709 213 c 2
 128 -52 l 2
 121 -55 114 -58 107 -58 c 0
 90 -58 78 -43 78 -28 c 0
EndSplineSet
EndChar

StartChar: question
Encoding: 63 63 74
Width: 472
Flags: HW
TeX: 722 0
ItalicCorrection: 122
HStem: 0 84<198 264> 672 61<269.271 444.621>
VStem: 180 101 225 67<175 259.467> 463 79<525.399 651.53>
LayerCount: 2
Fore
SplineSet
200 677 m 1
 248 708 309 733 381 733 c 0xd8
 455 733 542 709 542 609 c 0
 542 495 445 437 439 433 c 0
 312 331 303 222 292 175 c 1
 225 175 l 1
 239 242 253 322 328 415 c 0
 399 502 437 492 457 560 c 0
 461 574 463 587 463 602 c 0
 463 658 419 672 366 672 c 0
 299 672 250 644 209 614 c 1
 200 677 l 1
EndSplineSet
Refer: 57 46 S 1 0 0 1 84 -0 2
EndChar

StartChar: at
Encoding: 64 64 75
Width: 667
Flags: HW
TeX: 722 0
ItalicCorrection: 79
HStem: -11 62<311.33 500.957> 126 61<416.445 519.68> 535 62<480.714 585.8> 672 61<433.588 591.683>
VStem: 122 76<174.979 404.419> 309 76<221.166 412.08> 618 92<369.607 590.761>
LayerCount: 2
Fore
SplineSet
122 272 m 0
 122 516 336 733 541 733 c 0
 606 733 710 711 710 536 c 0
 710 463 688 361 678 329 c 0
 641 213 542 126 452 126 c 0
 367 126 309 200 309 298 c 0
 309 459 437 597 551 597 c 0
 583 597 608 587 631 570 c 1
 627 601 611 672 528 672 c 0
 370 672 198 486 198 284 c 0
 198 149 279 51 400 51 c 0
 485 51 549 84 563 87 c 0
 571 89 580 88 588 88 c 2
 628 88 l 1
 572 36 482 -11 385 -11 c 0
 225 -11 122 116 122 272 c 0
385 305 m 0
 385 253 406 187 464 187 c 0
 538 187 618 302 618 417 c 0
 618 490 583 535 537 535 c 0
 467 535 385 425 385 305 c 0
EndSplineSet
EndChar

StartChar: A
Encoding: 65 65 76
Width: 667
Flags: HW
TeX: 694 0
HStem: -0 21G<27 113.765 541.765 637> 204 56<254 503> 674 20G<423.242 527.256>
DStem2: 27 -0 102 -0 0.506803 0.862062<38.0102 274.687 339.18 556.107> 637 -0 503 260 0.160708 -0.987002<-533.878 -278.155 -221.437 -14.7851>
AnchorPoint: "ogonek" 595 0 basechar 0
AnchorPoint: "below" 332 0 basechar 0
AnchorPoint: "above" 484 716 basechar 0
LayerCount: 2
Fore
SplineSet
27 -0 m 1
 435 694 l 1
 524 694 l 1
 637 -0 l 1
 545 -0 l 1
 512 204 l 1
 222 204 l 1
 102 -0 l 1
 27 -0 l 1
254 260 m 1
 503 260 l 1
 470 471 456 578 456 613 c 2
 456 624 l 1
 423 548 316 369 254 260 c 1
EndSplineSet
EndChar

StartChar: B
Encoding: 66 66 77
Width: 667
Flags: HW
TeX: 694 0
ItalicCorrection: 82
HStem: -0 56<192 454.152> 330 62<263 486.188> 638 56<316 547.48>
VStem: 570 82<147.168 267.695> 615 80<476.886 584.163>
DStem2: 96 -0 180.097 -0 0.207912 0.978148<74.7358 355.015 418.155 669.799>
AnchorPoint: "below" 330 0 basechar 0
AnchorPoint: "above" 483 716 basechar 0
LayerCount: 2
Fore
SplineSet
96 -0 m 1
 243 694 l 1
 467 694 l 2
 644 694 695 605 695 545 c 0xe8
 695 472 625 395 491 363 c 1
 615 342 652 266 652 215 c 0
 652 144 597 87 548 55 c 0
 471 5 398 0 341 -0 c 2
 96 -0 l 1
192 56 m 1
 333 56 l 2
 494 56 570 143 570 208 c 0xf0
 570 256 533 330 372 330 c 2
 251 330 l 1
 192 56 l 1
263 392 m 1
 375 392 l 2xe8
 549 392 617 483 615 537 c 1
 602 636 464 638 431 638 c 2
 316 638 l 1
 263 392 l 1
EndSplineSet
EndChar

StartChar: C
Encoding: 67 67 78
Width: 639
Flags: HW
TeX: 694 0
ItalicCorrection: 119
HStem: -22 64<319.343 523.066> 652 64<442.937 637.748>
VStem: 130 90<152.644 388.518>
AnchorPoint: "below" 394 0 basechar 0
AnchorPoint: "above" 545 716 basechar 0
LayerCount: 2
Fore
SplineSet
130 259 m 0
 130 488 325 716 545 716 c 0
 616 716 664 705 722 682 c 1
 690 599 l 1
 648 629 608 652 530 652 c 0
 404 652 220 512 220 262 c 0
 220 153 277 42 402 42 c 0
 501 42 536 65 604 103 c 1
 595 33 l 1
 519 -6 480 -22 389 -22 c 0
 219 -22 130 109 130 259 c 0
EndSplineSet
EndChar

StartChar: D
Encoding: 68 68 79
Width: 722
Flags: HW
TeX: 694 0
ItalicCorrection: 75
HStem: -0 56<194 446.387> 638 56<318 561.016>
VStem: 661 87<300.714 534.182>
DStem2: 95 -0 182.097 -0 0.207912 0.978148<75.3595 670.422>
AnchorPoint: "below" 359 0 basechar 0
AnchorPoint: "above" 511 716 basechar 0
LayerCount: 2
Fore
SplineSet
95 -0 m 1
 242 694 l 1
 493 694 l 2
 697 694 748 533 748 425 c 0
 748 214 577 25 397 2 c 0
 379 0 361 0 342 -0 c 2
 95 -0 l 1
194 56 m 1
 347 56 l 2
 517 56 661 225 661 428 c 0
 661 516 622 638 463 638 c 2
 318 638 l 1
 194 56 l 1
EndSplineSet
EndChar

StartChar: E
Encoding: 69 69 80
Width: 597
Flags: HW
TeX: 694 0
ItalicCorrection: 119
HStem: 0 71<199 555> 329 61<266 584> 626 65<317 674>
DStem2: 94 0 184.121 0 0.207912 0.978148<90.3011 353.89 417.238 659.663>
AnchorPoint: "ogonek" 324 0 basechar 0
AnchorPoint: "below" 324 0 basechar 0
AnchorPoint: "above" 477 716 basechar 0
LayerCount: 2
Fore
SplineSet
94 0 m 1
 241 691 l 1
 688 691 l 1
 674 625 l 1
 617 625 l 1
 592 626 l 1
 352 626 l 1
 317 627 l 1
 266 390 l 1
 596 390 l 1
 584 329 l 1
 254 329 l 1
 253 328 l 1
 199 70 l 1
 284 70 l 1
 308 71 l 1
 502 71 l 1
 524 72 l 1
 570 72 l 1
 555 0 l 1
 94 0 l 1
EndSplineSet
EndChar

StartChar: F
Encoding: 70 70 81
Width: 569
Flags: HW
TeX: 694 0
ItalicCorrection: 133
HStem: 0 21G<94 188.19> 315 61<264 552> 626 65<317 660>
DStem2: 94 0 184 0 0.207912 0.978148<18.7121 340.551 403.128 659.663>
AnchorPoint: "below" 311 0 basechar 0
AnchorPoint: "above" 463 716 basechar 0
LayerCount: 2
Fore
SplineSet
94 0 m 1
 241 691 l 1
 674 691 l 1
 660 625 l 1
 605 625 l 1
 580 626 l 1
 349 626 l 1
 317 627 l 1
 264 376 l 1
 565 376 l 1
 552 315 l 1
 250 315 l 1
 184 0 l 1
 94 0 l 1
EndSplineSet
EndChar

StartChar: G
Encoding: 71 71 82
Width: 667
Flags: HW
TeX: 694 0
ItalicCorrection: 119
HStem: -22 64<315.547 530.864> 237 62<452 571> 652 64<442.29 637.033>
VStem: 130 90<153.159 387.116>
DStem2: 515.933 -22 594.585 -22 0.207912 0.978148<75.4243 264.789>
AnchorPoint: "below" 393 0 basechar 0
AnchorPoint: "above" 543 716 basechar 0
LayerCount: 2
Fore
SplineSet
130 259 m 0
 130 490 326 716 544 716 c 0
 614 716 667 705 732 668 c 1
 700 585 l 1
 670 610 632 652 530 652 c 0
 366 652 220 453 220 264 c 0
 220 155 276 42 401 42 c 0
 454 42 509 55 534 63 c 1
 571 237 l 1
 439 237 l 1
 452 299 l 1
 662 299 l 1
 605 27 l 1
 537 -5 451 -22 388 -22 c 0
 221 -22 130 108 130 259 c 0
EndSplineSet
EndChar

StartChar: H
Encoding: 72 72 83
Width: 708
Flags: HW
TeX: 694 0
ItalicCorrection: 80
HStem: -0 21G<94 188.242 524 618.236> 330 62<267 594> 674 20G<236.764 331 666.762 761>
DStem2: 94 -0 184 -0 0.207912 0.978148<18.7121 356.055 419.403 709.397> 524 -0 614 -0 0.207912 0.978148<18.7121 337.343 400.691 709.397>
AnchorPoint: "below" 353 0 basechar 0
AnchorPoint: "above" 505 716 basechar 0
LayerCount: 2
Fore
SplineSet
94 -0 m 1
 241 694 l 1
 331 694 l 1
 267 392 l 1
 607 392 l 1
 671 694 l 1
 761 694 l 1
 614 -0 l 1
 524 -0 l 1
 594 330 l 1
 254 330 l 1
 184 -0 l 1
 94 -0 l 1
EndSplineSet
EndChar

StartChar: I
Encoding: 73 73 84
Width: 278
Flags: HW
TeX: 694 0
ItalicCorrection: 133
HStem: -0 21G<94 188.236> 674 20G<236.764 331>
VStem: 94 237
DStem2: 94 -0 184 -0 0.207912 0.978148<18.7121 709.397>
AnchorPoint: "ogonek" 139 0 basechar 0
AnchorPoint: "below" 138 0 basechar 0
AnchorPoint: "above" 290 716 basechar 0
LayerCount: 2
Fore
SplineSet
94 -0 m 1
 241 694 l 1
 331 694 l 1
 184 -0 l 1
 94 -0 l 1
EndSplineSet
EndChar

StartChar: J
Encoding: 74 74 85
Width: 472
Flags: HW
TeX: 694 0
ItalicCorrection: 80
HStem: -22 62<111.207 271.911> 674 20G<443.771 535>
DStem2: 296.363 -22 383.064 -22 0.207912 0.978148<100.031 731.881>
AnchorPoint: "below" 214 0 basechar 0
AnchorPoint: "above" 496 716 basechar 0
LayerCount: 2
Fore
SplineSet
45 20 m 1
 75 95 l 1
 90 77 121 40 191 40 c 0
 217 40 287 47 320 113 c 0
 331 136 335 161 341 188 c 2
 448 694 l 1
 535 694 l 1
 426 180 l 2
 416 132 407 79 358 33 c 0
 315 -7 261 -22 208 -22 c 0
 126 -22 74 4 45 20 c 1
EndSplineSet
EndChar

StartChar: K
Encoding: 75 75 86
Width: 694
Flags: HW
TeX: 694 0
ItalicCorrection: 119
HStem: -0 21G<95 185.211 547.854 651> 674 20G<237.764 328 667.226 785>
DStem2: 95 -0 181 -0 0.207912 0.978148<17.8804 250.878 348.168 709.397> 250 323 229 228 0.76641 0.642351<0 133.758 221.721 576.299> 458 420 391 363 0.417548 -0.908655<23.8176 422.972>
AnchorPoint: "below" 373 0 basechar 0
AnchorPoint: "above" 525 716 basechar 0
LayerCount: 2
Fore
SplineSet
95 -0 m 1
 242 694 l 1
 328 694 l 1
 250 323 l 1
 691 694 l 1
 785 694 l 1
 458 420 l 1
 651 -0 l 1
 557 -0 l 1
 391 363 l 1
 229 228 l 1
 181 -0 l 1
 95 -0 l 1
EndSplineSet
EndChar

StartChar: L
Encoding: 76 76 87
Width: 542
Flags: HW
TeX: 694 0
HStem: -0 65<197 499> 674 20G<236.764 331>
DStem2: 94 -0 183.184 -0 0.207912 0.978148<84.9945 709.397>
AnchorPoint: "below" 296 0 basechar 0
AnchorPoint: "above" 448 716 basechar 0
LayerCount: 2
Fore
SplineSet
94 -0 m 1
 241 694 l 1
 331 694 l 1
 197 65 l 1
 393 65 l 1
 418 66 l 1
 513 66 l 1
 499 -0 l 1
 94 -0 l 1
EndSplineSet
EndChar

StartChar: M
Encoding: 77 77 88
Width: 875
Flags: HW
TeX: 694 0
ItalicCorrection: 80
HStem: -0 21G<100 182.238 697 779.236> 674 20G<242.764 364.486 796.031 922>
DStem2: 100 -0 178 -0 0.207912 0.978148<16.2171 653.047> 422 344 347 357 0.171698 -0.98515<-262.122 237.075> 577 308 704 402 0.513515 0.858081<-224.728 355.966> 697 -0 775 -0 0.207912 0.978148<16.2171 637.808>
AnchorPoint: "below" 437 0 basechar 0
AnchorPoint: "above" 589 716 basechar 0
LayerCount: 2
Fore
SplineSet
100 -0 m 1
 247 694 l 1
 361 694 l 1
 422 344 l 1
 454 144 454 143 457 92 c 1
 468 121 543 250 577 308 c 2
 808 694 l 1
 922 694 l 1
 775 -0 l 1
 697 -0 l 1
 829 624 l 1
 809 584 l 1
 704 402 l 1
 477 22 l 1
 405 22 l 1
 347 357 l 1
 313 569 313 570 310 623 c 1
 178 -0 l 1
 100 -0 l 1
EndSplineSet
EndChar

StartChar: N
Encoding: 78 78 89
Width: 708
Flags: HW
TeX: 694 0
ItalicCorrection: 80
HStem: -0 21G<95 177.231 480.115 615.236> 674 20G<237.764 373.823 675.769 758>
DStem2: 95 -0 173 -0 0.207912 0.978148<16.2171 654.026> 368 694 305 624 0.278581 -0.960413<49.6783 649.442> 533.121 -0 611 -0 0.207912 0.978148<71.5638 709.372>
AnchorPoint: "below" 352 0 basechar 0
AnchorPoint: "above" 504 716 basechar 0
LayerCount: 2
Fore
SplineSet
95 -0 m 1
 242 694 l 1
 368 694 l 1
 536 117 l 1
 548 70 l 1
 680 694 l 1
 758 694 l 1
 611 -0 l 1
 486 -0 l 1
 353 452 l 2
 336 509 319 566 305 624 c 1
 173 -0 l 1
 95 -0 l 1
EndSplineSet
EndChar

StartChar: O
Encoding: 79 79 90
Width: 736
Flags: HW
TeX: 694 0
ItalicCorrection: 75
HStem: -22 65<298.017 464.028> 652 64<417.696 584.714>
VStem: 119 92<146.361 386.056> 676 87<313.811 553.957>
AnchorPoint: "ogonek" 368 0 basechar 0
AnchorPoint: "below" 368 0 basechar 0
AnchorPoint: "above" 520 716 basechar 0
LayerCount: 2
Fore
SplineSet
119 255 m 0
 119 491 319 716 520 716 c 0
 666 716 763 597 763 436 c 0
 763 195 560 -22 363 -22 c 0
 217 -22 119 96 119 255 c 0
211 262 m 0
 211 130 277 43 377 43 c 0
 537 43 676 262 676 443 c 0
 676 574 603 652 506 652 c 0
 360 652 211 477 211 262 c 0
EndSplineSet
EndChar

StartChar: P
Encoding: 80 80 91
Width: 639
Flags: HW
TeX: 694 0
ItalicCorrection: 82
HStem: -0 21G<95 189.221> 289 58<255 496.46> 638 56<318 552.844>
VStem: 609 82<445.782 588.736>
DStem2: 95 -0 185 -0 0.207912 0.978148<18.7121 314.079 372.683 670.422>
AnchorPoint: "below" 317 0 basechar 0
AnchorPoint: "above" 469 716 basechar 0
LayerCount: 2
Fore
SplineSet
95 -0 m 1
 242 694 l 1
 481 694 l 2
 655 694 691 587 691 528 c 0
 691 405 560 295 419 289 c 1
 246 289 l 1
 185 -0 l 1
 95 -0 l 1
255 347 m 1
 387 347 l 2
 551 347 609 452 609 522 c 0
 609 568 584 638 452 638 c 2
 318 638 l 1
 255 347 l 1
EndSplineSet
EndChar

StartChar: Q
Encoding: 81 81 92
Width: 736
Flags: HW
TeX: 694 124
ItalicCorrection: 75
HStem: -22 64<296.326 434.346> 652 64<418.84 584.048>
VStem: 119 86<144.622 387.81> 677 86<303.853 547.317>
DStem2: 454 195 364 195 0.471303 -0.881971<0 118.049 180.364 313.808>
AnchorPoint: "below" 326 -195 basechar 0
AnchorPoint: "above" 520 716 basechar 0
LayerCount: 2
Fore
SplineSet
119 252 m 0
 119 497 323 716 520 716 c 0
 666 716 763 596 763 436 c 0
 763 275 671 117 540 34 c 1
 625 -125 l 1
 521 -125 l 1
 462 -5 l 1
 430 -16 397 -22 363 -22 c 0
 217 -22 119 96 119 252 c 0
205 257 m 0
 205 129 273 42 376 42 c 0
 399 42 412 45 435 51 c 1
 364 195 l 1
 454 195 l 1
 510 90 l 1
 611 158 677 305 677 436 c 0
 677 564 608 652 506 652 c 0
 346 652 205 446 205 257 c 0
EndSplineSet
EndChar

StartChar: R
Encoding: 82 82 93
Width: 646
Flags: HW
TeX: 694 0
ItalicCorrection: 82
HStem: -0 21G<95 186.241 519.405 617> 316 62<262 407> 638 56<318 563.065>
VStem: 618 82<461.365 590.787>
DStem2: 95 -0 182 -0 0.207912 0.978148<18.0883 341.113 404.461 670.422> 488 326 407 316 0.367946 -0.929847<0 317.48>
AnchorPoint: "below" 317 0 basechar 0
AnchorPoint: "above" 469 716 basechar 0
LayerCount: 2
Fore
SplineSet
95 -0 m 1
 242 694 l 1
 471 694 l 2
 649 694 700 599 700 536 c 0
 700 452 625 363 488 326 c 1
 617 -0 l 1
 527 -0 l 1
 407 316 l 1
 249 316 l 1
 182 -0 l 1
 95 -0 l 1
262 378 m 1
 395 378 l 2
 563 378 618 469 618 530 c 0
 618 594 563 633 481 638 c 1
 318 638 l 1
 262 378 l 1
EndSplineSet
EndChar

StartChar: S
Encoding: 83 83 94
Width: 555
Flags: HW
TeX: 694 0
ItalicCorrection: 92
HStem: -22 69<176.242 369.205> 649 67<329.917 518.6>
VStem: 161 84<452.379 566.937> 460 84<141.034 267.015>
AnchorPoint: "below" 275 0 basechar 0
AnchorPoint: "above" 432 716 basechar 0
LayerCount: 2
Fore
SplineSet
54 47 m 1
 87 130 l 1
 101 115 165 47 283 47 c 0
 387 47 460 132 460 204 c 0
 460 252 431 283 399 298 c 0
 367 312 301 322 262 338 c 0
 224 354 161 396 161 484 c 0
 161 594 279 716 432 716 c 0
 502 716 547 704 606 668 c 1
 574 585 l 1
 548 609 512 649 418 649 c 0
 315 649 245 573 245 510 c 0
 245 408 374 415 444 384 c 0
 494 362 544 311 544 231 c 0
 544 103 416 -22 270 -22 c 0
 162 -22 93 18 54 47 c 1
EndSplineSet
EndChar

StartChar: T
Encoding: 84 84 95
Width: 680
Flags: HW
TeX: 694 0
ItalicCorrection: 133
HStem: -0 21G<295 389.263> 623 66<182 428 518 776>
DStem2: 295 -0 385 -0 0.207912 0.978148<18.7121 638.016>
AnchorPoint: "below" 339 0 basechar 0
AnchorPoint: "above" 491 716 basechar 0
LayerCount: 2
Fore
SplineSet
168 623 m 1
 182 689 l 1
 790 689 l 1
 776 623 l 1
 634 623 l 1
 518 624 l 1
 385 -0 l 1
 295 -0 l 1
 428 624 l 1
 310 623 l 1
 168 623 l 1
EndSplineSet
EndChar

StartChar: U
Encoding: 85 85 96
Width: 687
Flags: HW
TeX: 694 0
ItalicCorrection: 80
HStem: -22 56<279.073 436.812> 674 20G<236.73 330 656.777 739>
VStem: 137 89<90.6493 302.995>
DStem2: 88.4554 -22 178.17 -22 0.207912 0.978148<220.056 732.069> 509.421 -22 587.059 -22 0.207912 0.978148<164.609 731.869>
AnchorPoint: "ogonek" 346 0 basechar 0
AnchorPoint: "below" 346 0 basechar 0
AnchorPoint: "above" 494 716 basechar 0
LayerCount: 2
Fore
SplineSet
137 179 m 0
 137 208 137 209 162 324 c 2
 241 694 l 1
 330 694 l 1
 243 283 l 2
 235 246 226 209 226 172 c 0
 226 88 277 34 353 34 c 0
 434 34 521 94 555 202 c 0
 561 222 566 243 570 263 c 2
 661 694 l 1
 739 694 l 1
 647 260 l 2
 637 212 624 146 556 76 c 0
 500 18 423 -22 341 -22 c 0
 224 -21 137 59 137 179 c 0
EndSplineSet
EndChar

StartChar: V
Encoding: 86 86 97
Width: 667
Flags: HW
TeX: 694 0
ItalicCorrection: 161
HStem: 0 21G<282.398 391.104> 674 20G<161 257.58 708.971 799>
DStem2: 254 694 161 694 0.177263 -0.984164<0 613.727> 475 285 379 0 0.517755 0.855529<-232.079 477.279>
AnchorPoint: "below" 332 0 basechar 0
AnchorPoint: "above" 484 716 basechar 0
LayerCount: 2
Fore
SplineSet
161 694 m 1
 254 694 l 1
 317 342 l 1
 353 125 353 125 356 70 c 1
 364 93 387 138 475 285 c 2
 721 694 l 1
 799 694 l 1
 379 0 l 1
 286 0 l 1
 161 694 l 1
EndSplineSet
EndChar

StartChar: W
Encoding: 87 87 98
Width: 944
Flags: HW
TeX: 694 0
ItalicCorrection: 161
HStem: -0 21G<215.386 308 626.5 736.115> 674 20G<161 249.514 573 666.5 994.948 1077>
VStem: 600 103<319.608 362.125>
DStem2: 248 694 161 694 0.0804302 -0.99676<0 504.185> 386 300 506 416 0.447214 0.894427<-220.432 345.696> 810 306 726 -0 0.451323 0.89236<-228.278 434.244>
AnchorPoint: "below" 471 0 basechar 0
AnchorPoint: "above" 623 716 basechar 0
LayerCount: 2
Fore
SplineSet
161 694 m 1
 248 694 l 1
 277 311 l 1
 283 191 l 1
 285 109 l 1
 283 71 l 1
 294 112 362 252 386 300 c 2
 583 694 l 1
 664 694 l 1
 669 635 703 222 703 104 c 0
 703 90 703 91 702 70 c 1
 710 103 767 220 810 306 c 2
 1005 694 l 1
 1077 694 l 1
 726 -0 l 1
 639 -0 l 1
 614 292 600 527 600 585 c 1
 601 623 l 1
 587 586 l 1
 506 416 l 1
 298 -0 l 1
 217 -0 l 1
 161 694 l 1
EndSplineSet
EndChar

StartChar: X
Encoding: 88 88 99
Width: 667
Flags: HW
TeX: 694 0
ItalicCorrection: 133
HStem: -0 21G<14 128.301 536.739 652> 674 20G<175 290.498 642.303 758>
DStem2: 14 -0 110 -0 0.682468 0.730915<65.517 480.268 591.521 948.812> 280 694 175 694 0.472433 -0.881367<0 294.76 393.938 737.808>
AnchorPoint: "below" 333 0 basechar 0
AnchorPoint: "above" 485 716 basechar 0
LayerCount: 2
Fore
SplineSet
14 -0 m 1
 360 365 l 1
 360 367 l 1
 175 694 l 1
 280 694 l 1
 417 433 l 1
 661 694 l 1
 758 694 l 1
 447 365 l 1
 652 -0 l 1
 547 -0 l 1
 390 306 l 1
 110 -0 l 1
 14 -0 l 1
EndSplineSet
EndChar

StartChar: Y
Encoding: 89 89 100
Width: 667
Flags: HW
TeX: 694 0
ItalicCorrection: 172
HStem: -0 21G<289 380.259> 674 20G<150 264.474 704.113 810>
DStem2: 255 694 150 694 0.429057 -0.903278<0 379.965> 289 -0 376 -0 0.207912 0.978148<18.0883 280.912> 415 348 451 295 0.668862 0.743387<0 462.552>
AnchorPoint: "below" 332 0 basechar 0
AnchorPoint: "above" 484 716 basechar 0
LayerCount: 2
Fore
SplineSet
150 694 m 1
 255 694 l 1
 363 466 l 2
 385 419 408 373 415 348 c 1
 468 410 l 1
 722 694 l 1
 810 694 l 1
 451 295 l 2
 436 279 435 277 432 263 c 2
 376 -0 l 1
 289 -0 l 1
 345 264 l 2
 346 269 347 272 347 275 c 0
 347 280 345 284 340 294 c 2
 150 694 l 1
EndSplineSet
EndChar

StartChar: Z
Encoding: 90 90 101
Width: 611
Flags: HW
TeX: 694 0
ItalicCorrection: 119
HStem: 0 65<184 560> 631 63<216 575>
AnchorPoint: "below" 307 0 basechar 0
AnchorPoint: "above" 460 716 basechar 0
LayerCount: 2
Fore
SplineSet
55 0 m 1
 65 46 60 38 81 63 c 2
 575 632 l 1
 410 631 l 1
 203 631 l 1
 216 694 l 1
 702 694 l 1
 697 670 l 1
 692 654 l 1
 684 642 l 1
 184 65 l 1
 392 65 l 1
 415 66 l 1
 574 66 l 1
 560 0 l 1
 55 0 l 1
EndSplineSet
EndChar

StartChar: bracketleft
Encoding: 91 91 102
Width: 289
Flags: HW
TeX: 746 249
ItalicCorrection: 159
HStem: -250 61<136 213> 689 61<322 412>
DStem2: 47 -250 123.034 -250 0.207912 0.978148<78.1711 975.656>
LayerCount: 2
Fore
SplineSet
47 -250 m 1
 259 750 l 1
 426 750 l 1
 412 689 l 1
 322 689 l 1
 136 -189 l 1
 226 -189 l 1
 213 -250 l 1
 47 -250 l 1
EndSplineSet
EndChar

StartChar: backslash
Encoding: 92 92 103
Width: 500
Flags: HW
TeX: 746 249
VStem: 334 63<-247.048 -155.816>
DStem2: 396 -207 209 708 0.135355 -0.990797<-941.799 10.849>
LayerCount: 2
Fore
SplineSet
209 708 m 1
 209 718 l 2
 209 737 224 749 239 749 c 0
 270 749 271 712 272 707 c 2
 396 -207 l 2
 396 -211 397 -214 397 -218 c 0
 397 -237 382 -249 367 -249 c 0
 336 -249 335 -213 334 -207 c 2
 209 708 l 1
EndSplineSet
EndChar

StartChar: bracketright
Encoding: 93 93 104
Width: 289
Flags: HW
TeX: 746 249
ItalicCorrection: 87
HStem: -250 61<-18 73> 689 61<182 259>
DStem2: 60.034 -250 135 -250 0.207912 0.978148<62.3628 959.848>
LayerCount: 2
Fore
SplineSet
-31 -250 m 1
 -18 -189 l 1
 73 -189 l 1
 259 689 l 1
 169 689 l 1
 182 750 l 1
 348 750 l 1
 135 -250 l 1
 -31 -250 l 1
EndSplineSet
EndChar

StartChar: asciicircum
Encoding: 94 94 105
Width: 611
Flags: HW
TeX: 722 0
ItalicCorrection: 83
HStem: 445 185
DStem2: 227 445 288 445 0.697355 0.716726<42.5387 237.643> 470 630 428 581 0.479185 -0.877714<22.8822 181.545>
LayerCount: 2
Fore
SplineSet
227 445 m 1
 407 630 l 1
 470 630 l 1
 571 445 l 1
 510 445 l 1
 428 581 l 1
 288 445 l 1
 227 445 l 1
EndSplineSet
EndChar

StartChar: underscore
Encoding: 95 95 106
Width: 778
Flags: HW
TeX: 0 247
HStem: -248 40<36.0102 644.959>
LayerCount: 2
Fore
SplineSet
36 -228 m 0
 36 -218 44 -208 63 -208 c 2
 611 -208 l 2
 623 -208 645 -206 645 -229 c 0
 645 -244 631 -248 616 -248 c 2
 64 -248 l 2
 50 -248 36 -245 36 -228 c 0
EndSplineSet
EndChar

StartChar: a
Encoding: 97 97 108
Width: 480
Flags: HW
TeX: 441 0
ItalicCorrection: 9
HStem: -11 62<118.411 278.846> 0 21G<324 404.218> 193 52<213.163 362> 401 60<213.826 368.577>
VStem: 65 75<67.4996 145.361> 387 79<248.358 382.186>
DStem2: 321.662 -11 397.662 -11 0.207912 0.978148<27.047 46.9363 88.8778 207.929 256.854 339.557>
AnchorPoint: "ogonek" 361 0 basechar 0
AnchorPoint: "affricate-below" 439 -195 basechar 0
AnchorPoint: "affricate-above" 633 722 basechar 0
AnchorPoint: "below" 233 0 basechar 0
AnchorPoint: "above" 331 461 basechar 0
LayerCount: 2
Fore
SplineSet
65 85 m 0
 65 135 90 180 170 211 c 0
 245 241 333 245 374 245 c 1
 385 299 387 307 387 323 c 0
 387 353 374 401 319 401 c 0
 241 401 191 369 157 350 c 1
 165 417 l 1
 213 442 263 461 331 461 c 0
 429 461 466 390 466 330 c 0
 466 309 462 298 458 275 c 2
 400 0 l 1
 324 0 l 1x7c
 331 35 l 1
 291 12 236 -11 154 -11 c 0
 83 -11 65 47 65 85 c 0
140 104 m 0
 140 76 169 51 219 51 c 0xbc
 279 51 329 75 344 113 c 0
 347 121 349 128 362 193 c 1
 304 192 247 185 201 168 c 0
 158 152 140 127 140 104 c 0
EndSplineSet
EndChar

StartChar: b
Encoding: 98 98 109
Width: 517
Flags: HW
TeX: 722 0
ItalicCorrection: 30
HStem: -11 62<209.546 344.732> -0 21G<81 163.348> 394 61<306.967 454.633> 702 20G<229.762 310>
VStem: 455 80<178.431 352.542>
DStem2: 78.6619 -11 156.662 -11 0.207912 0.978148<27.4629 74.5368 146.715 399.814 432.836 749.279>
AnchorPoint: "affricate-below" 476 -195 basechar 0
AnchorPoint: "affricate-above" 670 722 basechar 0
AnchorPoint: "below" 280 0 basechar 0
AnchorPoint: "above" 434 722 basechar 0
LayerCount: 2
Fore
SplineSet
81 -0 m 1x78
 234 722 l 1
 310 722 l 1
 241 397 l 1
 298 438 363 455 415 455 c 0
 493 455 535 382 535 292 c 0
 535 135 416 -11 291 -11 c 0xb8
 242 -11 203 7 169 46 c 1
 159 -0 l 1
 81 -0 l 1x78
185 116 m 0
 185 106 202 51 267 51 c 0xb8
 366 51 455 150 455 278 c 0
 455 371 392 394 350 394 c 0
 298 394 265 367 242 347 c 1
 230 335 229 328 226 316 c 0
 191 151 185 124 185 116 c 0
EndSplineSet
EndChar

StartChar: c
Encoding: 99 99 110
Width: 444
Flags: HW
TeX: 441 0
ItalicCorrection: 83
HStem: -11 64<198.318 364.357> 397 64<264.313 438.077>
VStem: 77 79<96.2285 272.62>
AnchorPoint: "affricate-below" 403 -195 basechar 0
AnchorPoint: "affricate-above" 597 722 basechar 0
AnchorPoint: "below" 253 0 basechar 0
AnchorPoint: "above" 351 461 basechar 0
LayerCount: 2
Fore
SplineSet
77 170 m 0
 77 310 201 461 351 461 c 0
 424 461 449 450 499 417 c 1
 474 351 l 1
 434 379 414 397 341 397 c 0
 219 397 156 265 156 174 c 0
 156 107 192 53 264 53 c 0
 342 53 391 83 433 107 c 1
 425 40 l 1
 379 14 325 -11 251 -11 c 0
 141 -11 77 70 77 170 c 0
EndSplineSet
EndChar

StartChar: d
Encoding: 100 100 111
Width: 517
Flags: HW
TeX: 722 0
ItalicCorrection: 100
HStem: -11 62<194.054 298.639> -0 21G<355 438.238> 394 61<263.647 399.795> 702 20G<507.763 587>
VStem: 75 79<91.4303 267.145>
DStem2: 352.662 -11 431.662 -11 0.207912 0.978148<27.6708 64.3965 97.2755 355.915 421.987 750.11>
AnchorPoint: "affricate-below" 476 -195 basechar 0
AnchorPoint: "affricate-above" 670 722 basechar 0
AnchorPoint: "below" 234 0 basechar 0
AnchorPoint: "above" 388 722 basechar 0
LayerCount: 2
Fore
SplineSet
75 155 m 0
 75 308 189 455 308 455 c 0
 382 455 422 421 444 401 c 1
 512 722 l 1
 587 722 l 1
 434 -0 l 1
 355 -0 l 1x78
 366 52 l 1
 330 24 275 -11 204 -11 c 0
 113 -11 75 78 75 155 c 0
154 167 m 0
 154 75 216 51 260 51 c 0
 300 51 335 71 357 94 c 0
 383 120 381 120 385 140 c 0
 416 285 426 323 426 338 c 0
 426 348 403 394 342 394 c 0xb8
 245 394 154 298 154 167 c 0
EndSplineSet
EndChar

StartChar: e
Encoding: 101 101 112
Width: 444
Flags: HW
TeX: 441 0
ItalicCorrection: 67
HStem: -11 61<197.066 358.603> 220 55<168 416> 399 62<254.346 381.711>
VStem: 76 71<102.878 218.633> 416 56<275.136 362.578>
AnchorPoint: "ogonek" 252 0 basechar 0
AnchorPoint: "affricate-below" 403 -195 basechar 0
AnchorPoint: "affricate-above" 597 722 basechar 0
AnchorPoint: "below" 252 0 basechar 0
AnchorPoint: "above" 334 461 basechar 0
LayerCount: 2
Fore
SplineSet
76 171 m 0
 76 317 203 461 334 461 c 0
 395 461 472 430 472 307 c 0
 472 272 466 246 461 220 c 1
 151 220 l 1
 148 190 147 193 147 182 c 0
 147 106 194 50 263 50 c 0
 337 50 395 85 427 106 c 1
 419 40 l 1
 375 14 318 -11 250 -11 c 0
 142 -11 76 70 76 171 c 0
168 275 m 1
 416 275 l 1
 416 288 l 2
 416 381 357 399 322 399 c 0
 254 399 194 336 168 275 c 1
EndSplineSet
EndChar

StartChar: f
Encoding: 102 102 113
Width: 305
Flags: HW
TeX: 722 0
ItalicCorrection: 222
HStem: 0 21G<100 179.249> 386 59<121 182 267 368> 672 61<340.795 488.338>
DStem2: 100 0 175 0 0.207912 0.978148<15.5934 394.614 469.997 661.174>
AnchorPoint: "affricate-below" 264 -195 basechar 0
AnchorPoint: "affricate-above" 458 722 basechar 0
AnchorPoint: "above" 421 722 basechar 0
AnchorPoint: "below" 137 0 basechar 0
LayerCount: 2
Fore
SplineSet
100 0 m 1
 182 386 l 1
 109 386 l 1
 121 445 l 1
 195 445 l 1
 221 567 221 574 237 607 c 0
 252 638 311 733 423 733 c 0
 454 733 478 728 500 722 c 1
 485 655 l 1
 463 663 446 672 408 672 c 0
 345 672 313 628 304 607 c 0
 299 596 296 579 267 445 c 1
 380 445 l 1
 368 386 l 1
 257 386 l 1
 175 0 l 1
 100 0 l 1
EndSplineSet
EndChar

StartChar: g
Encoding: 103 103 114
Width: 500
Flags: HW
TeX: 441 194
ItalicCorrection: 108
HStem: -206 57<117.2 327.7> -3 72<148.743 365.731> 129 58<206.732 323.562> 398 57<244.704 359.693 435.535 569>
VStem: 10 71<-118.138 -33.3775> 86 58<72.0405 155.955> 120 70<203.544 338.821> 377 70<245.052 380.782> 387 72<-104.177 -23.1555>
AnchorPoint: "affricate-below" 459 -195 basechar 0
AnchorPoint: "affricate-above" 653 722 basechar 0
AnchorPoint: "below" 209 -195 basechar 0
AnchorPoint: "above" 319 461 basechar 0
LayerCount: 2
Fore
SplineSet
10 -89 m 0
 10 -40 51 8 98 32 c 1
 91 47 86 62 86 82 c 0xfc80
 86 126 108 163 136 192 c 1
 136 193 l 1
 121 222 120 245 120 258 c 0xfa
 120 362 218 455 318 455 c 0
 354 455 382 445 410 421 c 1
 408 425 l 1
 470 447 513 455 571 455 c 1
 569 392 l 1
 549 393 530 395 510 395 c 0
 484 395 467 393 434 391 c 1
 428 399 l 1
 439 378 447 356 447 326 c 0
 447 229 355 129 249 129 c 0
 214 129 189 140 164 159 c 1
 152 142 144 129 144 109 c 0xfd
 144 70 172 69 190 69 c 2xfa
 270 69 l 1
 334 68 459 67 459 -42 c 0
 459 -148 325 -206 207 -206 c 0
 98 -206 10 -159 10 -89 c 0
81 -81 m 0
 81 -122 144 -149 218 -149 c 0
 300 -149 387 -115 387 -62 c 0xf880
 387 -3 294 -3 250 -3 c 2
 176 -3 l 2
 113 -3 81 -50 81 -81 c 0
190 260 m 0
 190 201 231 187 261 187 c 0
 339 187 377 266 377 325 c 0
 377 370 351 398 306 398 c 0xfb
 228 398 190 319 190 260 c 0
EndSplineSet
EndChar

StartChar: h
Encoding: 104 104 115
Width: 517
Flags: HW
TeX: 722 0
ItalicCorrection: 17
HStem: -0 21G<80 180.5 358 440.261> 394 61<306.746 408.301> 702 20G<228.762 309>
VStem: 424 82<226.562 377.233>
DStem2: 80 -0 158 -0 0.207912 0.978148<16.2171 369.549 408.251 738.033> 358 -0 436 -0 0.207912 0.978148<16.2171 333.958>
AnchorPoint: "affricate-below" 476 -195 basechar 0
AnchorPoint: "affricate-above" 670 722 basechar 0
AnchorPoint: "below" 258 0 basechar 0
AnchorPoint: "above" 411 722 basechar 0
LayerCount: 2
Fore
SplineSet
80 -0 m 1
 233 722 l 1
 309 722 l 1
 237 384 l 1
 270 416 323 455 395 455 c 0
 466 455 506 425 506 355 c 0
 506 334 502 312 498 291 c 2
 436 -0 l 1
 358 -0 l 1
 419 289 l 2
 422 302 424 315 424 328 c 0
 424 381 382 394 343 394 c 0
 267 394 229 309 216 267 c 0
 208 241 203 214 158 -0 c 1
 80 -0 l 1
EndSplineSet
EndChar

StartChar: j
Encoding: 106 106 117
Width: 267
Flags: HW
TeX: 677 194
ItalicCorrection: 91
HStem: -205 64<-67.0417 66.0847> 425 20G<200.748 280> 590 89<241 312>
VStem: 222 108
DStem2: 66.8382 -205 141.838 -205 0.207912 0.978148<80.8711 664.521>
AnchorPoint: "affricate-below" 226 -195 basechar 0
AnchorPoint: "affricate-above" 420 722 basechar 0
AnchorPoint: "below" 51 -195 basechar 0
LayerCount: 2
Fore
SplineSet
-97 -171 m 1
 -69 -110 l 1
 -64 -115 -41 -141 2 -141 c 0
 88 -141 97 -63 97 -63 c 1
 205 445 l 1
 280 445 l 1
 180 -27 l 2
 174 -54 169 -82 157 -107 c 0
 137 -148 89 -205 16 -205 c 0
 -33 -205 -67 -190 -97 -171 c 1
EndSplineSet
Refer: 367 183 S 1 0 0 1 112 415 2
EndChar

StartChar: k
Encoding: 107 107 118
Width: 489
Flags: HW
TeX: 722 0
ItalicCorrection: 83
HStem: -0 21G<83 157.225 379.357 471> 425 20G<430.154 543> 702 20G<231.762 309>
DStem2: 83 -0 153 -0 0.207912 0.978148<14.5538 159.688 257.394 738.033> 206 237 281 224 0.765077 0.643939<0 49.0095 124.172 323.678> 338 273 281 224 0.437969 -0.89899<19.0862 267.761>
AnchorPoint: "affricate-below" 448 -195 basechar 0
AnchorPoint: "affricate-above" 642 722 basechar 0
AnchorPoint: "below" 277 0 basechar 0
AnchorPoint: "above" 430 722 basechar 0
LayerCount: 2
Fore
SplineSet
83 -0 m 1
 236 722 l 1
 309 722 l 1
 206 237 l 1
 454 445 l 1
 543 445 l 1
 338 273 l 1
 471 -0 l 1
 389 -0 l 1
 281 224 l 1
 183 142 l 1
 153 -0 l 1
 83 -0 l 1
EndSplineSet
EndChar

StartChar: l
Encoding: 108 108 119
Width: 239
Flags: HW
TeX: 722 0
ItalicCorrection: 100
HStem: -0 21G<81 160.266> 702 20G<229.762 310>
VStem: 81 229
DStem2: 81 -0 156 -0 0.207912 0.978148<15.5934 738.033>
AnchorPoint: "affricate-below" 198 -195 basechar 0
AnchorPoint: "affricate-above" 392 722 basechar 0
AnchorPoint: "below" 118 0 basechar 0
AnchorPoint: "above" 272 722 basechar 0
LayerCount: 2
Fore
SplineSet
81 -0 m 1
 234 722 l 1
 310 722 l 1
 156 -0 l 1
 81 -0 l 1
EndSplineSet
EndChar

StartChar: m
Encoding: 109 109 120
Width: 794
Flags: HW
TeX: 441 0
ItalicCorrection: 17
HStem: -0 21G<80 180.5 358 440.206 635 718.247> 394 61<305.819 407.603 584.975 686.467>
VStem: 702 82<227.344 376.936>
DStem2: 80 -0 158 -0 0.207912 0.978148<16.2171 369.549 403.715 459.918> 358 -0 436 -0 0.207912 0.978148<16.2171 333.958> 635 -0 714 -0 0.207912 0.978148<16.425 334.167>
AnchorPoint: "affricate-below" 753 -195 basechar 0
AnchorPoint: "affricate-above" 947 722 basechar 0
AnchorPoint: "below" 396 0 basechar 0
AnchorPoint: "above" 494 461 basechar 0
LayerCount: 2
Fore
SplineSet
80 -0 m 1
 175 450 l 1
 248 450 l 1
 234 380 l 1
 279 425 330 455 395 455 c 0
 458 455 499 430 505 374 c 1
 523 392 581 455 673 455 c 0
 730 455 784 435 784 355 c 0
 784 334 780 313 776 292 c 2
 714 -0 l 1
 635 -0 l 1
 697 290 l 2
 700 303 702 315 702 328 c 0
 702 381 660 394 621 394 c 0
 518 394 490 253 485 233 c 2
 436 -0 l 1
 358 -0 l 1
 419 289 l 2
 422 302 424 315 424 328 c 0
 424 381 382 394 343 394 c 0
 267 394 229 309 216 267 c 0
 208 241 203 214 158 -0 c 1
 80 -0 l 1
EndSplineSet
EndChar

StartChar: n
Encoding: 110 110 121
Width: 517
Flags: HW
TeX: 441 0
ItalicCorrection: 17
HStem: -0 21G<80 180.5 358 440.261> 394 56<296.525 408.301>
VStem: 424 82<226.562 377.233>
DStem2: 80 -0 158 -0 0.207912 0.978148<16.2171 369.549 403.715 459.918> 358 -0 436 -0 0.207912 0.978148<16.2171 333.958>
AnchorPoint: "affricate-below" 476 -195 basechar 0
AnchorPoint: "affricate-above" 670 722 basechar 0
AnchorPoint: "below" 257 0 basechar 0
AnchorPoint: "above" 355 461 basechar 0
LayerCount: 2
Fore
SplineSet
80 -0 m 1
 175 450 l 1
 248 450 l 1
 234 380 l 1
 269 415 321 455 395 455 c 0
 466 455 506 425 506 355 c 0
 506 334 502 312 498 291 c 2
 436 -0 l 1
 358 -0 l 1
 419 289 l 2
 422 302 424 315 424 328 c 0
 424 381 382 394 343 394 c 0
 267 394 229 309 216 267 c 0
 208 241 203 214 158 -0 c 1
 80 -0 l 1
EndSplineSet
EndChar

StartChar: o
Encoding: 111 111 122
Width: 500
Flags: HW
TeX: 441 0
ItalicCorrection: 66
HStem: -11 64<194.675 335.614> 399 62<255.98 402.269>
VStem: 71 80<96.9109 270.972> 445 76<182.809 356.615>
AnchorPoint: "ogonek" 249 0 basechar 0
AnchorPoint: "affricate-below" 459 -195 basechar 0
AnchorPoint: "affricate-above" 653 722 basechar 0
AnchorPoint: "below" 249 0 basechar 0
AnchorPoint: "above" 347 461 basechar 0
LayerCount: 2
Fore
SplineSet
71 169 m 0
 71 315 206 461 347 461 c 0
 451 461 521 380 521 274 c 0
 521 120 383 -11 247 -11 c 0
 142 -11 71 66 71 169 c 0
151 176 m 0
 151 78 216 53 261 53 c 0
 371 53 445 177 445 280 c 0
 445 354 401 399 334 399 c 0
 225 399 151 287 151 176 c 0
EndSplineSet
EndChar

StartChar: p
Encoding: 112 112 123
Width: 517
Flags: HW
TeX: 441 194
ItalicCorrection: 38
HStem: -195 21G<40 122.315> -11 62<210.636 340.335> 391 64<311.228 462> 425 20G<171.75 251>
VStem: 454 81<179.202 344.736>
DStem2: 40 -195 118 -195 0.207912 0.978148<16.2171 262.762 335.614 586.956 619.875 654.29>
AnchorPoint: "affricate-below" 476 -195 basechar 0
AnchorPoint: "affricate-above" 670 722 basechar 0
AnchorPoint: "below" 238 -195 basechar 0
AnchorPoint: "above" 378 461 basechar 0
LayerCount: 2
Fore
SplineSet
40 -195 m 1
 176 445 l 1
 251 445 l 1xd8
 241 396 l 1
 300 437 365 455 418 455 c 0
 506 455 535 364 535 294 c 0
 535 138 420 -11 292 -11 c 0
 240 -11 202 9 170 46 c 1
 118 -195 l 1
 40 -195 l 1
185 117 m 0xe8
 185 102 205 51 266 51 c 0
 356 51 454 149 454 265 c 0
 454 338 411 391 348 391 c 0
 288 391 240 347 232 333 c 0
 226 322 185 120 185 117 c 0xe8
EndSplineSet
EndChar

StartChar: q
Encoding: 113 113 124
Width: 517
Flags: HW
TeX: 441 194
ItalicCorrection: 41
HStem: -195 21G<315 397.246> -11 62<156.046 299.577> 391 64<267.128 394.2>
VStem: 75 81<97.172 269.106>
DStem2: 315 -195 393 -195 0.207912 0.978148<16.2171 250.25 596.457 664.904>
AnchorPoint: "affricate-below" 476 -195 basechar 0
AnchorPoint: "affricate-above" 670 722 basechar 0
AnchorPoint: "below" 193 -195 basechar 0
AnchorPoint: "above" 332 461 basechar 0
LayerCount: 2
Fore
SplineSet
75 155 m 0
 75 314 198 455 317 455 c 0
 394 455 424 411 441 388 c 1
 455 455 l 1
 531 455 l 1
 393 -195 l 1
 315 -195 l 1
 366 50 l 1
 329 23 274 -11 202 -11 c 0
 112 -11 75 78 75 155 c 0
156 177 m 0
 156 104 198 51 261 51 c 0
 300 51 335 72 358 93 c 1
 391 127 380 99 421 292 c 1
 421 301 l 2
 421 324 408 391 342 391 c 0
 253 391 156 294 156 177 c 0
EndSplineSet
EndChar

StartChar: r
Encoding: 114 114 125
Width: 342
Flags: HW
TeX: 441 0
ItalicCorrection: 108
HStem: 0 21G<81 177.5> 388 62<324.466 409>
DStem2: 81 0 156 0 0.207912 0.978148<15.5934 255.292 382.488 459.918>
AnchorPoint: "affricate-below" 301 -195 basechar 0
AnchorPoint: "affricate-above" 495 722 basechar 0
AnchorPoint: "below" 118 0 basechar 0
AnchorPoint: "above" 301 461 basechar 0
LayerCount: 2
Fore
SplineSet
81 0 m 1
 176 450 l 1
 246 450 l 1
 227 360 l 1
 311 449 386 454 423 455 c 1
 409 388 l 1
 309 385 239 314 213 250 c 0
 204 227 199 200 156 0 c 1
 81 0 l 1
EndSplineSet
EndChar

StartChar: s
Encoding: 115 115 126
Width: 383
Flags: HW
TeX: 441 0
ItalicCorrection: 77
HStem: -11 63<108.935 283.285> 401 60<202.602 380.342>
VStem: 101 75<291.284 376.456> 316 74<82.8833 170.755>
AnchorPoint: "affricate-below" 342 -195 basechar 0
AnchorPoint: "affricate-above" 536 722 basechar 0
AnchorPoint: "below" 196 0 basechar 0
AnchorPoint: "above" 299 461 basechar 0
LayerCount: 2
Fore
SplineSet
35 34 m 1
 61 102 l 1
 84 86 128 52 208 52 c 0
 292 52 316 104 316 132 c 0
 316 192 226 190 181 206 c 0
 143 219 101 252 101 306 c 0
 101 354 136 461 299 461 c 0
 351 461 385 453 435 430 c 1
 410 364 l 1
 373 384 342 401 274 401 c 0
 194 401 176 353 176 329 c 0
 176 269 264 278 317 256 c 0
 341 246 390 215 390 154 c 0
 390 95 345 -11 194 -11 c 0
 146 -11 89 0 35 34 c 1
EndSplineSet
EndChar

StartChar: t
Encoding: 116 116 127
Width: 361
Flags: HW
TeX: 571 0
ItalicCorrection: 72
HStem: -11 64<157 299.009> 386 59<113 184 269 398>
VStem: 121 78<56.966 187.597>
DStem2: 99.6151 -11 171.615 -11 0.207912 0.978148<186.445 405.869 481.252 595.559>
AnchorPoint: "affricate-below" 320 -195 basechar 0
AnchorPoint: "affricate-above" 514 722 basechar 0
AnchorPoint: "below" 161 0 basechar 0
AnchorPoint: "above" 259 571 basechar 0
LayerCount: 2
Fore
SplineSet
100 386 m 1
 113 445 l 1
 199 445 l 1
 226 571 l 1
 296 571 l 1
 269 445 l 1
 410 445 l 1
 398 386 l 1
 256 386 l 1
 200 116 199 121 199 100 c 0
 199 56 228 53 239 53 c 0
 280 53 315 73 335 86 c 1
 338 27 l 1
 281 -1 228 -11 181 -11 c 0
 133 -11 121 29 121 66 c 0
 121 99 122 91 184 386 c 1
 100 386 l 1
EndSplineSet
EndChar

StartChar: u
Encoding: 117 117 128
Width: 517
Flags: HW
TeX: 441 0
ItalicCorrection: 41
HStem: -11 56<150 299.975> 0 21G<360 440.225> 425 20G<169.786 252 447.714 530>
VStem: 97 81<52.1559 182.102>
DStem2: 77.6286 -11 155.88 -11 0.207912 0.978148<115.133 466.072> 357.662 -11 433.662 -11 0.207912 0.978148<27.047 60.2759 98.4214 465.649>
AnchorPoint: "ogonek" 397 0 basechar 0
AnchorPoint: "affricate-below" 476 -195 basechar 0
AnchorPoint: "affricate-above" 670 722 basechar 0
AnchorPoint: "below" 257 0 basechar 0
AnchorPoint: "above" 355 461 basechar 0
LayerCount: 2
Fore
SplineSet
97 63 m 0
 97 92 107 127 111 146 c 2
 174 445 l 1
 252 445 l 1
 185 126 l 2
 179 94 178 93 178 85 c 0
 178 50 210 45 248 45 c 0xb0
 328 45 370 98 382 126 c 0
 387 138 389 152 392 165 c 2
 452 445 l 1
 530 445 l 1
 436 0 l 1
 360 0 l 1x70
 370 48 l 1
 309 4 240 -11 181 -11 c 0xb0
 119 -11 97 19 97 63 c 0
EndSplineSet
EndChar

StartChar: v
Encoding: 118 118 129
Width: 461
Flags: HW
TeX: 441 0
ItalicCorrection: 108
HStem: 0 21G<182.494 286> 425 20G<108 203.5 398 541>
VStem: 108 78<405.064 445>
AnchorPoint: "affricate-below" 420 -195 basechar 0
AnchorPoint: "affricate-above" 614 722 basechar 0
AnchorPoint: "below" 230 0 basechar 0
AnchorPoint: "above" 327 461 basechar 0
LayerCount: 2
Fore
SplineSet
108 445 m 1
 186 445 l 1
 221 240 243 117 243 56 c 2
 243 50 l 1
 255 88 330 217 466 445 c 1
 541 445 l 1
 274 0 l 1
 186 0 l 1
 108 445 l 1
EndSplineSet
EndChar

StartChar: w
Encoding: 119 119 130
Width: 683
Flags: HW
TeX: 441 0
ItalicCorrection: 108
HStem: 0 21G<150.022 299 442.173 541.427> 425 20G<108 185.786 364.5 469.76 629.5 763>
DStem2: 184 445 108 445 0.0983966 -0.995147<0 313.941> 490 195 420 295 0.0835577 -0.996503<-173.345 124.151>
AnchorPoint: "affricate-below" 642 -195 basechar 0
AnchorPoint: "affricate-above" 836 722 basechar 0
AnchorPoint: "below" 342 0 basechar 0
AnchorPoint: "above" 439 461 basechar 0
LayerCount: 2
Fore
SplineSet
108 445 m 1
 184 445 l 1
 204 221 l 1
 209 132 l 1
 210 92 l 1
 208 51 l 1
 223 113 331 316 398 445 c 1
 468 445 l 1
 490 195 l 1
 495 123 l 1
 497 71 l 1
 496 50 l 1
 508 91 569 212 690 445 c 1
 763 445 l 1
 531 0 l 1
 444 0 l 1
 426 197 l 1
 420 295 l 1
 419 363 l 1
 421 394 l 1
 411 353 367 261 231 0 c 1
 152 0 l 1
 108 445 l 1
EndSplineSet
EndChar

StartChar: x
Encoding: 120 120 131
Width: 461
Flags: HW
TeX: 441 0
ItalicCorrection: 91
HStem: 0 21G<0 102.681 365.404 460> 425 20G<100 196.364 435.394 538>
DStem2: 0 0 83 0 0.715686 0.698422<59.402 323.107 400.244 637.151> 184 445 100 445 0.527078 -0.849817<0 0 262.678 479.895>
AnchorPoint: "affricate-below" 420 -195 basechar 0
AnchorPoint: "affricate-above" 614 722 basechar 0
AnchorPoint: "below" 230 0 basechar 0
AnchorPoint: "above" 328 461 basechar 0
LayerCount: 2
Fore
SplineSet
0 0 m 1
 243 229 l 1
 100 445 l 1
 184 445 l 1
 286 280 l 1
 456 445 l 1
 538 445 l 1
 309 229 l 1
 460 0 l 1
 377 0 l 1
 268 188 l 1
 83 0 l 1
 0 0 l 1
EndSplineSet
EndChar

StartChar: y
Encoding: 121 121 132
Width: 461
Flags: HW
TeX: 441 194
ItalicCorrection: 108
HStem: -205 57<6.47398 125.026> 425 20G<109 204 436 541>
VStem: 208 43<-16.7169 90.1743>
AnchorPoint: "affricate-below" 420 -195 basechar 0
AnchorPoint: "affricate-above" 614 722 basechar 0
AnchorPoint: "below" 189 -195 basechar 0
AnchorPoint: "above" 332 461 basechar 0
LayerCount: 2
Fore
SplineSet
-0 -198 m 1
 8 -132 l 1
 38 -142 59 -148 77 -148 c 0
 122 -148 141 -111 197 -20 c 0
 205 -8 208 -4 208 3 c 0
 208 7 207 11 205 18 c 2
 109 445 l 1
 188 445 l 1
 220 301 251 155 251 83 c 0
 251 77 251 69 249 50 c 1
 271 133 406 347 466 445 c 1
 541 445 l 1
 205 -99 l 1
 140 -199 102 -205 71 -205 c 0
 43 -205 14 -201 -0 -198 c 1
EndSplineSet
EndChar

StartChar: z
Encoding: 122 122 133
Width: 435
Flags: HW
TeX: 441 0
ItalicCorrection: 87
HStem: -0 62<140 401> 385 60<136 382>
DStem2: 68 73 140 62 0.709159 0.705048<43.3039 443.356>
AnchorPoint: "affricate-below" 394 -195 basechar 0
AnchorPoint: "affricate-above" 588 722 basechar 0
AnchorPoint: "below" 214 0 basechar 0
AnchorPoint: "above" 312 461 basechar 0
LayerCount: 2
Fore
SplineSet
27 -0 m 1
 37 47 31 36 68 73 c 2
 382 386 l 1
 347 385 l 1
 123 385 l 1
 136 445 l 1
 493 445 l 1
 485 405 l 1
 140 62 l 1
 347 62 l 1
 368 63 l 1
 414 63 l 1
 401 -0 l 1
 27 -0 l 1
EndSplineSet
EndChar

StartChar: braceleft
Encoding: 123 123 134
Width: 500
Flags: HW
TeX: 746 249
ItalicCorrection: 134
HStem: -250 61<272.234 393> 219 62<112 178.647> 689 61<448.762 593>
VStem: 180 80<-174.315 -38.0417> 234 79<13.2972 177.001>
CounterMasks: 1 e0
LayerCount: 2
Fore
SplineSet
99 219 m 1
 112 281 l 1
 187 281 270 319 292 389 c 1
 352 667 345 668 393 705 c 0
 444 744 506 750 561 750 c 2
 606 750 l 1
 593 689 l 1
 578 689 l 2
 426 689 427 650 418 610 c 0
 375 408 373 388 363 366 c 0
 334 302 259 255 180 250 c 1xf0
 245 246 313 206 313 129 c 0xe8
 313 95 260 -118 260 -142 c 0
 260 -186 333 -189 383 -189 c 2
 406 -189 l 1
 393 -250 l 1
 351 -250 l 1
 319 -249 284 -250 246 -235 c 0
 200 -217 180 -186 180 -153 c 0xf0
 180 -124 234 95 234 123 c 0xe8
 234 181 177 219 99 219 c 1
EndSplineSet
EndChar

StartChar: bar
Encoding: 124 124 135
Width: 278
Flags: HW
TeX: 746 249
ItalicCorrection: 68
DStem2: 65.1982 -249 105.411 -249 0.207912 0.978148<21.7223 1007.62>
LayerCount: 2
Fore
SplineSet
70 -228 m 0
 70 -224 71 -221 72 -217 c 2
 269 715 l 2
 271 726 275 749 294 749 c 0
 308 749 312 736 312 729 c 0
 312 722 310 716 309 710 c 2
 112 -218 l 2
 110 -226 108 -249 89 -249 c 0
 80 -249 70 -241 70 -228 c 0
EndSplineSet
EndChar

StartChar: braceright
Encoding: 125 125 136
Width: 500
Flags: HW
TeX: 746 249
ItalicCorrection: 28
HStem: -250 61<13 154.753> 219 62<427.353 494> 689 61<213 332.484>
VStem: 293 79<322.999 484.74>
CounterMasks: 1 e0
LayerCount: 2
Fore
SplineSet
0 -250 m 1
 13 -189 l 1
 27 -189 l 2
 86 -189 160 -187 180 -142 c 0
 184 -133 181 -142 225 65 c 0
 235 111 239 151 292 196 c 0
 329 227 377 247 425 250 c 1
 360 254 293 294 293 371 c 0
 293 406 348 622 346 645 c 1
 344 654 l 1
 326 688 278 689 200 689 c 1
 213 750 l 1
 255 750 l 1
 287 749 322 751 361 735 c 0
 390 723 426 697 426 652 c 0
 426 625 372 404 372 377 c 0
 372 319 429 281 507 281 c 1
 494 220 l 1
 494 219 l 1
 419 219 337 182 314 113 c 0
 304 82 268 -113 258 -144 c 0
 237 -208 163 -250 45 -250 c 2
 0 -250 l 1
EndSplineSet
EndChar

StartChar: asciitilde
Encoding: 126 126 137
Width: 611
Flags: HW
TeX: 677 0
ItalicCorrection: 88
HStem: 557 62<458.061 586.992> 615 61<285.305 411.643>
VStem: 201 61<557 591.798> 609 61<642.263 676>
LayerCount: 2
Fore
SplineSet
201 557 m 1xb0
 217 629 288 676 352 676 c 0x70
 423 676 468 619 530 619 c 0xb0
 556 619 595 631 609 676 c 1
 670 676 l 1x70
 654 607 587 557 519 557 c 0xb0
 448 557 403 615 341 615 c 0x70
 315 615 275 602 262 557 c 1
 201 557 l 1xb0
EndSplineSet
EndChar

StartChar: Abreve
Encoding: 258 258 139
Width: 667
Flags: HW
TeX: 888 0
HStem: -0 21<27 113.765 541.765 637> 204 56<254 503> 674 20<423.242 527.256> 727 67<430.411 565.958>
VStem: 341 63<821.507 889> 622 61<847.096 889>
DStem2: 27 -0 102 -0 0.506803 0.862062<38.0102 274.687 339.18 556.107> 637 -0 503 260 0.160708 -0.987002<-533.878 -278.155 -221.437 -14.7851>
AnchorPoint: "below" 332 0 basechar 0
AnchorPoint: "above" 521 891 basechar 0
LayerCount: 2
Fore
SplineSet
341 856 m 0
 341 866 342 870 344 889 c 1
 406 889 l 1
 406 887 404 880 404 872 c 0
 404 822 445 794 494 794 c 0
 548 794 607 830 622 889 c 1
 683 889 l 1
 663 794 568 727 480 727 c 0
 402 727 341 778 341 856 c 0
EndSplineSet
Refer: 76 65 S 1 0 0 1 0 -0 3
AlternateSubs2: "Stilistic set 01 subtable" Abreve.vn
AlternateSubs2: "Latin alternatives subtable" Abreve.vn
Substitution2: "Latin Vietnamese substitutions subtable" Abreve.vn
EndChar

StartChar: Aogonek
Encoding: 260 260 140
Width: 667
Flags: HW
TeX: 694 194
HStem: -217 70<497.676 604.019> -0 21G<27 113.765> 204 56<254 503> 674 20G<423.242 527.256>
VStem: 429 66<-162 -82.7369>
DStem2: 27 -0 102 -0 0.506803 0.862062<38.0102 274.687 339.18 556.107> 637 -0 503 260 0.160708 -0.987002<-533.878 -278.155 -221.437 -7.46495>
AnchorPoint: "above" 484 716 basechar 0
LayerCount: 2
Fore
SplineSet
27 -0 m 1
 435 694 l 1
 524 694 l 1
 637 -0 l 1
 623 -0 l 2
 585 0 495 -69 495 -115 c 0
 495 -124 500 -147 538 -147 c 0
 565 -147 593 -137 609 -133 c 1
 612 -192 l 1
 593 -200 551 -217 510 -217 c 0
 446 -217 429 -176 429 -148 c 0
 429 -118 448 -54 545 0 c 1
 512 204 l 1
 222 204 l 1
 102 -0 l 1
 27 -0 l 1
254 260 m 1
 503 260 l 1
 470 471 456 578 456 613 c 2
 456 624 l 1
 423 548 316 369 254 260 c 1
EndSplineSet
Ligature2: "Latin ligatures subtable" A uni0328
EndChar

StartChar: Cacute
Encoding: 262 262 141
Width: 639
Flags: HW
TeX: 850 0
ItalicCorrection: 119
HStem: -22 64<319.343 523.066> 652 64<442.937 637.748> 850 0
VStem: 130 90<152.644 388.518>
AnchorPoint: "below" 394 0 basechar 0
AnchorPoint: "above" 569 830 basechar 0
LayerCount: 2
Fore
SplineSet
396 760 m 1
 572 850 565 850 584 850 c 2
 683 850 l 1
 508 771 l 1
 483 761 l 1
 468 760 l 1
 396 760 l 1
EndSplineSet
Refer: 78 67 S 1 0 0 1 0 -0 3
EndChar

StartChar: Eogonek
Encoding: 280 280 145
Width: 597
Flags: HW
TeX: 694 194
ItalicCorrection: 119
HStem: -217 70<379.68 486.87> -0 71<199 426 454.187 555> 329 61<266 584> 626 65<317 674>
VStem: 312 66<-171 -81.9029>
DStem2: 47.8752 -217 137.996 -217 0.207912 0.978148<312.149 575.738 639.086 881.511>
AnchorPoint: "above" 469 716 basechar 0
LayerCount: 2
Fore
SplineSet
94 -0 m 1
 241 691 l 1
 688 691 l 1
 674 625 l 1
 617 625 l 1
 592 626 l 1
 352 626 l 1
 317 627 l 1
 266 390 l 1
 596 390 l 1
 584 329 l 1
 254 329 l 1
 253 328 l 1
 199 70 l 1
 284 70 l 1
 308 71 l 1
 502 71 l 1
 524 72 l 1
 570 72 l 1
 555 -0 l 1
 503 -0 l 2
 470 0 378 -68 378 -115 c 0
 378 -128 384 -147 420 -147 c 0
 447 -147 475 -138 492 -133 c 1
 495 -192 l 1
 476 -200 433 -217 392 -217 c 0
 348 -217 312 -194 312 -148 c 0
 312 -121 327 -66 400 -16 c 1
 426 -0 l 1
 94 -0 l 1
EndSplineSet
EndChar

StartChar: Gbreve
Encoding: 286 286 146
Width: 667
Flags: HW
TeX: 888 0
ItalicCorrection: 119
HStem: -22 64<315.547 530.864> 237 62<452 571> 652 64<442.29 637.033> 727 67<493.411 628.958>
VStem: 130 90<153.159 387.116> 404 63<821.507 889> 685 61<847.096 889>
DStem2: 515.933 -22 594.585 -22 0.207912 0.978148<75.4243 264.789>
LayerCount: 2
Fore
SplineSet
404 856 m 0
 404 866 405 870 407 889 c 1
 469 889 l 1
 469 887 467 880 467 872 c 0
 467 822 508 794 557 794 c 0
 611 794 670 830 685 889 c 1
 746 889 l 1
 726 794 631 727 543 727 c 0
 465 727 404 778 404 856 c 0
EndSplineSet
Refer: 82 71 S 1 0 0 1 0 -0 3
EndChar

StartChar: Lacute
Encoding: 313 313 147
Width: 542
Flags: HW
TeX: 850 0
HStem: 0 65<197 499> 674 20<236.764 331> 760 0 850 0
DStem2: 94 0 183.184 0 0.207912 0.978148<84.9945 709.397>
LayerCount: 2
Fore
SplineSet
171 760 m 1
 346 850 340 850 359 850 c 2
 458 850 l 1
 283 771 l 1
 259 761 l 1
 244 760 l 1
 171 760 l 1
EndSplineSet
Refer: 87 76 S 1 0 0 1 0 0 3
EndChar

StartChar: Lcaron
Encoding: 317 317 148
Width: 542
Flags: HW
TeX: 888 0
HStem: 0 65<197 499> 674 20<236.764 331>
DStem2: 94 0 183.184 0 0.207912 0.978148<84.9945 709.397>
LayerCount: 2
Fore
SplineSet
464 611 m 1
 507 694 l 1
 482 694 l 1
 500 778 l 1
 584 778 l 1
 566 694 l 1
 506 611 l 1
 464 611 l 1
EndSplineSet
Refer: 87 76 S 1 0 0 1 0 0 3
EndChar

StartChar: Lslash
Encoding: 321 321 149
Width: 625
Flags: HW
TeX: 694 0
HStem: 0 65<280 582> 674 20G<319.759 414>
DStem2: 136 278 166 231 0.811822 0.583904<0 80.1738 276.441 456.791> 177 0 266.184 0 0.207912 0.978148<84.9945 288.312 347.91 385.668 468.433 709.397>
LayerCount: 2
Fore
SplineSet
136 278 m 1
 263 369 253 359 257 378 c 2
 324 694 l 1
 414 694 l 1
 360 440 l 1
 510 547 l 1
 539 500 l 1
 343 359 l 1
 280 65 l 1
 476 65 l 1
 501 66 l 1
 596 66 l 1
 582 0 l 1
 177 0 l 1
 237 282 l 1
 166 231 l 1
 136 278 l 1
EndSplineSet
EndChar

StartChar: Nacute
Encoding: 323 323 150
Width: 708
Flags: HW
TeX: 850 0
ItalicCorrection: 80
HStem: -0 21<95 177.231 480.115 615.236> 674 20<237.764 373.823 675.769 758> 850 0
DStem2: 95 -0 173 -0 0.207912 0.978148<16.2171 654.026> 368 694 305 624 0.278581 -0.960413<49.6783 649.442> 533.121 -0 611 -0 0.207912 0.978148<71.5638 709.372>
LayerCount: 2
Fore
SplineSet
389 760 m 1
 565 850 558 850 577 850 c 2
 675 850 l 1
 500 771 l 1
 476 761 l 1
 461 760 l 1
 389 760 l 1
EndSplineSet
Refer: 89 78 S 1 0 0 1 0 -0 3
EndChar

StartChar: Eng
Encoding: 330 330 152
Width: 750
Flags: HW
TeX: 694 0
ItalicCorrection: 147
HStem: -22 62<461.842 585.857> 0 21G<94 188.219> 674 20G<236.764 331> 677 78<440.927 623.096>
VStem: 708 91<390.633 591.552>
DStem2: 89.3238 -22 179.324 -22 0.207912 0.978148<41.2035 625.409 722.944 731.889> 599.827 -22 689.764 -22 0.207912 0.978148<91.958 539.812>
LayerCount: 2
Fore
SplineSet
94 0 m 1
 241 694 l 1
 331 694 l 1x68
 325 667 l 1
 385 716 464 755 557 755 c 0x18
 694 755 799 663 799 523 c 0
 799 492 794 468 789 445 c 2
 731 172 l 2
 726 149 701 -22 542 -22 c 0
 483 -22 442 -4 407 20 c 1
 436 95 l 1
 438 91 460 40 524 40 c 0
 617 40 634 140 640 167 c 2
 700 449 l 2
 704 466 708 484 708 508 c 0
 708 610 632 677 535 677 c 0x98
 413 677 305 573 288 493 c 2
 184 0 l 1
 94 0 l 1
EndSplineSet
EndChar

StartChar: Ohungarumlaut
Encoding: 336 336 153
Width: 736
Flags: HW
TeX: 850 0
ItalicCorrection: 75
HStem: -22 65<298.017 464.028> 652 64<417.696 584.714> 850 0 850 0
VStem: 119 92<146.361 386.056> 676 87<313.811 553.957>
AnchorPoint: "below" 368 0 basechar 0
AnchorPoint: "above" 544 830 basechar 0
LayerCount: 2
Fore
SplineSet
362 760 m 1
 538 850 531 850 550 850 c 2
 649 850 l 1
 474 771 l 1
 449 761 l 1
 434 760 l 1
 362 760 l 1
529 760 m 1
 705 850 698 850 717 850 c 2
 815 850 l 1
 640 771 l 1
 616 761 l 1
 601 760 l 1
 529 760 l 1
EndSplineSet
Refer: 90 79 S 1 0 0 1 0 -0 3
EndChar

StartChar: Racute
Encoding: 340 340 154
Width: 646
Flags: HW
TeX: 850 0
ItalicCorrection: 82
HStem: -0 21<95 186.241 519.405 617> 316 62<262 407> 638 56<318 563.065> 850 0
VStem: 618 82<461.365 590.787>
DStem2: 95 -0 182 -0 0.207912 0.978148<18.0883 341.113 404.461 670.422> 488 326 407 316 0.367946 -0.929847<0 317.48>
AnchorPoint: "below" 317 0 basechar 0
AnchorPoint: "above" 498 852 basechar 0
LayerCount: 2
Fore
SplineSet
344 760 m 1
 520 850 514 850 533 850 c 2
 631 850 l 1
 456 771 l 1
 431 761 l 1
 416 760 l 1
 344 760 l 1
EndSplineSet
Refer: 93 82 S 1 0 0 1 0 -0 3
EndChar

StartChar: Sacute
Encoding: 346 346 156
Width: 555
Flags: HW
TeX: 850 0
ItalicCorrection: 92
HStem: -22 69<176.242 369.205> 649 67<329.917 518.6> 850 0
VStem: 161 84<452.379 566.937> 460 84<141.034 267.015>
AnchorPoint: "below" 275 0 basechar 0
AnchorPoint: "above" 456 830 basechar 0
LayerCount: 2
Fore
SplineSet
299 760 m 1
 475 850 468 850 487 850 c 2
 586 850 l 1
 411 771 l 1
 386 761 l 1
 371 760 l 1
 299 760 l 1
EndSplineSet
Refer: 94 83 S 1 0 0 1 0 -0 3
EndChar

StartChar: Scedilla
Encoding: 350 350 158
Width: 555
Flags: HW
TeX: 694 170
ItalicCorrection: 92
HStem: -192 169 -22 69<175.553 369.411> 649 67<329.711 518.6>
VStem: 132 171 161 84<452.356 566.937> 460 84<141.034 267.018>
DStem2: 132 -192 202 -192 0.545511 0.838104<38.1858 201.646>
LayerCount: 2
Fore
SplineSet
54 47 m 1
 87 130 l 1
 141 73 211 47 283 47 c 0xec
 387 47 460 132 460 204 c 0
 460 252 431 283 399 298 c 0
 367 312 301 322 262 338 c 0
 224 354 161 396 161 484 c 0
 161 594 278 716 432 716 c 0
 502 716 547 704 606 668 c 1
 574 585 l 1
 548 609 512 649 418 649 c 0
 315 649 245 573 245 510 c 0
 245 408 374 415 444 384 c 0
 494 362 544 311 544 231 c 0
 544 103 417 -22 270 -22 c 0
 162 -22 93 18 54 47 c 1
EndSplineSet
Refer: 23 184 S 1 0 0 1 56 0 2
EndChar

StartChar: Uhungarumlaut
Encoding: 368 368 161
Width: 687
Flags: HW
TeX: 850 0
ItalicCorrection: 80
HStem: -22 56<279.073 436.812> 674 20<236.73 330 656.777 739> 850 0 850 0
VStem: 137 89<90.6493 302.995>
DStem2: 88.4554 -22 178.17 -22 0.207912 0.978148<220.056 732.069> 509.421 -22 587.059 -22 0.207912 0.978148<164.609 731.869>
AnchorPoint: "below" 346 0 basechar 0
AnchorPoint: "above" 523 852 basechar 0
LayerCount: 2
Fore
SplineSet
337 760 m 1
 513 850 506 850 525 850 c 2
 624 850 l 1
 449 771 l 1
 424 761 l 1
 409 760 l 1
 337 760 l 1
503 760 m 1
 679 850 673 850 692 850 c 2
 790 850 l 1
 615 771 l 1
 591 761 l 1
 576 760 l 1
 503 760 l 1
EndSplineSet
Refer: 96 85 S 1 0 0 1 -0 -0 3
EndChar

StartChar: Zacute
Encoding: 377 377 164
Width: 611
Flags: HW
TeX: 850 0
ItalicCorrection: 119
HStem: 0 65<184 560> 631 63<216 575> 850 0
AnchorPoint: "below" 307 0 basechar 0
AnchorPoint: "above" 489 852 basechar 0
LayerCount: 2
Fore
SplineSet
355 760 m 1
 531 850 524 850 543 850 c 2
 641 850 l 1
 466 771 l 1
 442 761 l 1
 427 760 l 1
 355 760 l 1
EndSplineSet
Refer: 101 90 S 1 0 0 1 0 -0 3
EndChar

StartChar: IJ
Encoding: 306 306 167
Width: 722
Flags: HW
TeX: 694 0
ItalicCorrection: 80
HStem: -22 62<361.208 523.565> 0 21<66 160.236> 674 20G<208.764 303 694.731 786>
VStem: 66 237
DStem2: 66 0 156 0 0.207912 0.978148<18.7121 709.397> 546.363 -22 634.064 -22 0.207912 0.978148<97.8048 732.089>
LayerCount: 2
Fore
SplineSet
296 20 m 1
 325 95 l 1
 340 77 372 40 442 40 c 0xb0
 579 40 586 166 591 188 c 2
 699 694 l 1
 786 694 l 1
 677 180 l 2
 667 131 657 82 610 36 c 0
 597 23 549 -22 458 -22 c 0
 408 -22 352 -11 296 20 c 1
EndSplineSet
Refer: 84 73 S 1 0 0 1 -28 0 2
Ligature2: "Latin Dutch ligatures subtable" I J
EndChar

StartChar: dcroat
Encoding: 273 273 169
Width: 517
Flags: HW
TeX: 722 0
ItalicCorrection: 100
HStem: -11 62<194.054 298.639> 0 21G<355 438.247> 394 61<263.647 399.795> 551 59<297 475 563 652> 702 20G<507.714 587>
VStem: 75 79<91.4303 267.145>
DStem2: 352.662 -11 431.662 -11 0.207912 0.978148<27.6708 64.3965 97.2755 355.915 421.987 575.154 651.161 750.11>
LayerCount: 2
Fore
SplineSet
75 155 m 0
 75 308 189 455 308 455 c 0
 382 455 422 421 444 401 c 1
 475 551 l 1
 284 551 l 1
 297 610 l 1
 488 610 l 1
 512 722 l 1
 587 722 l 1
 563 610 l 1
 664 610 l 1
 652 551 l 1
 551 551 l 1
 434 0 l 1
 355 0 l 1x7c
 366 52 l 1
 330 24 275 -11 204 -11 c 0
 113 -11 75 78 75 155 c 0
154 167 m 0
 154 75 216 51 260 51 c 0
 300 51 335 71 357 94 c 0
 383 120 381 120 385 140 c 0
 416 285 426 323 426 338 c 0
 426 348 403 394 342 394 c 0xbc
 245 394 154 298 154 167 c 0
EndSplineSet
AlternateSubs2: "Stilistic set 01 subtable" dcroat.vn
AlternateSubs2: "Latin alternatives subtable" dcroat.vn
Substitution2: "Latin Vietnamese substitutions subtable" dcroat.vn
EndChar

StartChar: section
Encoding: 167 167 170
Width: 444
Flags: HW
TeX: 722 194
HStem: -205 61<99.7346 239.818> 672 61<316.51 448.417>
VStem: 123 80<188.408 320.786> 185 81<478.728 612.27> 290 81<-84.3053 46.9357> 352 81<206.601 338.865>
LayerCount: 2
Fore
SplineSet
16 -133 m 1
 42 -65 l 1
 43 -65 l 1
 63 -99 101 -144 187 -144 c 0
 257 -144 290 -53 290 -12 c 0
 290 15 279 40 258 58 c 0
 238 75 123 118 123 234 c 0xe8
 123 306 170 380 230 415 c 1
 206 445 185 477 185 526 c 0
 185 620 269 733 381 733 c 0
 460 733 493 698 515 675 c 1
 489 609 l 1
 471 635 441 672 369 672 c 0
 299 672 266 581 266 539 c 0
 266 532 266 497 297 469 c 0
 317 452 433 409 433 293 c 0xd4
 433 221 386 148 326 112 c 1
 348 85 371 54 371 1 c 0xc8
 371 -91 290 -205 174 -205 c 0
 79 -205 41 -163 16 -133 c 1
203 247 m 0
 203 186 249 166 274 152 c 1
 336 178 352 252 352 281 c 0xe4
 352 349 286 373 280 373 c 0
 254 373 203 309 203 247 c 0
EndSplineSet
EndChar

StartChar: aogonek
Encoding: 261 261 172
Width: 480
Flags: HW
TeX: 441 194
ItalicCorrection: 9
HStem: -217 70<274.496 384.238> -11 62<118.411 278.846> 193 52<213.163 362> 401 60<213.826 368.577>
VStem: 65 75<67.4996 145.361> 209 63<-171 -83.5993> 387 79<248.358 382.404>
DStem2: 278.663 -217 353.875 -217 0.207912 0.978148<228.98 257.375 300.94 418.367 467.87 549.996>
AnchorPoint: "above" 331 461 basechar 0
LayerCount: 2
Fore
SplineSet
65 85 m 0
 65 135 90 180 170 211 c 0
 245 241 333 245 374 245 c 1
 385 299 387 307 387 323 c 0
 387 353 374 401 319 401 c 0
 241 401 191 369 157 350 c 1
 165 417 l 1
 213 442 263 461 331 461 c 0
 429 461 466 391 466 330 c 0
 466 309 462 298 458 275 c 2
 400 0 l 1
 351 0 272 -72 272 -114 c 0
 272 -127 280 -147 318 -147 c 0
 342 -147 366 -139 389 -133 c 1
 392 -192 l 1
 373 -200 330 -217 289 -217 c 0
 245 -217 209 -194 209 -148 c 0
 209 -118 225 -57 325 1 c 1
 331 35 l 1
 291 12 236 -11 154 -11 c 0
 83 -11 65 47 65 85 c 0
140 104 m 0
 140 76 169 51 219 51 c 0
 279 51 329 75 344 113 c 0
 347 121 349 128 362 193 c 1
 304 192 247 185 201 168 c 0
 158 152 140 127 140 104 c 0
EndSplineSet
EndChar

StartChar: dcaron
Encoding: 271 271 175
Width: 633
Flags: HW
TeX: 722 0
ItalicCorrection: 100
HStem: -11 62<194.054 298.639> -0 21<355 438.238> 394 61<263.647 399.795> 702 20<507.763 587>
VStem: 75 79<91.4303 267.145>
DStem2: 352.662 -11 431.662 -11 0.207912 0.978148<27.6708 64.3965 97.2755 355.915 421.987 750.11>
LayerCount: 2
Fore
SplineSet
616 597 m 1
 659 680 l 1
 634 680 l 1
 651 764 l 1
 735 764 l 1x38
 712 655 728 698 658 597 c 1
 616 597 l 1
EndSplineSet
Refer: 111 100 S 1 0 0 1 -0 -0 2
EndChar

StartChar: eogonek
Encoding: 281 281 177
Width: 444
Flags: HW
TeX: 441 194
ItalicCorrection: 67
HStem: -217 70<232.259 341.308> -11 61<197.096 262> 220 55<168 416> 399 62<254.599 381.711>
VStem: 76 71<101.455 218.986> 166 64<-163 -82.1494> 416 56<275.997 363.146>
AnchorPoint: "above" 334 461 basechar 0
LayerCount: 2
Fore
SplineSet
76 172 m 0
 76 317 203 461 335 461 c 0
 394 461 472 430 472 308 c 0
 472 278 466 249 461 220 c 1
 151 220 l 1
 148 190 147 193 147 182 c 0
 147 106 194 50 263 50 c 0
 337 50 395 85 427 106 c 1
 419 40 l 1
 346 -1 304 -10 260 -58 c 0
 235 -85 230 -104 230 -115 c 0
 230 -128 237 -147 274 -147 c 0
 301 -147 330 -137 346 -133 c 1
 349 -192 l 1
 317 -205 282 -217 247 -217 c 0
 183 -217 166 -177 166 -149 c 0
 166 -121 181 -64 262 -10 c 1
 258 -10 254 -11 250 -11 c 0
 139 -11 76 72 76 172 c 0
168 275 m 1
 416 275 l 1
 416 288 l 2
 416 381 357 399 322 399 c 0
 254 399 194 336 168 275 c 1
EndSplineSet
EndChar

StartChar: lacute
Encoding: 314 314 179
Width: 239
Flags: HW
TeX: 850 0
ItalicCorrection: 100
HStem: 0 21<81 160.266> 702 20<229.762 310> 850 0
VStem: 81 229
DStem2: 81 0 156 0 0.207912 0.978148<15.5934 738.033>
LayerCount: 2
Fore
SplineSet
196 760 m 1
 371 850 365 850 384 850 c 2
 483 850 l 1
 308 771 l 1
 283 761 l 1
 268 760 l 1
 196 760 l 1
EndSplineSet
Refer: 119 108 S 1 0 0 1 0 0 3
EndChar

StartChar: lcaron
Encoding: 318 318 180
Width: 355
Flags: HW
TeX: 722 0
ItalicCorrection: 100
HStem: -0 21<81 160.266> 702 20<229.762 310>
VStem: 81 229
DStem2: 81 -0 156 -0 0.207912 0.978148<15.5934 738.033>
LayerCount: 2
Fore
SplineSet
339 597 m 1
 382 680 l 1
 356 680 l 1
 374 764 l 1
 458 764 l 1
 435 655 451 698 381 597 c 1
 339 597 l 1
EndSplineSet
Refer: 119 108 S 1 0 0 1 -0 -0 2
EndChar

StartChar: lslash
Encoding: 322 322 181
Width: 324
Flags: HW
TeX: 722 0
ItalicCorrection: 100
HStem: 0 21G<123 202.237> 702 20G<271.775 352>
VStem: 88 314
DStem2: 88 286 116 241 0.811427 0.584454<0 80.2348 249.239 348.885> 123 0 198 0 0.207912 0.978148<15.5934 296.345 375.197 377.451 457.281 738.033>
AnchorPoint: "above" 313 722 basechar 0
LayerCount: 2
Fore
SplineSet
88 286 m 1
 201 367 l 1
 276 722 l 1
 352 722 l 1
 290 432 l 1
 374 492 l 1
 402 447 l 1
 273 354 l 1
 198 0 l 1
 123 0 l 1
 184 290 l 1
 116 241 l 1
 88 286 l 1
EndSplineSet
EndChar

StartChar: eng
Encoding: 331 331 184
Width: 517
Flags: HW
TeX: 441 194
ItalicCorrection: 17
HStem: -205 63<187.999 303.827> -0 21G<80 180.5> 394 56<296.525 408.301>
VStem: 424 82<226.953 377.233>
DStem2: 36.4259 -205 114.426 -205 0.207912 0.978148<225.797 579.128 613.294 669.498> 314.426 -205 392.426 -205 0.207912 0.978148<102.932 225.589 225.797 543.539>
AnchorPoint: "affricate-below" 476 -195 basechar 0
AnchorPoint: "affricate-above" 670 722 basechar 0
AnchorPoint: "below" 216 -195 basechar 0
AnchorPoint: "above" 355 461 basechar 0
LayerCount: 2
Fore
SplineSet
80 -0 m 1
 175 450 l 1
 248 450 l 1
 234 380 l 1
 269 415 321 455 395 455 c 0
 466 455 506 425 506 355 c 0
 506 334 502 312 498 291 c 2
 436 -0 l 1
 435 -0 l 1
 407 -125 333 -205 265 -205 c 0
 231 -205 189 -196 152 -171 c 1
 152 -170 l 1
 192 -110 l 1
 213 -132 233 -142 253 -142 c 0
 296 -142 332 -98 346 -55 c 0
 352 -37 355 -18 359 -0 c 1
 358 -0 l 1
 419 290 l 2
 422 303 424 315 424 328 c 0
 424 381 382 394 343 394 c 0
 267 394 229 309 216 267 c 0
 208 241 203 214 158 -0 c 1
 80 -0 l 1
EndSplineSet
EndChar

StartChar: sacute
Encoding: 347 347 188
Width: 383
Flags: HW
TeX: 638 0
ItalicCorrection: 77
HStem: -11 63<107.75 286.172> 401 60<199.407 381.068> 510 130
VStem: 101 75<291.185 376.923> 219 239 316 74<80.0581 171.243>
DStem2: 219 510 281 510 0.808143 0.588986<50.1049 205.871>
AnchorPoint: "below" 196 0 basechar 0
AnchorPoint: "above" 333 620 basechar 0
LayerCount: 2
Fore
SplineSet
35 34 m 1
 61 102 l 1
 86 85 128 52 208 52 c 0
 306 52 316 112 316 132 c 0
 316 192 226 190 181 206 c 0
 143 219 101 252 101 306 c 0
 101 329 113 405 186 441 c 0
 206 451 236 461 297 461 c 0
 350 461 384 454 435 430 c 1
 410 364 l 1
 370 386 341 401 272 401 c 0
 187 401 176 348 176 329 c 0
 176 269 265 277 317 256 c 0
 341 246 390 216 390 155 c 0xf4
 390 121 374 -11 195 -11 c 0
 115 -11 62 17 35 34 c 1
EndSplineSet
Refer: 13 180 S 1 0 0 1 -80 0 2
EndChar

StartChar: scaron
Encoding: 353 353 189
Width: 383
Flags: HW
TeX: 638 0
ItalicCorrection: 77
HStem: -11 63<107.356 286.594> 401 60<199.274 381.068> 545 94
VStem: 101 74<291.638 377.198> 163 323 316 74<81.233 173.24>
DStem2: 224 639 163 639 0.760231 -0.649652<0 98.3187>
AnchorPoint: "below" 196 0 basechar 0
AnchorPoint: "above" 333 619 basechar 0
LayerCount: 2
Fore
SplineSet
35 34 m 1
 61 102 l 1
 86 84 128 52 208 52 c 0
 305 52 316 112 316 133 c 0
 316 183 250 190 237 193 c 0
 214 198 101 210 101 306 c 0
 101 341 120 391 155 421 c 0
 198 458 257 461 297 461 c 0
 350 461 384 454 435 430 c 1
 410 364 l 1
 370 386 341 401 272 401 c 0
 185 401 175 347 175 329 c 0
 175 269 262 279 316 257 c 0
 352 242 390 208 390 154 c 0xf4
 390 123 376 -11 196 -11 c 0
 140 -11 89 0 35 34 c 1
EndSplineSet
Refer: 19 711 S 1 0 0 1 -61 0 2
EndChar

StartChar: scedilla
Encoding: 351 351 190
Width: 383
Flags: HW
TeX: 441 170
ItalicCorrection: 77
HStem: -192 169 -11 63<107.75 285.954> 401 60<199.407 381.068>
VStem: 52 171 101 75<291.185 376.923> 316 74<80.8565 171.243>
DStem2: 52 -192 122 -192 0.545511 0.838104<38.1858 201.646>
LayerCount: 2
Fore
SplineSet
35 34 m 1
 61 102 l 1
 86 85 128 52 208 52 c 0
 305 52 316 112 316 132 c 0
 316 192 226 190 181 206 c 0
 143 219 101 252 101 306 c 0
 101 329 113 405 186 441 c 0
 206 451 236 461 297 461 c 0
 350 461 384 454 435 430 c 1
 410 364 l 1
 370 386 341 401 272 401 c 0
 187 401 176 348 176 329 c 0
 176 269 265 277 317 256 c 0
 341 246 390 216 390 155 c 0xec
 390 121 374 -11 195 -11 c 0
 115 -11 62 17 35 34 c 1
EndSplineSet
Refer: 23 184 S 1 0 0 1 -24 0 2
EndChar

StartChar: tcaron
Encoding: 357 357 191
Width: 361
Flags: HW
TeX: 722 0
ItalicCorrection: 131
HStem: -11 64<159 299.518> 386 59<113 184 269 398>
VStem: 119 79<56.3294 180.524>
DStem2: 99.6151 -11 171.615 -11 0.207912 0.978148<186.186 405.869 481.252 595.559>
LayerCount: 2
Fore
SplineSet
100 386 m 1
 113 445 l 1
 199 445 l 1
 226 571 l 1
 296 571 l 1
 269 445 l 1
 410 445 l 1
 398 386 l 1
 256 386 l 1
 200 119 198 118 198 97 c 0
 198 62 216 53 238 53 c 0
 278 53 309 70 335 86 c 1
 338 27 l 1
 281 -1 227 -11 180 -11 c 0
 138 -11 119 16 119 61 c 0
 119 94 121 87 184 386 c 1
 100 386 l 1
377 488 m 1
 420 571 l 1
 395 571 l 1
 413 655 l 1
 496 655 l 1
 473 546 489 589 419 488 c 1
 377 488 l 1
EndSplineSet
EndChar

StartChar: tcommaaccent
Encoding: 355 355 192
Width: 361
Flags: HW
TeX: 571 170
ItalicCorrection: 72
HStem: -192 169 -11 64<155.5 299.199> 386 59<112 183 269 397>
VStem: 76 171 119 79<55.819 186.353>
DStem2: 60.1423 -192 133.142 -192 0.207912 0.978148<371.438 590.913 666.504 780.81> 76 -192 146 -192 0.545511 0.838104<38.1858 201.646>
LayerCount: 2
Fore
SplineSet
100 386 m 1
 112 445 l 1
 199 445 l 1
 226 571 l 1
 296 571 l 1
 269 445 l 1
 410 445 l 1
 397 386 l 1
 256 386 l 1
 200 119 198 118 198 97 c 0
 198 62 216 53 238 53 c 0xe8
 278 53 308 70 334 86 c 1
 338 27 l 1
 281 -1 227 -11 180 -11 c 0
 131 -11 119 24 119 61 c 0
 119 94 120 87 183 386 c 1
 100 386 l 1
EndSplineSet
Refer: 23 184 S 1 0 0 1 0 0 2
EndChar

StartChar: uring
Encoding: 367 367 194
Width: 517
Flags: HW
TeX: 638 0
ItalicCorrection: 41
HStem: -11 56<150 299.975> 0 21<360 440.225> 425 20<169.786 252 447.714 530> 477 32<327.759 411.077> 606 32<342.622 426.488>
VStem: 97 81<52.1559 182.102> 264 56<512.975 590.428> 433 55<524.676 601.218>
DStem2: 77.6286 -11 155.88 -11 0.207912 0.978148<115.133 466.072> 357.662 -11 433.662 -11 0.207912 0.978148<27.047 60.2759 98.4214 465.649>
LayerCount: 2
Fore
SplineSet
264 545 m 0
 264 594 323 635 385 638 c 1
 401 638 l 1
 438 636 488 618 488 570 c 0
 488 529 440 481 367 477 c 1
 351 477 l 1
 315 479 264 497 264 545 c 0
320 546 m 0
 320 531 327 509 366 509 c 0x3f
 415 509 433 546 433 569 c 0
 433 599 407 606 386 606 c 0
 336 606 320 566 320 546 c 0
EndSplineSet
Refer: 128 117 S 1 0 0 1 -0 0 3
EndChar

StartChar: ij
Encoding: 307 307 199
Width: 544
Flags: HW
TeX: 677 194
ItalicCorrection: 97
HStem: -205 64<221.991 349.057> 0 21<88 167.27> 425 20G<178.73 258 483.748 563> 590 89<225 296 523 594>
VStem: 88 170 206 108 504 108
DStem2: 88 0 163 0 0.207912 0.978148<15.5934 455.027> 349.838 -205 424.838 -205 0.207912 0.978148<79.8614 664.521>
LayerCount: 2
Fore
SplineSet
193 -171 m 1
 221 -110 l 1
 229 -117 247 -141 288 -141 c 0xf2
 370 -141 380 -63 380 -63 c 1
 488 445 l 1
 563 445 l 1
 463 -26 l 2
 453 -75 446 -112 408 -154 c 0
 364 -202 319 -205 303 -205 c 0
 259 -205 223 -191 193 -171 c 1
EndSplineSet
Refer: 367 183 S 1 0 0 1 394 415 2
Refer: 116 105 S 1 0 0 1 7 0 2
Ligature2: "Latin Dutch ligatures subtable" i j
EndChar

StartChar: exclamdown
Encoding: 161 161 200
Width: 319
Flags: HW
TeX: 527 194
ItalicCorrection: 21
HStem: -195 21G<76 163.942> 444 84<230 296>
VStem: 212 101
DStem2: 76 -195 160 -195 0.207912 0.978148<17.4646 562.014>
LayerCount: 2
Fore
SplineSet
76 -195 m 1
 201 353 l 1
 268 353 l 1
 160 -195 l 1
 76 -195 l 1
EndSplineSet
Refer: 57 46 S 1 0 0 1 116 444 2
EndChar

StartChar: questiondown
Encoding: 191 191 201
Width: 472
Flags: HW
TeX: 527 194
HStem: -205 61<131.94 303.725> 444 84<292 358>
VStem: 41 78<-130.579 0.528336> 263 67<266.148 353> 274 101
LayerCount: 2
Fore
SplineSet
41 -89 m 0
 41 30 129 89 133 93 c 0
 238 189 250 296 263 353 c 1
 330 353 l 1xf0
 319 306 304 178 189 58 c 0
 179 48 119 4 119 -83 c 0
 119 -132 153 -144 193 -144 c 0
 275 -144 338 -108 375 -86 c 1
 384 -150 l 1
 311 -189 242 -205 180 -205 c 0xe8
 97 -205 41 -171 41 -89 c 0
EndSplineSet
Refer: 57 46 S 1 0 0 1 178 444 2
EndChar

StartChar: sterling
Encoding: 163 163 202
Width: 754
Flags: HW
TeX: 722 0
HStem: -11 62<118 214.577 407.326 535.936> 83 62<144.975 218.178> 332 58<249 308 399 486> 702 62<507.953 609.452>
VStem: 66 77<51.0015 80.0312> 562 79<92.2257 145> 628 76<516.125 683.58>
DStem2: 235.093 -11 313.093 -11 0.207912 0.978148<179.827 350.663 426.315 678.69>
LayerCount: 2
Fore
SplineSet
66 46 m 0
 66 90 118 145 213 145 c 0
 232 145 247 142 263 138 c 1
 272 165 l 1
 308 332 l 1
 236 332 l 1
 249 390 l 1
 321 390 l 1
 349 521 357 560 363 578 c 0
 400 686 492 764 578 764 c 0
 654 764 704 704 704 606 c 0xfa
 704 560 700 507 656 507 c 0
 635 507 625 520 627 541 c 1
 619 542 l 1
 624 565 628 588 628 611 c 0xfa
 628 689 590 702 565 702 c 0
 514 702 462 652 439 571 c 0
 434 553 430 535 399 390 c 1
 499 390 l 1
 486 332 l 1
 386 332 l 1
 347 146 350 153 328 112 c 1
 400 75 443 50 496 50 c 0
 523 50 547 67 562 145 c 1
 641 145 l 1xfc
 624 61 541 -11 451 -11 c 0
 385 -11 320 30 280 51 c 1
 242 15 191 -11 138 -11 c 0
 98 -11 66 12 66 46 c 0
143 59 m 1
 143 53 148 51 156 51 c 0
 183 51 209 69 219 76 c 1
 200 80 186 83 175 83 c 0xf8
 145 83 143 59 143 59 c 1
EndSplineSet
EndChar

StartChar: Agrave
Encoding: 192 192 203
Width: 667
Flags: HW
TeX: 850 0
HStem: 0 21<27 113.765 541.765 637> 204 56<254 503> 674 20<423.242 527.256>
DStem2: 27 0 102 0 0.506803 0.862062<38.0102 274.687 339.18 556.107> 637 0 503 260 0.160708 -0.987002<-533.878 -278.155 -221.437 -14.7851>
AnchorPoint: "below" 332 0 basechar 0
AnchorPoint: "above" 513 852 basechar 0
LayerCount: 2
Fore
SplineSet
371 850 m 1
 482 850 l 1
 619 760 l 1
 544 760 l 2
 529 760 527 761 371 850 c 1
EndSplineSet
Refer: 76 65 S 1 0 0 1 0 0 3
AlternateSubs2: "Stilistic set 01 subtable" Agrave.vn
AlternateSubs2: "Latin alternatives subtable" Agrave.vn
Substitution2: "Latin Vietnamese substitutions subtable" Agrave.vn
EndChar

StartChar: Aacute
Encoding: 193 193 204
Width: 667
Flags: HW
TeX: 850 0
ItalicCorrection: 19
HStem: -0 21<27 113.765 541.765 637> 204 56<254 503> 674 20<423.242 527.256> 850 0
DStem2: 27 -0 102 -0 0.506803 0.862062<38.0102 274.687 339.18 556.107> 637 -0 503 260 0.160708 -0.987002<-533.878 -278.155 -221.437 -14.7851>
AnchorPoint: "below" 332 0 basechar 0
AnchorPoint: "above" 513 852 basechar 0
LayerCount: 2
Fore
SplineSet
368 760 m 1
 544 850 537 850 556 850 c 2
 655 850 l 1
 480 771 l 1
 455 761 l 1
 440 760 l 1
 368 760 l 1
EndSplineSet
Refer: 76 65 S 1 0 0 1 0 -0 3
AlternateSubs2: "Stilistic set 01 subtable" Aacute.vn
AlternateSubs2: "Latin alternatives subtable" Aacute.vn
Substitution2: "Latin Vietnamese substitutions subtable" Aacute.vn
EndChar

StartChar: Atilde
Encoding: 195 195 206
Width: 667
Flags: HW
TeX: 888 0
HStem: 0 21<27 113.765 541.765 637> 204 56<254 503> 674 20<423.242 527.256> 727 62<528.457 600.775> 827 61<408.82 478.989>
VStem: 320 62<727 793.075> 626 61<820.656 889>
DStem2: 27 0 102 0 0.506803 0.862062<38.0102 274.687 339.18 556.107> 637 0 503 260 0.160708 -0.987002<-533.878 -278.155 -221.437 -14.7851>
AnchorPoint: "below" 332 0 basechar 0
AnchorPoint: "above" 521 891 basechar 0
LayerCount: 2
Fore
SplineSet
320 727 m 1
 343 833 399 888 451 888 c 0
 517 888 507 789 568 789 c 0
 603 789 616 839 626 889 c 1
 687 889 l 1
 667 787 608 727 556 727 c 0
 491 727 500 827 440 827 c 0
 399 827 387 749 382 727 c 1
 320 727 l 1
EndSplineSet
Refer: 76 65 S 1 0 0 1 -0 0 3
AlternateSubs2: "Stilistic set 01 subtable" Atilde.vn
AlternateSubs2: "Latin alternatives subtable" Atilde.vn
Substitution2: "Latin Vietnamese substitutions subtable" Atilde.vn
EndChar

StartChar: Aring
Encoding: 197 197 208
Width: 667
Flags: HW
TeX: 850 0
HStem: 0 21G<27 113.765 541.765 637> 204 56<254 503> 827 61<455.702 539.215>
VStem: 373 56<698.536 803.071> 545 56<719.263 821.792>
DStem2: 27 0 102 0 0.506672 0.862139<38.0004 274.677 339.171 556.097> 637 0 503 260 0.160744 -0.986996<-533.882 -278.159 -221.44 -14.7884>
LayerCount: 2
Fore
SplineSet
27 0 m 1
 409 650 l 1
 397 660 373 682 373 730 c 0
 373 812 444 888 514 888 c 0
 566 888 601 847 601 791 c 0
 601 738 571 687 530 657 c 1
 637 0 l 1
 545 0 l 1
 512 204 l 1
 222 204 l 1
 102 0 l 1
 27 0 l 1
254 260 m 1
 503 260 l 1
 470 471 456 578 456 613 c 2
 456 624 l 1
 423 548 316 369 254 260 c 1
429 741 m 0
 429 703 452 694 473 694 c 0
 530 694 545 758 545 783 c 0
 545 813 527 827 502 827 c 2
 501 827 l 2
 483 827 470 821 455 809 c 1
 435 784 429 760 429 741 c 0
EndSplineSet
EndChar

StartChar: AE
Encoding: 198 198 209
Width: 861
Flags: HW
TeX: 694 0
ItalicCorrection: 119
HStem: 0 71<522 818> 222 56<275 466> 330 62<590 847> 630 64<494 552 640 938>
DStem2: 27 0 102 0 0.528459 0.848959<39.6344 301.031 367.068 781.634> 418 0 507.121 0 0.207912 0.978148<90.0931 227.129 284.192 355.847 419.195 644.093>
AnchorPoint: "below" 422 0 basechar 0
AnchorPoint: "above" 615 716 basechar 0
LayerCount: 2
Fore
SplineSet
27 0 m 1
 459 694 l 1
 952 694 l 1
 938 628 l 1
 890 628 l 1
 867 629 l 1
 664 629 l 1
 640 630 l 1
 590 392 l 1
 860 392 l 1
 847 330 l 1
 577 330 l 1
 522 70 l 1
 587 70 l 1
 611 71 l 1
 774 71 l 1
 795 72 l 1
 833 72 l 1
 818 0 l 1
 418 0 l 1
 466 222 l 1
 240 222 l 1
 102 0 l 1
 27 0 l 1
275 278 m 1
 477 278 l 1
 552 630 l 1
 494 630 l 1
 275 278 l 1
EndSplineSet
EndChar

StartChar: Ccedilla
Encoding: 199 199 210
Width: 639
Flags: HW
TeX: 694 170
ItalicCorrection: 119
HStem: -192 169 -22 64<319.343 523.066> 652 64<437.872 637.748>
VStem: 130 90<152.644 389.281> 243 171
DStem2: 243 -192 313 -192 0.545511 0.838104<38.1858 201.646>
AnchorPoint: "above" 545 716 basechar 0
LayerCount: 2
Fore
SplineSet
130 259 m 0
 130 488 325 716 545 716 c 0
 616 716 664 705 722 682 c 1
 690 599 l 1
 648 629 608 652 530 652 c 0
 386 652 220 491 220 262 c 0
 220 153 277 42 402 42 c 0
 501 42 536 65 604 103 c 1
 595 33 l 1
 519 -6 480 -22 389 -22 c 0
 219 -22 130 109 130 259 c 0
EndSplineSet
Refer: 23 184 S 1 0 0 1 167 0 2
EndChar

StartChar: Egrave
Encoding: 200 200 211
Width: 597
Flags: HW
TeX: 850 0
ItalicCorrection: 119
HStem: 0 71<199 555> 329 61<266 584> 626 65<317 674>
DStem2: 94 0 184.121 0 0.207912 0.978148<90.3011 353.89 417.238 659.663>
AnchorPoint: "below" 324 0 basechar 0
AnchorPoint: "above" 507 855 basechar 0
LayerCount: 2
Fore
SplineSet
323 850 m 1
 434 850 l 1
 571 760 l 1
 496 760 l 2
 481 760 479 761 323 850 c 1
EndSplineSet
Refer: 80 69 S 1 0 0 1 0 0 3
AlternateSubs2: "Stilistic set 01 subtable" Egrave.vn
AlternateSubs2: "Latin alternatives subtable" Egrave.vn
Substitution2: "Latin Vietnamese substitutions subtable" Egrave.vn
EndChar

StartChar: Eacute
Encoding: 201 201 212
Width: 597
Flags: HW
TeX: 850 0
ItalicCorrection: 119
HStem: 0 71<199 555> 329 61<266 584> 626 65<317 674> 850 0
DStem2: 94 0 184.121 0 0.207912 0.978148<90.3011 353.89 417.238 659.663>
AnchorPoint: "below" 324 0 basechar 0
AnchorPoint: "above" 507 855 basechar 0
LayerCount: 2
Fore
SplineSet
362 760 m 1
 538 850 531 850 550 850 c 2
 649 850 l 1
 474 771 l 1
 449 761 l 1
 434 760 l 1
 362 760 l 1
EndSplineSet
Refer: 80 69 S 1 0 0 1 0 -0 3
AlternateSubs2: "Stilistic set 01 subtable" Eacute.vn
AlternateSubs2: "Latin alternatives subtable" Eacute.vn
Substitution2: "Latin Vietnamese substitutions subtable" Eacute.vn
EndChar

StartChar: Ecircumflex
Encoding: 202 202 213
Width: 597
Flags: HW
TeX: 888 0
ItalicCorrection: 119
HStem: 0 71<199 555> 329 61<266 584> 626 65<317 674> 727 21G<284 364.672 522.689 595>
DStem2: 94 0 184.121 0 0.207912 0.978148<90.3011 353.89 417.238 659.663> 284 727 345 727 0.681262 0.73204<41.557 212.617> 507 900 465 849 0.453385 -0.891315<26.4149 166.439>
AnchorPoint: "below" 324 0 basechar 0
AnchorPoint: "above" 517 905 basechar 0
LayerCount: 2
Fore
SplineSet
284 727 m 1
 445 900 l 1
 507 900 l 1
 595 727 l 1
 534 727 l 1
 465 849 l 1
 345 727 l 1
 284 727 l 1
EndSplineSet
Refer: 80 69 S 1 0 0 1 -0 0 3
AlternateSubs2: "Stilistic set 01 subtable" Ecircumflex.vn
AlternateSubs2: "Latin alternatives subtable" Ecircumflex.vn
Substitution2: "Latin Vietnamese substitutions subtable" Ecircumflex.vn
EndChar

StartChar: Igrave
Encoding: 204 204 215
Width: 278
Flags: HW
TeX: 850 0
ItalicCorrection: 133
HStem: -0 21<94 188.236> 674 20<236.764 331>
VStem: 94 237
DStem2: 94 -0 184 -0 0.207912 0.978148<18.7121 709.397>
AnchorPoint: "below" 138 0 basechar 0
AnchorPoint: "above" 319 852 basechar 0
LayerCount: 2
Fore
SplineSet
164 850 m 1
 275 850 l 1
 412 760 l 1
 336 760 l 2
 321 760 318 761 164 850 c 1
EndSplineSet
Refer: 84 73 S 1 0 0 1 0 -0 3
AlternateSubs2: "Stilistic set 01 subtable" Igrave.vn
AlternateSubs2: "Latin alternatives subtable" Igrave.vn
Substitution2: "Latin Vietnamese substitutions subtable" Igrave.vn
EndChar

StartChar: Iacute
Encoding: 205 205 216
Width: 278
Flags: HW
TeX: 850 0
ItalicCorrection: 133
HStem: 0 21<94 188.236> 674 20<236.764 331> 850 0
VStem: 94 237
DStem2: 94 0 184 0 0.207912 0.978148<18.7121 709.397>
AnchorPoint: "below" 138 0 basechar 0
AnchorPoint: "above" 319 852 basechar 0
LayerCount: 2
Fore
SplineSet
216 760 m 1
 391 850 385 850 404 850 c 2
 503 850 l 1
 328 771 l 1
 303 761 l 1
 288 760 l 1
 216 760 l 1
EndSplineSet
Refer: 84 73 S 1 0 0 1 0 0 3
AlternateSubs2: "Stilistic set 01 subtable" Iacute.vn
AlternateSubs2: "Latin alternatives subtable" Iacute.vn
Substitution2: "Latin Vietnamese substitutions subtable" Iacute.vn
EndChar

StartChar: Icircumflex
Encoding: 206 206 217
Width: 278
Flags: HW
TeX: 888 0
ItalicCorrection: 133
HStem: 0 21<94 188.236> 674 20<236.764 331> 727 21G<138 218.672 375.852 449>
VStem: 94 237
DStem2: 94 0 184 0 0.207912 0.978148<18.7121 709.397> 138 727 199 727 0.681262 0.73204<41.557 212.617> 361 900 319 849 0.453385 -0.891315<26.4149 165.985>
AnchorPoint: "below" 138 0 basechar 0
AnchorPoint: "above" 330 902 basechar 0
LayerCount: 2
Fore
SplineSet
138 727 m 1
 299 900 l 1
 361 900 l 1
 449 727 l 1
 387 727 l 1
 319 849 l 1
 199 727 l 1
 138 727 l 1
EndSplineSet
Refer: 84 73 S 1 0 0 1 0 0 3
EndChar

StartChar: Eth
Encoding: 208 208 219
Width: 722
Flags: HW
TeX: 694 0
ItalicCorrection: 75
HStem: -0 56<194 447.254> 311 59<78 161 261 427> 638 56<318 561.016>
VStem: 661 87<297.491 533.619>
DStem2: 95 -0 182.097 -0 0.207912 0.978148<75.3595 317.926 396.428 670.422>
LayerCount: 2
Fore
SplineSet
66 311 m 1
 78 370 l 1
 174 370 l 1
 242 694 l 1
 493 694 l 2
 697 694 748 532 748 425 c 0
 748 214 577 25 397 2 c 0
 379 0 361 0 342 -0 c 2
 95 -0 l 1
 161 311 l 1
 66 311 l 1
194 56 m 1
 347 56 l 2
 521 56 661 231 661 427 c 0
 661 515 622 638 463 638 c 2
 318 638 l 1
 261 370 l 1
 439 370 l 1
 427 311 l 1
 248 311 l 1
 194 56 l 1
EndSplineSet
EndChar

StartChar: Ntilde
Encoding: 209 209 220
Width: 708
Flags: HW
TeX: 888 0
ItalicCorrection: 80
HStem: 0 21<95 177.231 480.115 615.236> 674 20<237.764 373.823 675.769 758> 727 62<549.638 621.064> 827 61<427.544 499.631>
VStem: 341 61<727 792.663> 647 61<821.587 889>
DStem2: 95 0 173 0 0.207912 0.978148<16.2171 654.026> 368 694 305 624 0.278581 -0.960413<49.6783 649.442> 533.121 0 611 0 0.207912 0.978148<71.5638 709.372>
LayerCount: 2
Fore
SplineSet
341 727 m 1
 364 832 419 888 471 888 c 0
 537 888 528 789 588 789 c 0
 623 789 638 839 647 889 c 1
 708 889 l 1
 692 806 642 727 578 727 c 0
 513 727 521 827 461 827 c 0
 426 827 413 779 402 727 c 1
 341 727 l 1
EndSplineSet
Refer: 89 78 S 1 0 0 1 -0 0 3
EndChar

StartChar: Ograve
Encoding: 210 210 221
Width: 736
Flags: HW
TeX: 850 0
ItalicCorrection: 75
HStem: -22 65<298.017 464.028> 652 64<417.696 584.714>
VStem: 119 92<146.361 386.056> 676 87<313.811 553.957>
AnchorPoint: "below" 368 0 basechar 0
AnchorPoint: "above" 544 830 basechar 0
LayerCount: 2
Fore
SplineSet
406 850 m 1
 518 850 l 1
 654 760 l 1
 579 760 l 2
 564 760 562 761 406 850 c 1
EndSplineSet
Refer: 90 79 S 1 0 0 1 0 -0 3
AlternateSubs2: "Stilistic set 01 subtable" Ograve.vn
AlternateSubs2: "Latin alternatives subtable" Ograve.vn
Substitution2: "Latin Vietnamese substitutions subtable" Ograve.vn
EndChar

StartChar: Oacute
Encoding: 211 211 222
Width: 736
Flags: HW
TeX: 850 0
ItalicCorrection: 75
HStem: -22 65<298.017 464.028> 652 64<417.696 584.714> 850 0
VStem: 119 92<146.361 386.056> 676 87<313.811 553.957>
AnchorPoint: "below" 368 0 basechar 0
AnchorPoint: "above" 544 830 basechar 0
LayerCount: 2
Fore
SplineSet
404 760 m 1
 580 850 573 850 592 850 c 2
 690 850 l 1
 515 771 l 1
 491 761 l 1
 476 760 l 1
 404 760 l 1
EndSplineSet
Refer: 90 79 S 1 0 0 1 0 -0 3
AlternateSubs2: "Stilistic set 01 subtable" Oacute.vn
AlternateSubs2: "Latin alternatives subtable" Oacute.vn
Substitution2: "Latin Vietnamese substitutions subtable" Oacute.vn
EndChar

StartChar: Ocircumflex
Encoding: 212 212 223
Width: 736
Flags: HW
TeX: 888 0
ItalicCorrection: 75
HStem: -22 65<298.017 464.028> 652 64<417.696 584.714> 727 21G<367 447.836 605.852 678>
VStem: 119 92<146.361 386.056> 676 87<313.811 553.957>
DStem2: 367 727 428 727 0.681262 0.73204<41.557 213.299> 590 900 549 849 0.453385 -0.891315<26.8682 166.439>
AnchorPoint: "below" 368 0 basechar 0
AnchorPoint: "above" 555 880 basechar 0
LayerCount: 2
Fore
SplineSet
367 727 m 1
 528 900 l 1
 590 900 l 1
 678 727 l 1
 617 727 l 1
 549 849 l 1
 428 727 l 1
 367 727 l 1
EndSplineSet
Refer: 90 79 S 1 0 0 1 -0 0 3
AlternateSubs2: "Stilistic set 01 subtable" Ocircumflex.vn
AlternateSubs2: "Latin alternatives subtable" Ocircumflex.vn
Substitution2: "Latin Vietnamese substitutions subtable" Ocircumflex.vn
EndChar

StartChar: Otilde
Encoding: 213 213 224
Width: 736
Flags: HW
TeX: 888 0
ItalicCorrection: 75
HStem: -22 65<298.017 464.028> 652 64<417.696 584.714> 727 62<564.082 635.476> 827 62<442.512 513.904>
VStem: 119 92<146.361 386.056> 355 62<727 791.693> 662 61<822.14 889> 676 87<313.811 553.957>
AnchorPoint: "below" 368 0 basechar 0
AnchorPoint: "above" 553 869 basechar 0
LayerCount: 2
Fore
SplineSet
355 727 m 1
 393 874 459 889 485 889 c 0
 552 889 542 789 603 789 c 0
 641 789 653 849 662 889 c 1
 723 889 l 1
 699 780 642 727 592 727 c 0xfe
 528 727 535 827 475 827 c 0
 428 827 420 730 417 727 c 1
 355 727 l 1
EndSplineSet
Refer: 90 79 S 1 0 0 1 0 0 3
AlternateSubs2: "Stilistic set 01 subtable" Otilde.vn
AlternateSubs2: "Latin alternatives subtable" Otilde.vn
Substitution2: "Latin Vietnamese substitutions subtable" Otilde.vn
EndChar

StartChar: OE
Encoding: 338 338 226
Width: 972
Flags: HW
TeX: 694 0
ItalicCorrection: 119
HStem: -22 61<284.844 452.883> 0 71<573 929> 330 62<641 958> 629 65<692 1049> 655 61<403.194 573.583>
VStem: 91 90<158.297 387.79>
DStem2: 466.499 -22 553.18 -22 0.207912 0.978148<112.367 377.886 441.234 617.987>
AnchorPoint: "above" 666 716 basechar 0
LayerCount: 2
Fore
SplineSet
91 260 m 0
 91 496 302 716 510 716 c 0xac
 563 716 606 696 656 694 c 1
 1062 694 l 1
 1049 628 l 1
 991 628 l 1
 967 629 l 1
 728 629 l 1
 692 630 l 1
 641 392 l 1
 971 392 l 1
 958 330 l 1
 628 330 l 1
 573 70 l 1
 659 70 l 1
 683 71 l 1
 876 71 l 1
 898 72 l 1
 944 72 l 1
 929 0 l 1
 528 0 l 2x74
 453 0 414 -22 352 -22 c 0
 205 -22 91 92 91 260 c 0
181 273 m 0
 181 137 256 39 370 39 c 0
 424 39 444 53 461 67 c 1
 481 92 495 112 519 225 c 2
 572 474 l 2
 586 540 588 563 588 585 c 0
 588 654 539 655 497 655 c 0xac
 341 655 181 482 181 273 c 0
EndSplineSet
EndChar

StartChar: Oslash
Encoding: 216 216 227
Width: 778
Flags: HW
TeX: 746 48
ItalicCorrection: 75
HStem: -22 61<307.858 490.914> 655 61<432.298 616.244>
VStem: 119 85<149.235 388.044> 719 85<302.683 542.976>
DStem2: 124 -33 174 -65 0.620094 0.784528<5.89981 112.106 191.47 822.549 899.119 1009.52>
LayerCount: 2
Fore
SplineSet
119 260 m 0
 119 494 327 716 540 716 c 0
 613 716 653 692 684 675 c 1
 750 759 l 1
 751 759 l 1
 799 727 l 1
 729 637 l 1
 746 619 804 554 804 430 c 0
 804 192 593 -22 383 -22 c 0
 326 -22 276 -5 240 19 c 1
 239 19 l 1
 174 -65 l 1
 124 -33 l 1
 194 56 l 1
 151 101 119 169 119 260 c 0
204 257 m 0
 204 173 236 129 243 117 c 1
 639 618 l 1
 639 619 l 1
 607 642 572 655 527 655 c 0
 354 655 204 460 204 257 c 0
284 75 m 1
 308 60 338 39 396 39 c 0
 573 39 719 234 719 434 c 0
 719 519 687 564 680 576 c 1
 284 75 l 1
EndSplineSet
EndChar

StartChar: Ugrave
Encoding: 217 217 228
Width: 687
Flags: HW
TeX: 850 0
ItalicCorrection: 80
HStem: -22 56<279.073 436.812> 674 20<236.73 330 656.777 739>
VStem: 137 89<90.6493 302.995>
DStem2: 88.4554 -22 178.17 -22 0.207912 0.978148<220.056 732.069> 509.421 -22 587.059 -22 0.207912 0.978148<164.609 731.869>
AnchorPoint: "below" 346 0 basechar 0
AnchorPoint: "above" 523 852 basechar 0
LayerCount: 2
Fore
SplineSet
382 850 m 1
 493 850 l 1
 630 760 l 1
 555 760 l 2
 540 760 538 761 382 850 c 1
EndSplineSet
Refer: 96 85 S 1 0 0 1 0 0 3
AlternateSubs2: "Stilistic set 01 subtable" Ugrave.vn
AlternateSubs2: "Latin alternatives subtable" Ugrave.vn
Substitution2: "Latin Vietnamese substitutions subtable" Ugrave.vn
EndChar

StartChar: Uacute
Encoding: 218 218 229
Width: 687
Flags: HW
TeX: 850 0
ItalicCorrection: 80
HStem: -22 56<279.073 436.812> 674 20<236.73 330 656.777 739> 850 0
VStem: 137 89<90.6493 302.995>
DStem2: 88.4554 -22 178.17 -22 0.207912 0.978148<220.056 732.069> 509.421 -22 587.059 -22 0.207912 0.978148<164.609 731.869>
AnchorPoint: "below" 346 0 basechar 0
AnchorPoint: "above" 523 852 basechar 0
LayerCount: 2
Fore
SplineSet
420 760 m 1
 596 850 590 850 609 850 c 2
 707 850 l 1
 532 771 l 1
 507 761 l 1
 492 760 l 1
 420 760 l 1
EndSplineSet
Refer: 96 85 S 1 0 0 1 -0 -0 3
AlternateSubs2: "Stilistic set 01 subtable" Uacute.vn
AlternateSubs2: "Latin alternatives subtable" Uacute.vn
Substitution2: "Latin Vietnamese substitutions subtable" Uacute.vn
EndChar

StartChar: Ucircumflex
Encoding: 219 219 230
Width: 687
Flags: HW
TeX: 888 0
ItalicCorrection: 80
HStem: -22 56<279.073 436.812> 674 20<236.73 330 656.777 739> 727 21G<344 425.672 582.852 656>
VStem: 137 89<90.6493 302.995>
DStem2: 88.4554 -22 178.17 -22 0.207912 0.978148<220.056 732.069> 344 727 406 727 0.68352 0.729932<42.3782 213.452> 509.421 -22 587.059 -22 0.207912 0.978148<164.609 731.869> 562 900 526 849 0.477428 -0.878671<27.6248 167.288>
AnchorPoint: "below" 346 0 basechar 0
AnchorPoint: "above" 534 902 basechar 0
LayerCount: 2
Fore
SplineSet
344 727 m 1
 506 900 l 1
 562 900 l 1
 656 727 l 1
 594 727 l 1
 526 849 l 1
 406 727 l 1
 344 727 l 1
EndSplineSet
Refer: 96 85 S 1 0 0 1 -0 0 3
EndChar

StartChar: Yacute
Encoding: 221 221 232
Width: 667
Flags: HW
TeX: 850 0
ItalicCorrection: 172
HStem: -0 21<289 380.259> 674 20<150 264.474 704.113 810> 850 0
DStem2: 255 694 150 694 0.429057 -0.903278<0 379.965> 289 -0 376 -0 0.207912 0.978148<18.0883 280.912> 415 348 451 295 0.668862 0.743387<0 462.552>
AnchorPoint: "below" 332 0 basechar 0
AnchorPoint: "above" 513 852 basechar 0
LayerCount: 2
Fore
SplineSet
410 760 m 1
 586 850 579 850 598 850 c 2
 697 850 l 1
 522 771 l 1
 497 761 l 1
 482 760 l 1
 410 760 l 1
EndSplineSet
Refer: 100 89 S 1 0 0 1 0 -0 3
AlternateSubs2: "Stilistic set 01 subtable" Yacute.vn
AlternateSubs2: "Latin alternatives subtable" Yacute.vn
Substitution2: "Latin Vietnamese substitutions subtable" Yacute.vn
EndChar

StartChar: Thorn
Encoding: 222 222 233
Width: 583
Flags: HW
TeX: 694 0
ItalicCorrection: 82
HStem: -0 21G<96 184.222> 180 56<231 426.057> 511 56<301 470.031> 674 20G<238.764 327>
VStem: 527 83<329.359 460.596>
DStem2: 96 -0 180 -0 0.207912 0.978148<17.4646 201.432 258.911 539.96 597.232 709.397>
LayerCount: 2
Fore
SplineSet
96 -0 m 1
 243 694 l 1
 327 694 l 1
 301 567 l 1
 425 567 l 2
 580 567 610 465 610 410 c 0
 610 295 500 201 397 184 c 0
 378 181 360 180 341 180 c 2
 218 180 l 1
 180 -0 l 1
 96 -0 l 1
231 236 m 1
 330 236 l 2
 466 236 527 338 527 397 c 0
 527 443 498 511 371 511 c 2
 289 511 l 1
 231 236 l 1
EndSplineSet
EndChar

StartChar: Germandbls
Encoding: 61699 61699 234
Width: 1111
Flags: HW
TeX: 694 0
ItalicCorrection: 92
HStem: -22 69<176.166 367.595 731.417 923.033> 650 66<329.967 518.163 885.575 1073.16>
VStem: 161 84<452.385 567.052> 460 84<139.492 265.901> 717 84<452.385 567.263> 1015 84<139.281 266.647>
LayerCount: 2
Fore
SplineSet
54 47 m 1
 87 130 l 1
 141 73 212 47 284 47 c 0
 387 47 460 131 460 204 c 0
 460 260 418 289 399 298 c 0
 380 307 289 327 263 338 c 0
 225 353 161 397 161 484 c 0
 161 593 276 716 433 716 c 0
 503 716 548 704 607 668 c 1
 575 585 l 1
 549 609 512 650 418 650 c 0
 317 650 245 574 245 510 c 0
 245 408 375 413 443 384 c 0
 480 368 544 322 544 230 c 0
 544 111 425 -22 268 -22 c 0
 196 -22 123 -3 54 47 c 1
609 47 m 1
 642 130 l 1
 696 73 767 47 839 47 c 0
 942 47 1015 131 1015 204 c 0
 1015 260 974 289 955 298 c 0
 936 307 845 327 819 338 c 0
 781 353 717 397 717 484 c 0
 717 594 833 716 988 716 c 0
 1058 716 1103 705 1162 668 c 1
 1130 585 l 1
 1104 609 1067 650 973 650 c 0
 872 650 801 574 801 510 c 0
 801 408 930 413 998 384 c 0
 1035 368 1099 322 1099 230 c 0
 1099 110 981 -22 824 -22 c 0
 751 -22 679 -4 609 47 c 1
EndSplineSet
EndChar

StartChar: acircumflex
Encoding: 226 226 237
Width: 480
Flags: HW
TeX: 638 0
ItalicCorrection: 9
HStem: -11 62<118.411 278.846> 0 21<324 404.218> 193 52<213.163 362> 401 60<213.826 368.577>
VStem: 65 75<67.4996 145.361> 387 79<248.358 382.186>
DStem2: 321.662 -11 397.662 -11 0.207912 0.978148<27.047 46.9363 88.8778 207.929 256.854 339.557>
AnchorPoint: "below" 233 0 basechar 0
AnchorPoint: "above" 367 630 basechar 0
LayerCount: 2
Fore
SplineSet
191 510 m 1
 345 650 339 650 359 650 c 2x3c
 430 650 l 1
 502 509 l 1
 441 509 l 1
 367 608 l 1
 252 509 258 509 239 509 c 2
 230 509 l 1
 191 510 l 1
EndSplineSet
Refer: 108 97 S 1 0 0 1 0 0 3
AlternateSubs2: "Stilistic set 01 subtable" acircumflex.vn
AlternateSubs2: "Latin alternatives subtable" acircumflex.vn
Substitution2: "Latin Vietnamese substitutions subtable" acircumflex.vn
EndChar

StartChar: aring
Encoding: 229 229 240
Width: 480
Flags: HW
TeX: 638 0
ItalicCorrection: 9
HStem: -11 62<118.411 278.846> 0 21<324 404.218> 193 52<213.163 362> 401 60<213.826 368.577> 477 32<307.19 392.077> 606 32<322.622 406.195>
VStem: 65 75<67.4996 145.361> 244 56<513.336 590.33> 387 79<248.358 382.186> 413 56<523.428 601.129>
DStem2: 321.662 -11 397.662 -11 0.207912 0.978148<27.047 46.9363 88.8778 207.929 256.854 339.557>
LayerCount: 2
Fore
SplineSet
244 546 m 0
 244 594 303 635 365 638 c 1
 381 638 l 1
 418 636 469 618 469 570 c 0
 469 529 421 481 348 477 c 1
 332 477 l 1
 297 478 244 498 244 546 c 0
300 547 m 0
 300 522 318 509 346 509 c 0
 395 509 413 544 413 568 c 0
 413 594 394 606 368 606 c 0x3f40
 319 606 300 571 300 547 c 0
EndSplineSet
Refer: 108 97 S 1 0 0 1 0 0 3
EndChar

StartChar: ae
Encoding: 230 230 241
Width: 722
Flags: HW
TeX: 441 0
ItalicCorrection: 67
HStem: -11 61<120.5 304.599 492.332 642.556> 191 56<216.442 363> 220 55<464 693> 399 62<215.191 370.585 547.752 667.107>
VStem: 68 75<65.3087 143.784> 363 80<102.576 190.534> 694 58<275.219 368.107>
AnchorPoint: "below" 371 0 basechar 0
AnchorPoint: "above" 463 461 basechar 0
LayerCount: 2
Fore
SplineSet
68 85 m 0
 68 215 250 245 374 247 c 1xde
 385 299 387 307 387 322 c 0
 387 364 366 401 319 401 c 0
 246 401 197 374 158 350 c 1
 166 417 l 1
 218 444 266 461 333 461 c 0
 407 461 441 419 456 383 c 1
 532 456 601 461 626 461 c 0
 677 461 752 436 752 313 c 0
 752 282 747 251 741 220 c 1
 447 220 l 1xbe
 445 207 443 193 443 180 c 0
 443 114 482 51 556 51 c 0
 624 51 675 85 705 106 c 1
 697 40 l 1
 651 10 599 -11 541 -11 c 0
 452 -11 410 41 394 65 c 1
 385 56 329 -11 156 -11 c 0
 85 -11 68 45 68 85 c 0
143 105 m 0
 143 83 161 50 221 50 c 0
 272 50 332 66 349 111 c 0
 355 126 357 151 363 191 c 1xde
 278 190 143 171 143 105 c 0
464 275 m 1
 693 275 l 1
 693 281 694 287 694 293 c 0xbe
 694 382 645 399 613 399 c 0
 553 399 492 342 464 275 c 1
EndSplineSet
EndChar

StartChar: ccedilla
Encoding: 231 231 242
Width: 444
Flags: HW
TeX: 441 170
ItalicCorrection: 83
HStem: -192 169 -11 64<198.318 364.357> 397 64<264.7 438.077>
VStem: 77 79<96.2285 269.643> 104 171
DStem2: 104 -192 174 -192 0.545511 0.838104<38.1858 201.646>
AnchorPoint: "above" 351 461 basechar 0
LayerCount: 2
Fore
SplineSet
77 170 m 0
 77 311 203 461 351 461 c 0
 424 461 449 450 499 417 c 1
 474 351 l 1
 434 379 414 397 341 397 c 0
 219 397 156 265 156 174 c 0
 156 107 192 53 264 53 c 0
 342 53 391 83 433 107 c 1
 425 40 l 1
 379 14 325 -11 251 -11 c 0xf0
 141 -11 77 70 77 170 c 0
EndSplineSet
Refer: 23 184 S 1 0 0 1 28 0 2
EndChar

StartChar: ecircumflex
Encoding: 234 234 245
Width: 444
Flags: HW
TeX: 638 0
ItalicCorrection: 67
HStem: -11 61<197.066 358.603> 220 55<168 416> 399 62<254.346 381.711>
VStem: 76 71<102.878 218.633> 416 56<275.136 362.578>
DStem2: 391 650 351 608 0.558766 -0.829326<12.4811 135.374>
AnchorPoint: "below" 252 0 basechar 0
AnchorPoint: "above" 370 630 basechar 0
LayerCount: 2
Fore
SplineSet
174 510 m 1
 329 650 322 650 342 650 c 2
 391 650 l 1
 486 509 l 1
 424 509 l 1
 351 608 l 1
 236 509 241 509 222 509 c 2
 213 509 l 1
 174 510 l 1
EndSplineSet
Refer: 112 101 S 1 0 0 1 0 0 3
AlternateSubs2: "Stilistic set 01 subtable" ecircumflex.vn
AlternateSubs2: "Latin alternatives subtable" ecircumflex.vn
Substitution2: "Latin Vietnamese substitutions subtable" ecircumflex.vn
EndChar

StartChar: icircumflex
Encoding: 238 238 249
Width: 239
Flags: HW
TeX: 638 0
ItalicCorrection: 83
HStem: 0 21<81 160.27> 425 20<171.73 251>
VStem: 72 311 81 170
DStem2: 81 0 156 0 0.207912 0.978148<15.5934 455.027> 288 650 248 608 0.558766 -0.829326<12.4811 135.933>
AnchorPoint: "below" 118 0 basechar 0
AnchorPoint: "above" 255 646 basechar 0
LayerCount: 2
Fore
SplineSet
72 509 m 1
 226 650 220 650 239 650 c 2xe0
 288 650 l 1
 383 509 l 1
 322 509 l 1
 248 608 l 1
 133 509 l 1
 72 509 l 1
EndSplineSet
Refer: 36 305 S 1 0 0 1 0 -0 3
Ligature2: "Latin ligatures excepting Turkic subtable" i uni0302
EndChar

StartChar: eth
Encoding: 240 240 251
Width: 500
Flags: HW
TeX: 722 0
ItalicCorrection: 94
HStem: -11 64<194.498 334.211> 399 62<256.412 400.071> 702 20G<246.364 294 451.714 498.333>
VStem: 71 80<97.1218 272.044> 443 90<205.614 354.362>
DStem2: 232 589 254 529 0.889567 0.456805<0 89.0048 191.185 283.315>
LayerCount: 2
Fore
SplineSet
71 169 m 0
 71 317 207 461 347 461 c 0
 385 461 413 451 442 434 c 1
 423 507 390 549 362 584 c 1
 254 529 l 1
 232 589 l 1
 311 630 l 1
 265 659 253 663 212 678 c 1
 275 722 l 1
 313 710 350 691 381 666 c 1
 491 722 l 1
 513 662 l 1
 431 620 l 1
 503 540 533 441 533 350 c 0
 533 290 516 221 510 200 c 0
 470 65 345 -11 247 -11 c 0
 141 -11 71 67 71 169 c 0
151 176 m 0
 151 78 216 53 261 53 c 0
 359 53 443 160 443 275 c 0
 443 372 380 399 333 399 c 0
 227 399 151 290 151 176 c 0
EndSplineSet
EndChar

StartChar: oe
Encoding: 339 339 258
Width: 778
Flags: HW
TeX: 441 0
ItalicCorrection: 67
HStem: -11 62<188.791 326.133 546.236 697.237> 220 55<519 749> 399 62<251.493 391.891 602.703 722.135>
VStem: 72 74<94.8541 273.577> 432 66<177.94 220> 749 58<275.219 371.327>
AnchorPoint: "below" 390 0 basechar 0
AnchorPoint: "above" 505 461 basechar 0
LayerCount: 2
Fore
SplineSet
72 171 m 0
 72 320 204 461 340 461 c 0
 415 461 468 418 492 362 c 1
 493 362 l 1
 535 413 606 461 681 461 c 0
 731 461 807 436 807 313 c 0
 807 282 802 251 796 220 c 1
 502 220 l 1
 500 207 498 193 498 180 c 0
 498 114 537 51 611 51 c 0
 679 51 730 85 760 106 c 1
 752 40 l 1
 712 14 659 -11 597 -11 c 0
 516 -11 460 34 436 90 c 1
 354 -2 272 -11 239 -11 c 0
 139 -11 72 67 72 171 c 0
146 175 m 0
 146 77 209 51 253 51 c 0
 361 51 432 179 432 282 c 0
 432 355 390 399 326 399 c 0
 232 399 146 304 146 175 c 0
519 275 m 1
 749 275 l 1
 749 293 l 2
 749 382 701 399 669 399 c 0
 609 399 547 342 519 275 c 1
EndSplineSet
EndChar

StartChar: oslash
Encoding: 248 248 259
Width: 500
Flags: HW
TeX: 544 97
ItalicCorrection: 48
HStem: -11 61<208.865 339.375> 399 62<258.329 389.565>
VStem: 73 75<99.3902 269.468> 446 74<170.958 345.694>
DStem2: 25 -83 72 -112 0.61317 0.789951<5.91041 161.428 230.228 586.61 662.213 808.911>
LayerCount: 2
Fore
SplineSet
25 -83 m 1
 121 41 l 1
 87 78 73 123 73 168 c 0
 73 316 209 461 347 461 c 0
 385 461 409 450 432 440 c 1
 521 556 l 1
 522 556 l 1
 569 526 l 1
 475 406 l 1
 475 405 l 1
 502 374 520 332 520 275 c 0
 520 117 379 -11 247 -11 c 0
 214 -11 189 -3 165 8 c 1
 72 -112 l 1
 25 -83 l 1
148 170 m 0
 148 127 162 105 166 99 c 1
 390 386 l 1
 373 394 358 399 335 399 c 0
 223 399 148 274 148 170 c 0
208 62 m 1
 224 55 240 50 261 50 c 0
 359 50 446 149 446 275 c 0
 446 318 432 340 429 346 c 1
 208 62 l 1
EndSplineSet
EndChar

StartChar: ucircumflex
Encoding: 251 251 262
Width: 517
Flags: HW
TeX: 638 0
ItalicCorrection: 41
HStem: -11 56<150 299.975> 0 21<360 440.225> 425 20<169.786 252 447.714 530>
VStem: 97 81<52.1559 182.102>
DStem2: 77.6286 -11 155.88 -11 0.207912 0.978148<115.133 466.072> 357.662 -11 433.662 -11 0.207912 0.978148<27.047 60.2759 98.4214 465.649> 427 650 387 608 0.558766 -0.829326<12.4811 135.374>
AnchorPoint: "below" 257 0 basechar 0
AnchorPoint: "above" 394 646 basechar 0
LayerCount: 2
Fore
SplineSet
210 510 m 1
 365 650 358 650 378 650 c 2x30
 427 650 l 1
 522 509 l 1
 460 509 l 1
 387 608 l 1
 272 509 l 1
 237 509 l 1
 210 510 l 1
EndSplineSet
Refer: 128 117 S 1 0 0 1 0 0 3
EndChar

StartChar: thorn
Encoding: 254 254 265
Width: 517
Flags: HW
TeX: 722 194
ItalicCorrection: 38
HStem: -195 21G<40 122.315> -11 62<210.636 340.335> 391 64<311.228 462> 702 20G<230.747 310>
VStem: 454 81<179.202 344.736>
DStem2: 40 -195 118 -195 0.207912 0.978148<16.2171 262.762 335.614 586.956 619.875 937.504>
LayerCount: 2
Fore
SplineSet
40 -195 m 1
 235 722 l 1
 310 722 l 1
 241 396 l 1
 300 437 365 455 418 455 c 0
 506 455 535 364 535 294 c 0
 535 138 420 -11 292 -11 c 0
 240 -11 202 9 170 46 c 1
 118 -195 l 1
 40 -195 l 1
185 117 m 0
 185 102 205 51 266 51 c 0
 356 51 454 149 454 265 c 0
 454 338 411 391 348 391 c 0
 288 391 240 347 232 333 c 0
 226 322 185 120 185 117 c 0
EndSplineSet
EndChar

StartChar: germandbls
Encoding: 223 223 266
Width: 480
Flags: HW
TeX: 722 0
ItalicCorrection: 97
HStem: -11 63<268.003 378.107> 0 21G<81 160.27> 672 61<324.676 455.852>
VStem: 278 71<273.279 381.454> 403 74<78.2729 183.776> 472 79<516.093 655.531>
DStem2: 78.6619 -11 153.662 -11 0.207912 0.978148<26.8391 686.329>
LayerCount: 2
Fore
SplineSet
81 0 m 1
 196 541 l 2
 202 571 220 733 408 733 c 0
 489 733 551 700 551 616 c 0x74
 551 565 520 427 417 404 c 1
 383 399 369 405 353 331 c 0
 350 318 349 308 349 300 c 0
 349 259 385 283 430 255 c 0
 460 236 477 201 477 162 c 0
 477 96 432 -11 316 -11 c 0
 258 -11 232 20 219 34 c 1
 246 102 l 1
 252 91 273 52 328 52 c 0
 388 52 403 116 403 139 c 0xb8
 403 192 359 191 341 196 c 0
 295 208 278 249 278 291 c 0
 278 338 304 447 401 460 c 0
 426 463 443 456 466 567 c 0
 469 580 472 594 472 607 c 0xb4
 472 633 461 672 394 672 c 0
 300 672 283 596 276 562 c 2
 156 0 l 1
 81 0 l 1
EndSplineSet
EndChar

StartChar: grave.uc
Encoding: 65542 -1 267
Width: 500
Flags: HW
TeX: 601 0
HStem: 510 91
VStem: 193 249
LayerCount: 2
Fore
SplineSet
193 601 m 1
 293 601 l 2
 307 601 309 599 442 510 c 1
 367 510 l 2
 351 510 350 512 193 601 c 1
EndSplineSet
EndChar

StartChar: acute.uc
Encoding: 65543 -1 268
Width: 500
Flags: HW
TeX: 601 0
ItalicCorrection: 72
HStem: 510 0
VStem: 274 287
LayerCount: 2
Fore
SplineSet
274 510 m 1
 428 589 l 1
 450 600 l 1
 467 601 l 1
 531 601 l 1
 561 600 l 1
 387 521 l 1
 362 511 l 1
 347 510 l 1
 274 510 l 1
EndSplineSet
EndChar

StartChar: tilde.uc
Encoding: 65544 -1 269
Width: 500
Flags: HW
TeX: 631 0
ItalicCorrection: 80
HStem: 477 62<392.367 464.527> 577 61<271.375 342.986>
VStem: 184 61<477 542.187> 490 62<574.22 639>
LayerCount: 2
Fore
SplineSet
184 477 m 1
 208 583 263 638 315 638 c 0
 380 638 371 539 432 539 c 0
 479 539 487 636 490 639 c 1
 552 639 l 1
 543 607 527 537 474 497 c 0
 458 485 438 477 420 477 c 0
 355 477 364 577 305 577 c 0
 263 577 252 507 245 477 c 1
 184 477 l 1
EndSplineSet
EndChar

StartChar: ring.uc
Encoding: 65546 -1 272
Width: 687
Flags: HW
TeX: 631 0
HStem: 416 61<401.087 495.087> 578 61<413.736 507.325>
VStem: 341 57<481.236 562.866> 511 57<492.137 573.475>
LayerCount: 2
Fore
SplineSet
341 505 m 0
 341 572 405 639 478 639 c 0
 532 639 568 600 568 550 c 0
 568 483 503 416 431 416 c 0
 379 416 341 452 341 505 c 0
398 515 m 0
 398 486 420 477 442 477 c 0
 498 477 511 518 511 540 c 0
 511 562 499 578 466 578 c 0
 409 578 398 533 398 515 c 0
EndSplineSet
EndChar

StartChar: twelveudash
Encoding: 61700 61700 273
Width: 667
Flags: HW
TeX: 444 0
ItalicCorrection: 86
HStem: 244 61<64 717>
LayerCount: 2
Fore
SplineSet
51 244 m 1
 64 305 l 1
 730 305 l 1
 717 244 l 1
 51 244 l 1
EndSplineSet
EndChar

StartChar: threequartersemdash
Encoding: 63198 63198 274
Width: 750
Flags: HW
TeX: 444 0
ItalicCorrection: 86
HStem: 244 61<64 801>
LayerCount: 2
Fore
SplineSet
51 244 m 1
 64 305 l 1
 814 305 l 1
 801 244 l 1
 51 244 l 1
EndSplineSet
EndChar

StartChar: arrowleft
Encoding: 8592 8592 275
Width: 1000
Flags: HW
TeX: 369 -129
HStem: -10 21G<255 295> 230 40<216 995.489>
VStem: 255 40<-10 109.461>
LayerCount: 2
Fore
SplineSet
108 250 m 1
 212 292 302 377 350 475 c 1
 365 510 l 1
 405 510 l 1
 363 401 294 329 216 270 c 1
 962 270 l 2
 991 270 994 267 996 254 c 1
 996 246 990 236 982 233 c 0
 974 229 964 230 955 230 c 2
 208 230 l 1
 290 141 295 54 295 9 c 2
 295 -10 l 1
 255 -10 l 1
 255 -1 l 2
 255 128 193 203 108 250 c 1
EndSplineSet
EndChar

StartChar: arrowright
Encoding: 8594 8594 276
Width: 1000
Flags: HW
TeX: 369 -129
HStem: -10 21G<699 776.5> 230 40<109.492 888>
VStem: 810 40<390.887 510>
LayerCount: 2
Fore
SplineSet
109 244 m 1
 109 249 l 1
 114 269 127 270 143 270 c 2
 897 270 l 1
 878 290 810 361 810 496 c 2
 810 510 l 1
 850 510 l 1
 850 499 l 2
 850 399 892 317 968 267 c 1
 996 250 l 1
 973 241 814 177 739 -10 c 1
 699 -10 l 1
 740 99 813 174 888 230 c 1
 138 230 l 2
 121 230 114 231 109 244 c 1
EndSplineSet
EndChar

StartChar: uni0361.alt
Encoding: 61701 61701 277
Width: 239
Flags: HW
TeX: 722 0
ItalicCorrection: 409
HStem: 627 64<317.634 535.287>
VStem: 200 78<568 593.096> 560 80<568 603.511>
LayerCount: 2
Fore
SplineSet
200 568 m 1
 216 637 322 691 445 691 c 0
 553 691 640 648 640 583 c 0
 640 578 640 573 639 568 c 1
 560 568 l 1
 560 580 560 590 540 603 c 0
 505 626 453 627 431 627 c 0
 371 627 294 611 278 568 c 1
 200 568 l 1
EndSplineSet
EndChar

StartChar: uni0361
Encoding: 865 865 278
Width: 0
Flags: HW
TeX: 971 0
ItalicCorrection: 460
HStem: 575 64<44.2548 252.87>
VStem: -114 78<477 514.188> 303 80<477 533.815>
AnchorPoint: "affricate-above" 130 461 mark 0
LayerCount: 2
Fore
SplineSet
-114 477 m 1
 -88 584 53 639 168 639 c 0
 298 639 383 574 383 500 c 0
 383 492 382 485 381 477 c 1
 302 477 l 1
 302 481 303 485 303 489 c 0
 303 531 251 575 155 575 c 0
 82 575 -15 546 -36 477 c 1
 -114 477 l 1
EndSplineSet
EndChar

StartChar: uni2040.alt
Encoding: 61702 61702 279
Width: 461
Flags: HW
TeX: 722 0
ItalicCorrection: 409
HStem: 627 64<288.308 426.901>
VStem: 181 78<568 599.096> 441 80<568 611.931>
LayerCount: 2
Fore
SplineSet
181 568 m 1
 197 637 281 691 376 691 c 0
 456 691 521 650 521 587 c 0
 521 581 521 575 520 568 c 1
 441 568 l 1
 443 616 395 627 362 627 c 0
 320 627 270 607 259 568 c 1
 181 568 l 1
EndSplineSet
EndChar

StartChar: uni2040
Encoding: 8256 8256 280
Width: 461
Flags: HW
TeX: 722 0
ItalicCorrection: 460
HStem: 575 64<256.937 438.598>
VStem: 106 78<477 513.82> 478 80<477 539.875>
LayerCount: 2
Fore
SplineSet
106 477 m 1
 132 581 255 639 365 639 c 0
 481 639 558 577 558 502 c 0
 558 493 557 486 556 477 c 1
 477 477 l 1
 478 481 478 485 478 489 c 0
 478 552 406 575 352 575 c 0
 288 575 204 545 184 477 c 1
 106 477 l 1
EndSplineSet
EndChar

StartChar: uni2422
Encoding: 9250 9250 281
Width: 517
Flags: HW
TeX: 722 0
ItalicCorrection: 30
HStem: -11 62<209.546 344.732> 0 21G<81 163.348> 394 61<306.693 454.133> 687 20G<407.037 447.766> 702 20G<229.851 310>
VStem: 455 80<178.431 352.542>
DStem2: 75 449 105 401 0.811748 0.584008<0 85.7183 257.257 439.807> 78.6619 -11 156.662 -11 0.207912 0.978148<27.4629 74.5368 146.715 400.884 432.836 475.284 639.362 749.279>
LayerCount: 2
Fore
SplineSet
75 449 m 1
 195 534 l 1
 234 722 l 1
 310 722 l 1x6c
 284 599 l 1
 435 707 l 1x34
 465 660 l 1
 266 518 l 1
 241 397 l 1
 298 438 362 455 414 455 c 0
 492 455 535 382 535 292 c 0
 535 135 416 -11 291 -11 c 0xb4
 242 -11 203 7 169 46 c 1
 159 0 l 1
 81 0 l 1
 177 454 l 1
 105 401 l 1
 75 449 l 1
185 116 m 0
 185 106 202 51 267 51 c 0xa4
 366 51 455 150 455 278 c 0
 455 371 392 394 350 394 c 0
 298 394 264 367 241 347 c 1
 229 335 229 328 226 316 c 0
 191 151 185 124 185 116 c 0
EndSplineSet
EndChar

StartChar: quotesingle
Encoding: 39 39 282
Width: 278
Flags: HW
TeX: 722 0
ItalicCorrection: 81
HStem: 702 20G<249.222 331>
VStem: 185 146
DStem2: 185 362 246 362 0.207912 0.978148<12.6826 366.271>
LayerCount: 2
Fore
SplineSet
185 362 m 1
 253 722 l 1
 331 722 l 1
 246 362 l 1
 185 362 l 1
EndSplineSet
EndChar

StartChar: asteriskmath
Encoding: 8727 8727 283
Width: 500
Flags: HW
TeX: 472 -27
VStem: 286 91<358.012 434.08>
LayerCount: 2
Fore
SplineSet
96 150 m 1
 97 181 111 182 251 250 c 1
 139 318 135 318 135 335 c 0
 135 352 155 378 178 378 c 0
 193 378 199 370 286 298 c 1
 305 422 301 472 349 472 c 0
 365 472 377 459 377 445 c 0
 377 431 370 416 339 298 c 1
 464 374 465 378 481 378 c 0
 487 378 508 372 508 350 c 0
 508 319 491 316 353 250 c 1
 468 181 469 183 469 164 c 0
 469 144 447 122 426 122 c 0
 411 122 407 128 318 202 c 1
 295 55 297 61 294 55 c 0
 288 40 271 28 255 28 c 0
 240 28 227 38 227 52 c 0
 227 66 237 96 265 202 c 1
 134 122 138 122 123 122 c 1
 107 124 97 133 96 150 c 1
EndSplineSet
EndChar

StartChar: fraction
Encoding: 8260 8260 285
Width: 500
Flags: HW
TeX: 749 249
ItalicCorrection: 131
DStem2: 558 734 46 -236 0.499194 0.86649<-1110.07 16.0905>
LayerCount: 2
Fore
SplineSet
7 -230 m 0
 7 -223 10 -218 13 -212 c 2
 558 734 l 2
 562 740 568 749 579 749 c 0
 589 749 598 740 598 730 c 0
 598 720 589 707 588 705 c 2
 46 -236 l 2
 41 -243 35 -249 26 -249 c 0
 16 -249 7 -240 7 -230 c 0
EndSplineSet
EndChar

StartChar: zerooldstyle
Encoding: 63280 63280 286
Width: 500
Flags: HW
TeX: 444 0
ItalicCorrection: 52
HStem: -22 61<187.429 338.291> 405 62<256.024 409.354>
VStem: 77 79<71.4892 262.547> 439 76<186.203 375.151>
LayerCount: 2
Fore
SplineSet
77 134 m 0
 77 201 109 467 348 467 c 0
 430 467 515 436 515 309 c 0
 515 240 489 79 380 13 c 0
 334 -15 284 -22 244 -22 c 0
 162 -22 77 9 77 134 c 0
156 143 m 0
 156 60 207 39 258 39 c 0
 398 39 419 187 432 249 c 0
 435 268 439 287 439 308 c 0
 439 358 418 405 335 405 c 0
 191 405 174 264 160 189 c 0
 158 174 156 159 156 143 c 0
EndSplineSet
EndChar

StartChar: oneoldstyle
Encoding: 63281 63281 287
Width: 500
Flags: HW
TeX: 444 0
HStem: 0 59<108 233 313 425> 341 59<175 293.812> 425 20G<370 395>
DStem2: 220.459 0 300.459 0 0.207912 0.978148<76.951 364.905>
LayerCount: 2
Fore
SplineSet
95 0 m 1
 108 59 l 1
 233 59 l 1
 296 357 l 1
 257 347 222 341 162 341 c 1
 175 400 l 1
 339 400 352 445 388 445 c 2
 395 445 l 1
 313 59 l 1
 437 59 l 1
 425 0 l 1
 95 0 l 1
EndSplineSet
EndChar

StartChar: twooldstyle
Encoding: 63282 63282 288
Width: 500
Flags: HW
TeX: 444 0
ItalicCorrection: 53
HStem: 0 70<134 449> 402 65<226.691 397.167>
VStem: 432 85<261.15 369.818>
DStem2: 58 65 134 70 0.910655 0.413168<74.5352 200.896 244.654 353.283>
LayerCount: 2
Fore
SplineSet
44 0 m 1
 58 65 l 1
 188 134 203 142 220 150 c 0
 298 187 432 221 432 321 c 0
 432 385 358 402 309 402 c 0
 268 402 205 391 160 311 c 1
 117 358 l 1
 144 387 204 467 334 467 c 0
 445 467 517 415 517 334 c 0
 517 215 397 197 289 148 c 0
 273 141 257 133 134 70 c 1
 464 70 l 1
 449 0 l 1
 44 0 l 1
EndSplineSet
EndChar

StartChar: threeoldstyle
Encoding: 63283 63283 289
Width: 500
Flags: HW
TeX: 444 194
ItalicCorrection: 53
HStem: -217 62<118.727 284.275> 120 61<204 322.244> 408 59<247.04 396.57>
VStem: 368 88<-64.0046 87.4057> 416 83<270.056 387.754>
LayerCount: 2
Fore
SplineSet
16 -117 m 1
 40 -57 l 1
 57 -86 69 -99 89 -115 c 0
 128 -145 175 -155 212 -155 c 0
 306 -155 368 -63 368 19 c 0xf0
 368 112 292 120 264 120 c 2
 191 120 l 1
 204 181 l 1
 285 187 292 188 318 200 c 0
 374 226 416 287 416 338 c 0
 416 380 385 408 333 408 c 0
 269 408 210 372 173 328 c 1
 157 307 l 1
 131 361 l 1
 219 461 318 467 347 467 c 0
 433 467 499 416 499 344 c 0xe8
 499 276 445 194 351 150 c 1
 428 121 456 68 456 14 c 0
 456 -95 340 -217 201 -217 c 0
 126 -217 67 -185 31 -139 c 1
 16 -118 l 1
 16 -117 l 1
EndSplineSet
EndChar

StartChar: fouroldstyle
Encoding: 63284 63284 290
Width: 500
Flags: HW
TeX: 444 194
HStem: 0 61<120 292 385 471> 425 20G<354.67 467>
DStem2: 247 -217 326 -217 0.207912 0.978148<16.425 221.614 300.617 638.848>
LayerCount: 2
Fore
SplineSet
27 0 m 1
 40 63 37 58 54 78 c 2
 372 445 l 1
 467 445 l 1
 385 61 l 1
 484 61 l 1
 471 0 l 1
 372 0 l 1
 326 -217 l 1
 247 -217 l 1
 292 0 l 1
 27 0 l 1
120 61 m 1
 311 61 l 1
 384 407 l 1
 355 334 286 254 120 61 c 1
EndSplineSet
EndChar

StartChar: fiveoldstyle
Encoding: 63285 63285 291
Width: 500
Flags: HW
TeX: 444 194
ItalicCorrection: 38
HStem: -217 62<120.816 269.101> 161 62<223.705 342.916> 380 65<233 497>
VStem: 368 87<-40.3667 137.013>
DStem2: 33.233 -217 106.19 -217 0.207912 0.978148<320.632 367.988 423.082 625.488>
LayerCount: 2
Fore
SplineSet
24 -120 m 1
 69 -65 l 1
 69 -65 94 -155 195 -155 c 0
 308 -155 368 -36 368 65 c 0
 368 120 343 161 292 161 c 0
 264 161 210 151 164 83 c 1
 97 83 l 1
 174 445 l 1
 510 445 l 1
 497 380 l 1
 233 380 l 1
 191 182 l 1
 225 205 260 223 306 223 c 0
 395 223 455 152 455 56 c 0
 455 -102 312 -217 184 -217 c 0
 88 -217 39 -157 24 -120 c 1
EndSplineSet
EndChar

StartChar: sevenoldstyle
Encoding: 63287 63287 293
Width: 500
Flags: HW
TeX: 444 194
ItalicCorrection: 94
HStem: 374 71<136 469>
VStem: 108 84<-205 -128.262>
LayerCount: 2
Fore
SplineSet
108 -205 m 1
 161 46 317 249 469 375 c 1
 419 374 l 1
 121 374 l 1
 136 445 l 1
 552 445 l 1
 538 380 l 1
 492 336 460 305 408 240 c 0
 318 127 234 -17 192 -205 c 1
 108 -205 l 1
EndSplineSet
EndChar

StartChar: nineoldstyle
Encoding: 63289 63289 295
Width: 500
Flags: HW
TeX: 444 194
ItalicCorrection: 38
HStem: -217 62<96.8158 246.285> -8 62<193.327 296.859> 408 59<266.581 394.276>
VStem: 81 81<86.9593 273.873> 424 77<200.631 374.768>
LayerCount: 2
Fore
SplineSet
35 -171 m 1
 77 -118 l 1
 78 -118 l 1
 92 -130 115 -155 171 -155 c 0
 258 -155 345 -72 388 74 c 1
 341 32 279 -8 200 -8 c 0
 152 -8 125 13 104 55 c 0
 91 81 81 114 81 153 c 0
 81 198 94 261 116 306 c 0
 145 364 231 467 352 467 c 0
 412 467 501 434 501 270 c 0
 501 213 487 122 465 60 c 0
 423 -60 308 -217 159 -217 c 0
 104 -217 70 -202 35 -172 c 1
 35 -171 l 1
162 160 m 0
 162 122 178 54 254 54 c 0
 331 54 405 124 418 230 c 1
 420 230 l 1
 422 248 424 266 424 284 c 0
 424 391 373 408 339 408 c 0
 254 408 208 331 197 309 c 0
 177 270 162 190 162 160 c 0
EndSplineSet
EndChar

StartChar: angleleft
Encoding: 9001 9001 296
Width: 389
Flags: HW
TeX: 749 249
VStem: 163 42<186.974 277.266>
DStem2: 208 221 167 227 0.163682 -0.986513<-20.0355 451.912> 171 270 213 260 0.510411 0.859931<-7.38234 556.109>
LayerCount: 2
Fore
SplineSet
163 248 m 0
 163 257 166 262 171 270 c 2
 447 735 l 2
 451 740 457 749 467 749 c 0
 477 749 486 741 486 730 c 0
 486 724 486 723 472 699 c 2
 213 260 l 2
 207 250 205 246 205 241 c 0
 205 237 206 232 208 221 c 2
 281 -212 l 2
 282 -217 282 -221 282 -225 c 0
 282 -243 273 -249 263 -249 c 0
 244 -249 242 -227 241 -219 c 2
 167 227 l 2
 166 234 163 241 163 248 c 0
EndSplineSet
EndChar

StartChar: minus
Encoding: 8722 8722 297
Width: 778
Flags: HW
TeX: 577 83
ItalicCorrection: 25
HStem: 220 61<110.335 772.629>
LayerCount: 2
Fore
SplineSet
109 250 m 0
 109 263 115 281 149 281 c 2
 734 281 l 2
 770 281 774 259 774 250 c 0
 774 242 770 220 737 220 c 2
 146 220 l 2
 112 220 109 244 109 250 c 0
EndSplineSet
EndChar

StartChar: angleright
Encoding: 9002 9002 298
Width: 389
Flags: HW
TeX: 749 249
VStem: 7 323
DStem2: 17 -206 46 -235 0.510667 0.859778<-26.2372 534.91> 329 263 290 254 0.166826 -0.985986<-488.513 2.36765>
LayerCount: 2
Fore
SplineSet
7 -231 m 0
 7 -222 12 -214 17 -206 c 2
 290 254 l 1
 212 715 l 2
 209 733 211 735 213 739 c 1
 218 745 l 1
 223 748 225 749 230 749 c 0
 248 749 250 732 252 720 c 2
 329 263 l 2
 330 259 330 256 330 252 c 0
 330 243 325 235 321 228 c 2
 46 -235 l 2
 38 -247 34 -248 25 -249 c 1
 8 -245 7 -234 7 -231 c 0
EndSplineSet
EndChar

StartChar: uni2127
Encoding: 8487 8487 299
Width: 722
Flags: HW
TeX: 694 0
ItalicCorrection: 128
HStem: -22 61<273.309 473.532> 624 70<192 351 636 810>
VStem: 100 90<116.196 282.85> 574 62<522.815 624> 633 88<192.24 403.571>
LayerCount: 2
Fore
SplineSet
100 187 m 0
 100 334 255 460 332 589 c 1
 351 624 l 1
 241 624 l 1
 219 623 l 1
 177 623 l 1
 192 694 l 1
 436 694 l 1
 404 526 190 355 190 193 c 0
 190 101 264 39 370 39 c 0xe8
 480 39 633 115 633 297 c 0xe8
 633 411 574 515 574 629 c 0
 574 655 577 675 580 694 c 1
 825 694 l 1
 810 623 l 1
 768 623 l 1
 746 624 l 1
 636 624 l 1xf0
 642 505 721 409 721 287 c 0
 721 108 536 -22 356 -22 c 0
 212 -22 100 61 100 187 c 0
EndSplineSet
EndChar

StartChar: circle
Encoding: 9675 9675 300
Width: 1111
Flags: HW
TeX: 749 249
HStem: -272 40<379.707 634.096> 732 40<580.754 834.622>
VStem: 96 40<17.7058 279.494> 1079 40<220.828 482.875>
LayerCount: 2
Fore
SplineSet
96 141 m 0
 96 470 400 772 714 772 c 0
 957 772 1119 592 1119 359 c 0
 1119 31 815 -272 500 -272 c 0
 258 -272 96 -92 96 141 c 0
136 141 m 0
 136 -71 282 -232 500 -232 c 0
 796 -232 1079 55 1079 359 c 0
 1079 574 931 732 715 732 c 0
 420 732 136 446 136 141 c 0
EndSplineSet
EndChar

StartChar: uni301A
Encoding: 12314 12314 302
Width: 403
Flags: HW
TeX: 749 249
HStem: -250 40<114 199 239 327> 710 40<309 394 434 531>
DStem2: 65 -250 105.498 -250 0.207912 0.978148<49.3136 989.752> 190.498 -250 230.498 -250 0.207912 0.978148<49.2101 981.332>
LayerCount: 2
Fore
SplineSet
65 -250 m 1
 277 750 l 1
 540 750 l 1
 531 710 l 1
 434 710 l 1
 239 -210 l 1
 336 -210 l 1
 327 -250 l 1
 65 -250 l 1
114 -210 m 1
 199 -210 l 1
 394 710 l 1
 309 710 l 1
 114 -210 l 1
EndSplineSet
EndChar

StartChar: uni301B
Encoding: 12315 12315 303
Width: 403
Flags: HW
TeX: 749 249
HStem: -250 40<-21 75 115 200> 710 40<183 271 311 396>
DStem2: 66.4977 -250 106.498 -250 0.207912 0.978148<49.2101 981.54> 191.498 -250 232 -250 0.207912 0.978148<40.8936 981.54>
LayerCount: 2
Fore
SplineSet
-30 -250 m 1
 -21 -210 l 1
 75 -210 l 1
 271 710 l 1
 174 710 l 1
 183 750 l 1
 445 750 l 1
 232 -250 l 1
 -30 -250 l 1
115 -210 m 1
 200 -210 l 1
 396 710 l 1
 311 710 l 1
 115 -210 l 1
EndSplineSet
EndChar

StartChar: arrowup
Encoding: 8593 8593 304
Width: 500
Flags: HW
TeX: 722 222
ItalicCorrection: 61
HStem: 442 40<130 183.109 526.407 566.575> 702 20G<381.5 402>
DStem2: 181.797 -222 222.135 -222 0.207912 0.978148<17.2369 823.004>
LayerCount: 2
Fore
SplineSet
121 442 m 1
 130 482 l 1
 267 515 361 614 402 722 c 1
 402 687 402 668 412 635 c 0
 424 595 461 513 574 482 c 1
 565 442 l 1
 478 465 425 515 393 583 c 1
 230 -185 l 2
 228 -195 225 -222 203 -222 c 0
 192 -222 187 -212 187 -206 c 0
 187 -195 190 -184 192 -174 c 2
 353 583 l 1
 296 520 221 464 121 442 c 1
EndSplineSet
EndChar

StartChar: arrowdown
Encoding: 8595 8595 305
Width: 500
Flags: HW
TeX: 722 222
HStem: 18 40<37.6 79.4492 421.115 475> 702 20G<390.5 408.5>
VStem: 202 0
DStem2: 181.455 -222 221.455 -222 0.207912 0.978148<150.422 954.531>
LayerCount: 2
Fore
SplineSet
31 18 m 1
 39 58 l 1
 156 29 198 -56 211 -83 c 1
 374 684 l 2
 376 692 379 722 402 722 c 0
 415 722 418 713 418 704 c 0
 418 695 415 685 414 683 c 2
 251 -83 l 1
 310 -18 383 35 483 58 c 1
 475 18 l 1
 319 -20 244 -138 238 -152 c 0
 236 -157 234 -163 233 -169 c 1
 226 -169 l 1
 214 -194 l 1
 202 -222 l 1
 202 -195 l 1
 200 -169 l 1
 193 -169 l 1
 193 -167 195 -163 195 -155 c 0
 195 -131 166 -20 31 18 c 1
EndSplineSet
EndChar

StartChar: grave.ts1
Encoding: 61703 61703 306
Width: 500
Flags: HW
TeX: 722 0
HStem: 537 185
VStem: 236 172
LayerCount: 2
Fore
SplineSet
236 722 m 1
 314 722 l 1
 408 537 l 1
 346 537 l 1
 236 722 l 1
EndSplineSet
EndChar

StartChar: uni22C6
Encoding: 8902 8902 307
Width: 500
Flags: HW
TeX: 472 -27
LayerCount: 2
Fore
SplineSet
62 309 m 1
 275 271 l 1
 353 491 l 1
 343 321 l 1
 339 271 l 1
 537 304 l 1
 567 308 l 1
 347 210 l 1
 407 12 l 1
 286 171 l 1
 96 12 l 1
 241 210 l 1
 62 309 l 1
EndSplineSet
EndChar

StartChar: uni26AE
Encoding: 9902 9902 308
Width: 500
Flags: HW
TeX: 472 -27
HStem: 28 70<-54.7992 64.1185 487.477 606.986> 402 70<-0.419437 119.284 542.858 661.515>
VStem: -154 70<127.648 298.419> 148 76<201.975 373.002> 383 76<126.884 298.699> 691 70<202.574 372.352>
DStem2: 187 -114 265 -114 0.207912 0.978148<16.2171 744.11>
LayerCount: 2
Fore
SplineSet
-154 194 m 0
 -154 337 -36 472 80 472 c 0
 166 472 224 401 224 305 c 0
 224 161 104 28 -13 28 c 0
 -97 28 -154 98 -154 194 c 0
-84 199 m 0
 -84 118 -33 98 1 98 c 0
 99 98 148 223 148 303 c 0
 148 382 98 402 65 402 c 0
 -27 402 -84 290 -84 199 c 0
187 -114 m 1
 341 614 l 1
 420 614 l 1
 265 -114 l 1
 187 -114 l 1
383 195 m 0
 383 339 504 472 619 472 c 0
 704 472 761 402 761 306 c 0
 761 164 643 28 527 28 c 0
 441 28 383 98 383 195 c 0
459 198 m 0
 459 118 508 98 541 98 c 0
 641 98 691 223 691 301 c 0
 691 382 640 402 606 402 c 0
 516 402 459 289 459 198 c 0
EndSplineSet
EndChar

StartChar: uni271D
Encoding: 10013 10013 309
Width: 500
Flags: HW
TeX: 631 27
HStem: 366 66<147 288 380 521>
DStem2: 204 -28 282 -28 0.207912 0.978148<16.2171 402.855 486.54 667.63>
LayerCount: 2
Fore
SplineSet
132 364 m 1
 147 434 l 1
 302 432 l 1
 343 625 l 1
 421 625 l 1
 380 432 l 1
 433 432 l 1
 536 434 l 1
 521 364 l 1
 366 366 l 1
 282 -28 l 1
 204 -28 l 1
 288 366 l 1
 235 366 l 1
 132 364 l 1
EndSplineSet
EndChar

StartChar: leaf
Encoding: 61704 61704 310
Width: 1000
Flags: HW
TeX: 722 0
HStem: -47 24<92.7045 355.547> 169 24<331 767> 385 24<677 982> 745 24<799.8 1064.81>
DStem2: 20 26 29 4 0.847524 0.530757<0 305.491 352.216 714.628 760.103 1299.75> 229.049 -47 253.223 -47 0.207912 0.978148<263.678 584.648> 527.949 -47 553.098 -47 0.207912 0.978148<485.729 770.8>
LayerCount: 2
Fore
SplineSet
-10 2 m 0
 -10 25 83 434 509 659 c 0
 664 741 814 769 936 769 c 0
 1008 769 1084 757 1144 738 c 0
 1154 735 1164 732 1164 720 c 0
 1164 707 1100 392 792 157 c 0
 629 33 427 -47 221 -47 c 0
 133 -47 82 -36 8 -15 c 0
 -1 -12 -10 -9 -10 2 c 0
20 26 m 1
 279 188 l 1
 350 525 l 1
 173 381 60 186 20 26 c 1
29 4 m 1
 85 -12 145 -23 222 -23 c 0
 468 -23 676 97 767 169 c 1
 312 169 l 1
 293 167 l 1
 279 160 l 1
 29 4 l 1
307 206 m 1
 611 397 l 2
 624 405 624 407 627 419 c 0
 647 515 686 697 688 707 c 1
 687 707 l 1
 557 663 490 628 379 548 c 1
 307 206 l 1
331 193 m 1
 799 193 l 1
 895 273 952 342 982 385 c 1
 654 385 l 1
 639 384 l 1
 623 376 l 1
 331 193 l 1
653 423 m 1
 1124 719 l 1
 1062 737 998 745 933 745 c 0
 859 745 785 734 714 715 c 1
 653 423 l 1
677 409 m 1
 1000 409 l 1
 1060 496 1107 593 1134 696 c 1
 677 409 l 1
EndSplineSet
EndChar

StartChar: uni26AD
Encoding: 9901 9901 311
Width: 500
Flags: HW
TeX: 472 -27
HStem: 28 70<71.3044 226.636 325.449 477.91> 402 70<128.277 282.519 380.94 536.45>
VStem: -42 71<140.05 296.127> 210 76<180.325 298.837> 321 77<201.359 319.474> 578 71<200.823 359.75>
LayerCount: 2
Fore
SplineSet
-42 202 m 0
 -42 337 83 472 224 472 c 0
 268 472 306 460 342 430 c 1
 387 461 437 472 478 472 c 0
 581 472 649 397 649 298 c 0
 649 158 519 28 383 28 c 0
 335 28 298 43 265 70 c 1
 220 40 171 28 130 28 c 0
 27 28 -42 102 -42 202 c 0
29 210 m 0
 29 140 75 98 145 98 c 0
 185 98 205 109 228 120 c 1
 219 143 210 165 210 203 c 0
 210 271 241 330 283 379 c 1
 283 380 l 1
 277 384 253 402 209 402 c 0
 102 402 29 306 29 210 c 0
286 210 m 0
 286 200 287 190 289 180 c 1
 312 218 321 256 321 289 c 0
 321 299 320 310 319 320 c 1
 318 320 l 1
 308 301 286 263 286 210 c 0
324 120 m 1
 349 104 368 98 398 98 c 0
 506 98 578 194 578 290 c 0
 578 360 533 402 463 402 c 0
 430 402 402 392 380 380 c 1
 389 357 398 334 398 297 c 0
 398 226 366 172 324 120 c 1
EndSplineSet
EndChar

StartChar: musicalnote
Encoding: 9834 9834 312
Width: 611
Flags: HW
TeX: 722 0
HStem: -31 259<163.589 312.031> 701 20G<506 522.5>
VStem: 551 40<122.27 358.442>
DStem2: 339.45 -31 379.479 -31 0.207912 0.978148<223.893 566.617>
LayerCount: 2
Fore
SplineSet
76 88 m 0
 76 185 179 228 265 228 c 0
 337 228 370 201 386 188 c 1
 494 697 l 1
 498 709 l 1
 501 714 l 1
 506 719 l 1
 512 721 l 1
 518 721 l 1
 527 720 535 711 535 703 c 0
 535 691 527 658 527 618 c 0
 527 482 590 362 591 216 c 0
 591 130 580 111 563 111 c 0
 557 111 543 114 543 131 c 0
 543 144 551 162 551 214 c 0
 551 305 521 394 496 515 c 1
 412 122 l 2
 408 103 402 42 326 -2 c 0
 294 -21 256 -31 219 -31 c 0
 139 -31 76 17 76 88 c 0
EndSplineSet
EndChar

StartChar: tildelow
Encoding: 61705 61705 313
Width: 611
Flags: HW
TeX: 126 0
HStem: 0 62<345.364 466.775> 65 62<170.75 291.124>
VStem: 83 61<0 38.2544> 493 61<89.8065 127>
LayerCount: 2
Fore
SplineSet
83 0 m 1
 102 80 174 127 235 127 c 0
 307 127 347 62 412 62 c 0
 444 62 481 83 493 127 c 1
 554 127 l 1
 537 50 464 0 401 0 c 0
 330 0 289 65 225 65 c 0
 193 65 157 44 144 0 c 1
 83 0 l 1
EndSplineSet
EndChar

StartChar: breve.ts1
Encoding: 61707 61707 315
Width: 611
Flags: HW
TeX: 722 0
ItalicCorrection: 100
HStem: 526 67<347.013 524.84> 702 20G<233.5 295 613 684>
VStem: 230 63<640.86 722> 622 62<677.115 722>
LayerCount: 2
Fore
SplineSet
230 685 m 0
 230 692 233 721 234 722 c 1
 295 722 l 1
 294 714 293 706 293 698 c 0
 293 635 355 593 431 593 c 0
 516 593 604 644 622 722 c 1
 684 722 l 1
 653 595 525 526 417 526 c 0
 313 526 230 589 230 685 c 0
EndSplineSet
EndChar

StartChar: caron.ts1
Encoding: 61708 61708 316
Width: 611
Flags: HW
TeX: 722 0
ItalicCorrection: 103
HStem: 490 255
DStem2: 352 745 291 745 0.322901 -0.946433<0 200.855> 423 557 440 490 0.60745 0.794358<0 241.064>
LayerCount: 2
Fore
SplineSet
291 745 m 1
 352 745 l 1
 423 557 l 1
 574 745 l 1
 635 745 l 1
 440 490 l 1
 378 490 l 1
 291 745 l 1
EndSplineSet
EndChar

StartChar: hungarumlaut.ts1
Encoding: 61709 61709 317
Width: 500
Flags: HW
TeX: 722 0
ItalicCorrection: 97
HStem: 537 185
LayerCount: 2
Fore
SplineSet
222 537 m 1
 325 722 l 1
 403 722 l 1
 283 537 l 1
 222 537 l 1
388 537 m 1
 492 722 l 1
 570 722 l 1
 450 537 l 1
 388 537 l 1
EndSplineSet
EndChar

StartChar: dblgrave.ts1
Encoding: 61710 61710 318
Width: 500
Flags: HW
TeX: 722 0
HStem: 537 185<277 314 443 481>
VStem: 236 269
LayerCount: 2
Fore
SplineSet
236 722 m 1
 314 722 l 1
 338 537 l 1
 277 537 l 1
 236 722 l 1
402 722 m 1
 481 722 l 1
 505 537 l 1
 443 537 l 1
 402 722 l 1
EndSplineSet
EndChar

StartChar: dagger
Encoding: 8224 8224 319
Width: 444
Flags: HW
TeX: 722 194
HStem: 405 79<157.88 285.4 347.646 475.12> 713 20G<371 383.5>
DStem2: 137 -217 215 -217 0.207912 0.978148<16.2171 630.375>
LayerCount: 2
Fore
SplineSet
137 -217 m 1
 243 278 l 1
 287 419 l 1
 253 415 210 405 184 405 c 0
 156 405 149 422 149 436 c 0
 149 451 161 484 201 484 c 0
 230 484 258 474 297 470 c 1
 298 470 l 1
 322 628 323 694 341 715 c 0
 350 725 364 733 378 733 c 0
 389 733 409 727 409 702 c 0
 409 680 381 595 346 470 c 1
 381 474 423 484 449 484 c 0
 477 484 484 466 484 453 c 0
 484 438 472 405 432 405 c 0
 403 405 375 415 336 419 c 1
 316 256 332 336 307 215 c 2
 215 -217 l 1
 137 -217 l 1
EndSplineSet
EndChar

StartChar: daggerdbl
Encoding: 8225 8225 320
Width: 444
Flags: HW
TeX: 722 194
HStem: -10 78<69.2305 196.4 259.6 386.974> 459 79<169.45 296.4 359.6 485.864> 713 20G<345.5 386.5>
VStem: 147 100<-162.765 -91.5762> 215 94<149.131 237.315> 247 94<291.949 378.222> 309 100<616.627 693.999>
LayerCount: 2
Fore
SplineSet
61 21 m 0
 61 36 73 68 113 68 c 0
 142 68 180 58 209 55 c 1
 215 100 l 1
 224 190 221 263 277 263 c 0
 296 263 309 251 309 233 c 0xe8
 309 202 276 124 258 55 c 1
 292 59 334 68 360 68 c 0
 388 68 395 50 395 37 c 0
 395 22 384 -10 344 -10 c 0
 315 -10 276 0 247 4 c 1xe4
 229 -109 243 -205 178 -205 c 0
 167 -205 147 -199 147 -175 c 0xf0
 147 -153 158 -128 198 4 c 1
 164 0 122 -10 96 -10 c 0
 68 -10 61 8 61 21 c 0
161 490 m 0
 161 505 172 538 212 538 c 0
 241 538 270 529 309 524 c 1
 328 648 314 733 377 733 c 0xe2
 396 733 409 721 409 703 c 0xe2
 409 679 392 635 358 524 c 1
 392 528 434 538 460 538 c 0
 488 538 495 520 495 507 c 0
 495 492 483 460 443 460 c 0
 414 460 386 469 347 473 c 1
 341 429 l 1
 332 337 333 264 278 264 c 0
 260 264 247 276 247 294 c 0xe4
 247 323 282 413 298 473 c 1
 264 469 221 459 195 459 c 0
 167 459 161 477 161 490 c 0
EndSplineSet
EndChar

StartChar: uni2016
Encoding: 8214 8214 321
Width: 500
Flags: HW
TeX: 749 249
DStem2: 121.198 -249 161.411 -249 0.207912 0.978148<21.7223 1007.62> 230.198 -249 271.411 -249 0.207912 0.978148<21.93 1007.83>
LayerCount: 2
Fore
SplineSet
236 -228 m 0
 236 -224 236 -221 237 -217 c 2
 435 715 l 2
 438 728 439 749 459 749 c 0
 473 749 478 736 478 729 c 0
 478 722 476 716 475 710 c 2
 278 -218 l 2
 276 -226 274 -249 255 -249 c 0
 246 -249 236 -241 236 -228 c 0
EndSplineSet
Refer: 135 124 S 1 0 0 1 56 0 2
EndChar

StartChar: perthousand
Encoding: 8240 8240 322
Width: 1166
Flags: HW
TeX: 749 27
ItalicCorrection: 33
HStem: -28 62<613.221 688.647 946.221 1019.94> 300 61<660.599 735.39 993.599 1068.39> 361 61<251.699 326.471> 688 62<297.641 373.674>
VStem: 167 73<431.654 601.61> 387 70<507.406 676.792> 529 73<42.7356 215.095> 749 70<118.766 288.358> 862 73<42.7356 215.095> 1082 70<116.514 288.358>
DStem2: 189 19 213 -16 0.632178 0.774823<-28.6291 945.605>
LayerCount: 2
Fore
SplineSet
862 112 m 0
 862 236 956 361 1049 361 c 0
 1111 361 1152 303 1152 223 c 0
 1152 101 1061 -28 967 -28 c 0
 904 -28 862 31 862 112 c 0
935 107 m 0
 935 44 962 34 982 34 c 0
 1027 34 1082 129 1082 218 c 0
 1082 268 1063 300 1035 300 c 0
 1027 300 1017 296 1007 290 c 0
 949 252 935 136 935 107 c 0
EndSplineSet
Refer: 48 37 S 1 0 0 1 0 0 2
EndChar

StartChar: bullet
Encoding: 8226 8226 323
Width: 500
Flags: HW
TeX: 444 -55
HStem: 55 390<248.196 354.875>
VStem: 104 396<196.559 303.276>
LayerCount: 2
Fore
SplineSet
104 214 m 0
 104 332 215 445 339 445 c 0
 431 445 500 380 500 286 c 0
 500 169 391 55 265 55 c 0
 174 55 104 119 104 214 c 0
EndSplineSet
EndChar

StartChar: uni2103
Encoding: 8451 8451 324
Width: 861
Flags: HW
TeX: 694 0
ItalicCorrection: 119
HStem: -22 64<538.427 745.213> 472 41<172.628 269.672> 652 64<665.208 859.928> 654 40<200.543 297.225>
VStem: 122 40<524.06 615.935> 308 40<550.78 643.263> 353 89<152.644 389.281>
LayerCount: 2
Fore
SplineSet
122 565 m 0
 122 630 183 694 254 694 c 0
 306 694 348 657 348 601 c 0
 348 536 287 472 216 472 c 0
 164 472 122 509 122 565 c 0
162 565 m 0
 162 534 184 513 216 513 c 0
 264 513 308 558 308 602 c 0
 308 634 285 654 254 654 c 0xde
 207 654 162 610 162 565 c 0
353 259 m 0
 353 488 547 716 767 716 c 0
 838 716 886 705 944 682 c 1
 912 599 l 1
 870 629 831 652 753 652 c 0xee
 609 652 442 491 442 262 c 0
 442 153 499 42 624 42 c 0
 723 42 758 65 826 103 c 1
 817 33 l 1
 741 -6 703 -22 612 -22 c 0
 442 -22 353 109 353 259 c 0
EndSplineSet
EndChar

StartChar: dollaroldstyle
Encoding: 63268 63268 325
Width: 611
Flags: HW
TeX: 749 27
ItalicCorrection: 111
HStem: -10 65<291 328> -4 66<163.935 220> 662 65<543 597.844> 668 65<435 472>
VStem: 165 78<478.8 583.947> 523 78<151.659 268.586>
DStem2: 215 -28 273 -28 0.207912 0.978148<12.0589 24.5151 96.9875 384.322 483.455 698.014 789.133 795.304> 324 -28 383 -28 0.207912 0.978148<12.2668 18.4383 112.283 352.752 452.863 711.562 784.034 795.304>
LayerCount: 2
Fore
SplineSet
57 61 m 1
 83 130 l 1
 119 106 156 78 234 62 c 1x4c
 295 351 l 1
 238 368 165 416 165 503 c 0
 165 601 259 692 374 722 c 1
 380 750 l 1
 438 750 l 1
 435 732 l 1
 486 733 l 1x5c
 489 750 l 1
 548 750 l 1
 543 727 l 1
 595 719 629 705 681 675 c 1
 655 609 l 1
 609 637 582 652 529 662 c 1
 473 400 l 1
 544 378 601 318 601 238 c 0
 601 143 518 37 389 1 c 1
 383 -28 l 1
 324 -28 l 1
 328 -10 l 1
 305 -11 l 1
 277 -10 l 1xac
 273 -28 l 1
 215 -28 l 1
 220 -4 l 1
 153 6 92 37 57 61 c 1
243 532 m 0
 243 483 287 455 315 445 c 1
 359 655 l 1
 284 627 243 581 243 532 c 0
291 55 m 1x8c
 299 54 305 54 313 54 c 0
 322 54 333 54 342 55 c 1
 398 323 l 1
 351 336 l 1
 291 55 l 1x8c
370 428 m 1
 418 415 l 1
 472 668 l 1
 442 669 l 1
 421 668 l 1x1c
 421 667 l 1
 370 428 l 1
403 70 m 1
 477 100 523 153 523 209 c 0x0c
 523 267 477 294 454 305 c 1
 403 70 l 1
EndSplineSet
EndChar

StartChar: centoldstyle
Encoding: 63394 63394 326
Width: 500
Flags: HW
TeX: 534 97
ItalicCorrection: 83
HStem: -11 64<218.318 409.456> 397 64<279.814 393.863>
VStem: 78 79<110.739 269.725>
DStem2: 30 -83 78 -112 0.604577 0.796546<5.91987 167.075 242.002 601.612 703.135 802.213>
LayerCount: 2
Fore
SplineSet
30 -83 m 1
 128 47 l 1
 119 56 78 99 78 176 c 0
 78 305 202 461 382 461 c 0
 397 461 421 460 441 458 c 1
 515 556 l 1
 516 556 l 1
 563 527 l 1
 500 443 l 1
 519 436 537 427 555 417 c 1
 529 351 l 1
 500 368 483 378 456 386 c 1
 217 71 l 1
 245 57 262 53 292 53 c 0
 381 53 441 83 488 107 c 1
 480 40 l 1
 424 13 360 -11 279 -11 c 0
 242 -11 211 -6 173 13 c 1
 78 -112 l 1
 30 -83 l 1
157 183 m 0
 157 139 172 116 176 110 c 1
 394 396 l 1
 385 396 375 397 366 397 c 0
 235 397 157 279 157 183 c 0
EndSplineSet
EndChar

StartChar: colonmonetary
Encoding: 8353 8353 327
Width: 639
Flags: HW
TeX: 749 27
ItalicCorrection: 119
HStem: 651 65<570 641.349>
VStem: 130 90<150.225 392.03>
DStem2: 352.483 -28 410.908 -28 0.207912 0.978148<84.7334 693.231 772.966 795.412>
LayerCount: 2
Fore
SplineSet
130 259 m 0
 130 484 317 697 510 715 c 1
 511 715 l 1
 518 750 l 1
 577 750 l 1
 570 716 l 1
 632 712 665 705 722 682 c 1
 690 599 l 1
 645 632 617 645 555 651 c 1
 426 43 l 1
 508 50 524 58 604 103 c 1
 595 33 l 1
 520 -6 487 -19 413 -22 c 1
 412 -22 l 1
 411 -28 l 1
 353 -28 l 1
 354 -20 l 1
 213 -5 130 115 130 259 c 0
220 264 m 0
 220 174 255 70 368 45 c 1
 497 650 l 1
 336 617 220 433 220 264 c 0
EndSplineSet
EndChar

StartChar: uni20A9
Encoding: 8361 8361 328
Width: 944
Flags: HW
TeX: 694 0
ItalicCorrection: 161
HStem: -0 21G<216.354 308.127 637.481 736.127> 158 62<25.5312 200 285 318 409 622 702 739 837 998.515> 358 62<67.7379 183 274 414 508 608 690 836 938 1040.26> 674 20G<161 249.533 572.927 665.533 994.927 1077>
VStem: 205 80<72.9231 158> 627 76<89 158>
DStem2: 248 694 161 694 0.0818569 -0.996644<0 267.76 337.001 468.48> 347 220 409 220 0.447214 0.894427<-161.338 -68.4237 27.7272 153.394 250.887 473.279> 685 420 608 420 0.0736392 -0.997285<-172.19 -5.67022 62.1999 194.818> 739 158 806 158 0.451323 0.89236<-94.3736 0 99.556 222.25 323.612 598.357>
LayerCount: 2
Fore
SplineSet
24 189 m 0
 24 222 59 220 73 220 c 2
 200 220 l 1
 188 358 l 1
 104 358 l 2
 70 358 66 380 66 388 c 0
 66 396 70 419 103 420 c 1
 183 420 l 1
 161 694 l 1
 248 694 l 1
 269 420 l 1
 445 420 l 1
 583 694 l 1
 664 694 l 1
 685 420 l 1
 867 420 l 1
 1005 694 l 1
 1077 694 l 1
 938 420 l 1
 1004 420 l 2
 1038 420 1042 396 1042 388 c 0
 1042 381 1039 358 1005 358 c 2
 907 358 l 1
 837 220 l 1
 956 220 l 2
 963 220 970 220 976 218 c 0
 989 215 1000 204 1000 189 c 0
 1000 159 974 158 959 158 c 2
 806 158 l 1
 726 -0 l 1
 639 -0 l 1
 627 158 l 1
 378 158 l 1
 298 -0 l 1
 218 -0 l 1
 205 158 l 1
 68 158 l 2
 61 158 54 157 47 159 c 0
 38 161 24 171 24 189 c 0
274 358 m 1
 282 220 l 1
 347 220 l 1
 414 358 l 1
 274 358 l 1
283 70 m 1
 292 100 306 129 318 158 c 1
 285 158 l 1
 285 110 l 1
 283 70 l 1
409 220 m 1
 622 220 l 1
 612 358 l 1
 478 358 l 1
 409 220 l 1
508 420 m 1
 608 420 l 1
 604 487 600 554 600 588 c 0
 600 600 601 612 602 624 c 1
 587 582 547 501 508 420 c 1
690 358 m 1
 699 220 l 1
 768 220 l 1
 836 358 l 1
 690 358 l 1
702 70 m 1
 707 88 712 97 739 158 c 1
 702 158 l 1
 703 120 l 1
 703 89 l 1
 702 70 l 1
EndSplineSet
EndChar

StartChar: uni20A6
Encoding: 8358 8358 329
Width: 736
Flags: HW
TeX: 694 0
ItalicCorrection: 80
HStem: 0 21G<110 192.177 495.177 630.304> 158 62<-2.31931 144 235 437 540 582 673 813.445> 358 62<44.5099 186 277 378 482 625 716 861.435> 674 20G<252.766 387.912 691.766 774>
DStem2: 110 0 188 0 0.207912 0.978148<16.2171 161.616 241.181 365.978 445.543 654.233> 382 694 321 624 0.28 -0.96<50.12 261.92 350.56 470.44 558.8 650> 549.121 0 626 0 0.207912 0.978148<71.5638 161.383 240.948 365.953 445.518 709.372>
LayerCount: 2
Fore
SplineSet
-4 189 m 0
 -4 201 3 220 37 220 c 2
 157 220 l 1
 186 358 l 1
 80 358 l 2
 74 358 68 358 62 359 c 0
 48 363 39 376 39 389 c 0
 39 395 40 401 44 406 c 0
 55 418 58 420 90 420 c 2
 199 420 l 1
 257 694 l 1
 382 694 l 1
 463 420 l 1
 638 420 l 1
 696 694 l 1
 774 694 l 1
 716 420 l 1
 821 420 l 2
 827 420 834 420 840 418 c 0
 852 415 863 404 863 389 c 0
 863 372 849 362 841 360 c 0
 831 357 821 358 811 358 c 2
 702 358 l 1
 673 220 l 1
 779 220 l 2
 792 220 820 219 820 188 c 0
 820 182 818 175 814 170 c 0
 802 158 800 158 768 158 c 2
 660 158 l 1
 626 0 l 1
 501 0 l 1
 455 158 l 1
 221 158 l 1
 188 0 l 1
 110 0 l 1
 144 158 l 1
 37 158 l 2
 31 158 26 158 20 159 c 0
 11 161 -4 172 -4 189 c 0
235 220 m 1
 437 220 l 1
 396 358 l 1
 264 358 l 1
 235 220 l 1
277 420 m 1
 378 420 l 1
 331 583 325 603 321 624 c 1
 277 420 l 1
482 358 m 1
 522 220 l 1
 596 220 l 1
 625 358 l 1
 482 358 l 1
540 158 m 1
 564 70 l 1
 582 158 l 1
 540 158 l 1
EndSplineSet
EndChar

StartChar: uni20B2
Encoding: 8370 8370 330
Width: 778
Flags: HW
TeX: 749 27
ItalicCorrection: 119
HStem: 237 62<537 682> 650 65<469.388 553 626 731.474>
VStem: 132 90<174.592 389.752>
DStem2: 408.696 -28 466.908 -28 0.207912 0.978148<84.6893 283.182 346.53 693.187 772.922 795.367> 626.382 -28 704.309 -28 0.207912 0.978148<89.0499 270.773>
LayerCount: 2
Fore
SplineSet
132 272 m 0
 132 479 319 693 567 715 c 1
 574 750 l 1
 633 750 l 1
 626 716 l 1
 714 713 773 698 844 668 c 1
 812 585 l 1
 729 636 705 642 612 651 c 1
 537 299 l 1
 774 299 l 1
 716 27 l 1
 677 12 593 -14 469 -22 c 1
 468 -22 l 1
 467 -28 l 1
 409 -28 l 1
 410 -21 l 1
 351 -14 316 -5 277 17 c 0
 196 62 132 150 132 272 c 0
222 280 m 0
 222 152 301 60 424 44 c 1
 553 650 l 1
 390 635 222 470 222 280 c 0
482 43 m 1
 548 48 583 53 647 69 c 1
 682 237 l 1
 524 237 l 1
 482 43 l 1
EndSplineSet
EndChar

StartChar: peso
Encoding: 61711 61711 331
Width: 653
Flags: HW
TeX: 694 0
ItalicCorrection: 82
HStem: 0 21G<110 203.304> 158 62<-2.34175 143 246 465.007> 289 58<270 511.65> 638 56<332 568.081>
VStem: 624 82<445.735 588.514>
DStem2: 110 0 199 0 0.207912 0.978148<18.5041 161.408 243.468 314.079 372.683 670.215>
LayerCount: 2
Fore
SplineSet
-4 189 m 0
 -4 203 7 214 17 217 c 0
 27 220 38 220 48 220 c 2
 156 220 l 1
 257 694 l 1
 496 694 l 2
 672 694 706 586 706 528 c 0
 706 411 589 313 474 293 c 0
 451 289 427 289 404 289 c 2
 261 289 l 1
 246 220 l 1
 424 220 l 2
 431 220 439 220 446 217 c 0
 458 213 467 201 467 188 c 0
 467 179 464 158 429 158 c 2
 233 158 l 1
 199 0 l 1
 110 0 l 1
 143 158 l 1
 37 158 l 2
 15 158 -4 165 -4 189 c 0
270 347 m 1
 402 347 l 2
 566 347 624 452 624 522 c 0
 624 568 598 638 467 638 c 2
 332 638 l 1
 270 347 l 1
EndSplineSet
EndChar

StartChar: lira
Encoding: 8356 8356 332
Width: 754
Flags: HW
TeX: 722 0
HStem: -11 62<118 214.577 407.326 535.936> 83 62<144.975 218.178> 158 62<177.56 271 363 484.262> 314 61<210.353 305 396 517.472> 702 62<508.905 609.452>
VStem: 66 77<51.0015 80.0312> 562 79<92.2257 145> 628 76<516.5 684.844>
DStem2: 235.899 -11 313.899 -11 0.207912 0.978148<252.378 332.265 410.852 638.076>
LayerCount: 2
Fore
SplineSet
66 46 m 0
 66 90 118 145 213 145 c 0
 232 145 247 142 263 138 c 1
 271 158 l 1
 221 158 l 2
 212 158 202 158 193 162 c 0
 182 167 176 178 176 189 c 0
 176 197 180 220 215 220 c 2
 285 220 l 1
 305 314 l 1
 247 314 l 2
 217 314 209 332 209 344 c 0
 209 353 213 376 248 376 c 0
 251 376 255 375 258 375 c 2
 318 375 l 1
 352 537 356 558 363 577 c 0
 400 685 492 764 578 764 c 0
 654 764 704 702 704 606 c 0xfd
 704 572 704 507 656 507 c 0
 635 507 625 521 627 541 c 1
 619 542 l 1
 624 565 628 588 628 611 c 0xfd
 628 689 590 702 565 702 c 0
 514 702 461 651 438 570 c 0
 432 551 412 453 396 375 c 1
 481 375 l 2
 515 375 519 352 519 344 c 0
 519 335 515 314 481 314 c 2
 383 314 l 1
 363 220 l 1
 448 220 l 2
 482 220 486 196 486 188 c 0
 486 180 482 158 448 158 c 2
 348 158 l 1
 343 142 336 127 328 112 c 1
 400 75 443 50 496 50 c 0
 523 50 547 67 562 145 c 1
 641 145 l 1xfe
 624 61 541 -11 451 -11 c 0
 385 -11 320 30 280 51 c 1
 242 15 191 -11 138 -11 c 0
 98 -11 66 12 66 46 c 0
143 59 m 1
 143 53 148 51 156 51 c 0
 183 51 209 69 219 76 c 1
 200 80 186 83 175 83 c 0xfc
 145 83 143 59 143 59 c 1
EndSplineSet
EndChar

StartChar: uni211E
Encoding: 8478 8478 333
Width: 646
Flags: HW
TeX: 694 0
ItalicCorrection: 82
HStem: -0 21G<95 186.241 519.468 617> 316 62<262 407> 638 56<318 563.065>
VStem: 618 82<461.365 590.787>
DStem2: 95 -0 182 -0 0.207912 0.978148<18.0883 341.113 404.461 670.422> 295 98 325 51 0.811822 0.583904<0 173.956 270.858 456.791> 488 326 407 316 0.367946 -0.929847<0 75.0238 152.943 317.48>
LayerCount: 2
Fore
SplineSet
95 -0 m 1
 242 694 l 1
 471 694 l 2
 649 694 700 599 700 536 c 0
 700 452 625 363 488 326 c 1
 515 256 l 1
 669 367 l 1
 698 320 l 1
 536 203 l 1
 617 -0 l 1
 527 -0 l 1
 469 154 l 1
 325 51 l 1
 295 98 l 1
 448 208 l 1
 407 316 l 1
 249 316 l 1
 182 -0 l 1
 95 -0 l 1
262 378 m 1
 395 378 l 2
 563 378 618 469 618 530 c 0
 618 594 563 633 481 638 c 1
 318 638 l 1
 262 378 l 1
EndSplineSet
EndChar

StartChar: uni203D
Encoding: 8253 8253 334
Width: 472
Flags: HW
TeX: 722 0
ItalicCorrection: 122
HStem: 0 84<212 278> 595 62<239.316 323 416 437.94> 702 20G<343.129 431>
VStem: 194 101 450 79<478.532 583.306>
DStem2: 187.803 0 268.803 0 0.207912 0.978148<195.75 280.322 320.462 362.413 453.116 613.041 690.088 739.322>
LayerCount: 2
Fore
SplineSet
185 612 m 1
 233 638 281 656 335 660 c 1
 347 722 l 1
 431 722 l 1
 416 657 l 1
 447 652 529 635 529 547 c 0
 529 531 525 463 461 416 c 0
 433 396 363 349 334 294 c 1
 306 175 l 1
 225 175 l 1
 254 310 259 275 266 311 c 2
 323 598 l 1
 276 590 255 586 195 549 c 1
 185 612 l 1
363 426 m 1
 406 458 450 479 450 538 c 0
 450 572 432 586 402 595 c 1
 363 426 l 1
EndSplineSet
Refer: 57 46 S 1 0 0 1 98 0 2
EndChar

StartChar: uni2E18
Encoding: 11800 11800 335
Width: 472
Flags: HW
TeX: 534 194
HStem: -195 21G<153 240> -41 20G<376.5 392.125> 444 84<307 373>
VStem: 54 78<-60.6299 52.4288> 289 101
DStem2: 153 -195 236 -195 0.207912 0.978148<17.2567 64.5341 147.865 325.042 426.157 558.895>
LayerCount: 2
Fore
SplineSet
54 -24 m 0
 54 13 70 64 104 100 c 0
 125 122 207 171 244 275 c 0
 253 300 257 326 263 353 c 1
 344 353 l 1
 262 -67 l 1
 321 -58 364 -34 389 -21 c 1
 399 -85 l 1
 357 -104 310 -122 249 -130 c 1
 236 -195 l 1
 153 -195 l 1
 167 -132 l 1
 98 -126 54 -90 54 -24 c 0
132 -18 m 0
 132 -60 163 -66 181 -70 c 1
 225 122 l 1
 190 88 208 104 165 66 c 1
 140 41 132 4 132 -18 c 0
EndSplineSet
Refer: 57 46 S 1 0 0 1 193 444 2
EndChar

StartChar: dong
Encoding: 8363 8363 336
Width: 517
Flags: HW
TeX: 749 0
ItalicCorrection: 100
HStem: -40 40<51.052 548.954> 17 61<195.143 298.288> 422 61<263.211 399.795> 579 59<297 475 563 652>
VStem: 75 79<119.895 297.181>
DStem2: 340.546 -40 419.546 -40 0.207912 0.978148<85.9442 122.67 155.532 414.189 480.26 633.428 709.435 808.384>
LayerCount: 2
Fore
SplineSet
51 -21 m 0
 51 -1 69 0 80 0 c 2
 521 0 l 2
 533 0 549 -3 549 -21 c 0
 549 -25 548 -40 522 -40 c 2
 78 -40 l 2
 58 -40 51 -31 51 -21 c 0
75 183 m 0
 75 336 189 483 308 483 c 0
 382 483 422 449 444 429 c 1
 475 579 l 1
 284 579 l 1
 297 638 l 1
 488 638 l 1
 512 750 l 1
 587 750 l 1
 563 638 l 1
 664 638 l 1
 652 579 l 1
 551 579 l 1
 434 28 l 1
 355 28 l 1
 366 80 l 1
 337 58 280 17 204 17 c 0
 113 17 75 106 75 183 c 0
154 195 m 0
 154 121 197 78 260 78 c 0
 300 78 335 99 357 122 c 0
 383 148 381 148 385 168 c 0
 416 313 426 351 426 366 c 0
 426 376 403 422 342 422 c 0
 243 422 154 324 154 195 c 0
EndSplineSet
EndChar

StartChar: trademark
Encoding: 8482 8482 337
Width: 667
Flags: HW
TeX: 749 0
ItalicCorrection: 524
HStem: 689 61<75.6273 193 273 403.312>
VStem: 130 80<357.51 425.889>
LayerCount: 2
Fore
SplineSet
74 720 m 0
 74 725 76 750 120 750 c 2
 356 750 l 2
 397 750 405 733 405 720 c 0
 405 709 398 689 360 689 c 2
 273 689 l 1
 210 393 l 2
 209 388 206 353 168 353 c 0
 144 353 130 371 130 382 c 0
 130 394 144 460 193 689 c 1
 122 689 l 2
 82 689 74 708 74 720 c 0
352 384 m 0
 352 388 352 392 353 396 c 2
 425 734 l 2
 426 738 430 772 467 772 c 0
 504 772 507 737 507 737 c 1
 543 587 l 1
 664 772 657 772 688 772 c 0
 708 772 727 760 727 741 c 0
 727 737 726 734 725 730 c 2
 653 390 l 2
 652 385 649 353 612 353 c 0
 594 353 574 364 574 385 c 0
 574 402 578 402 608 554 c 1
 558 477 553 463 524 463 c 0
 485 463 486 488 468 564 c 1
 429 378 435 353 390 353 c 0
 372 353 352 364 352 384 c 0
EndSplineSet
EndChar

StartChar: uni2031
Encoding: 8241 8241 338
Width: 1538
Flags: HW
TeX: 749 27
ItalicCorrection: 33
HStem: -28 62<613.221 688.647 965.221 1038.94 1317.22 1392.65> 300 61<660.599 735.39 1015.19 1087.39 1367.19 1439.65> 361 61<251.699 326.471> 688 62<297.641 373.674>
VStem: 167 73<431.654 601.61> 387 70<507.406 676.792> 529 73<42.7356 215.095> 749 70<118.766 288.358> 881 73<42.7356 215.095> 1101 70<116.514 288.358> 1233 73<42.7356 215.095> 1453 70<118.548 288.825>
DStem2: 189 19 213 -16 0.632178 0.774823<-28.6291 945.605>
LayerCount: 2
Fore
SplineSet
881 112 m 0
 881 236 975 361 1068 361 c 0
 1130 361 1171 303 1171 223 c 0
 1171 101 1080 -28 986 -28 c 0
 923 -28 881 31 881 112 c 0
954 107 m 0
 954 44 981 34 1001 34 c 0
 1046 34 1101 129 1101 218 c 0
 1101 268 1082 300 1054 300 c 0
 1046 300 1037 296 1027 290 c 0
 969 252 954 136 954 107 c 0
1233 112 m 0
 1233 236 1327 361 1420 361 c 0
 1482 361 1523 303 1523 223 c 0
 1523 99 1430 -28 1338 -28 c 0
 1275 -28 1233 31 1233 112 c 0
1306 107 m 0
 1306 44 1333 34 1353 34 c 0
 1398 34 1453 128 1453 218 c 0
 1453 268 1435 300 1407 300 c 0
 1399 300 1389 296 1379 290 c 0
 1321 252 1306 136 1306 107 c 0
EndSplineSet
Refer: 48 37 S 1 0 0 1 0 0 2
EndChar

StartChar: uni2029
Encoding: 8233 8233 339
Width: 472
Flags: HW
TeX: 722 194
HStem: -194 21G<296 312.5> 682 40<506 591.942>
DStem2: 278.773 -194 319.135 -194 0.207912 0.978148<22.9973 448.79>
LayerCount: 2
Fore
SplineSet
153 443 m 0
 153 541 235 703 362 721 c 0
 373 723 385 722 396 722 c 2
 563 722 l 2
 572 722 592 722 592 703 c 0
 592 695 588 683 566 682 c 1
 506 682 l 1
 327 -157 l 2
 324 -169 322 -194 303 -194 c 0
 289 -194 285 -184 285 -172 c 0
 285 -168 285 -164 286 -160 c 2
 372 245 l 1
 219 258 153 355 153 443 c 0
EndSplineSet
EndChar

StartChar: uni0E3F
Encoding: 3647 3647 340
Width: 667
Flags: HW
TeX: 749 27
ItalicCorrection: 82
HStem: 0 56<192 274 344 452.81> 330 62<263 344 416 487.665> 638 56<316 409 480 497>
VStem: 570 82<146.613 266.184> 615 80<477.992 586.061>
DStem2: 90.0484 -28 174.145 -28 0.207912 0.978148<103.361 383.641 446.781 698.424> 268 -28 326 -28 0.207912 0.978148<12.0589 28.6356 97.9657 365.978 442.571 680.762 750.3 795.304>
LayerCount: 2
Fore
SplineSet
96 0 m 1
 243 694 l 1
 421 694 l 1
 433 750 l 1
 491 750 l 1
 480 694 l 1
 607 694 695 629 695 545 c 0xe8
 695 472 625 395 491 363 c 1
 583 347 652 293 652 215 c 0xf0
 652 121 540 6 371 0 c 1
 332 0 l 1
 326 -28 l 1
 268 -28 l 1
 274 0 l 1
 96 0 l 1
192 56 m 1
 286 56 l 1
 344 330 l 1
 251 330 l 1
 192 56 l 1
263 392 m 1
 357 392 l 1
 409 638 l 1
 316 638 l 1
 263 392 l 1
344 56 m 1
 473 57 570 132 570 209 c 0xf0
 570 247 538 322 402 330 c 1
 344 56 l 1
416 393 m 1
 534 404 615 471 615 536 c 0xe8
 615 593 545 624 497 633 c 1
 468 637 l 1
 416 393 l 1
EndSplineSet
EndChar

StartChar: uni2116
Encoding: 8470 8470 341
Width: 819
Flags: HW
TeX: 694 0
ItalicCorrection: 80
HStem: 0 21G<95 177.251 331.674 462.236> 160 59<583 772> 267 65<681.496 743.036> 674 20G<237.764 371.5 523.756 605>
VStem: 303 96<289.6 402.161> 618 62<332.723 450.703>
DStem2: 95 0 173 0 0.207912 0.978148<16.2171 651.091> 380.696 0 458 0 0.207912 0.978148<73.6085 709.461>
LayerCount: 2
Fore
SplineSet
95 0 m 1
 242 694 l 1
 367 694 l 1
 376 568 399 278 399 143 c 0
 399 115 399 115 396 72 c 1
 528 694 l 1
 605 694 l 1
 458 0 l 1
 333 0 l 1
 309 362 l 1
 303 484 l 1
 302 570 l 1
 303 600 l 1
 305 621 l 1
 173 0 l 1
 95 0 l 1
571 160 m 1
 583 219 l 1
 785 219 l 1
 772 160 l 1
 571 160 l 1
618 364 m 0
 618 450 685 544 753 544 c 0
 798 544 828 501 828 442 c 0
 828 350 761 267 694 267 c 0
 648 267 618 310 618 364 c 0
680 366 m 0
 680 348 689 332 708 332 c 0
 755 332 763 410 766 442 c 1
 763 470 758 479 739 482 c 1
 692 478 680 382 680 366 c 0
EndSplineSet
EndChar

StartChar: uni2052
Encoding: 8274 8274 342
Width: 500
Flags: HW
TeX: 749 0
ItalicCorrection: 131
HStem: 0 124<320.729 421.675> 626 124<247 333.685>
VStem: 213 140<639.876 737.169> 305 139<8.64996 115.749>
DStem2: 70 42 97 11 0.575989 0.817457<-23.3962 866.182>
LayerCount: 2
Fore
SplineSet
60 20 m 0
 60 29 67 38 70 42 c 2
 559 736 l 2
 563 741 569 749 579 749 c 0
 589 749 598 741 598 730 c 0
 598 721 589 709 583 701 c 2
 97 11 l 1
 92 6 87 1 79 1 c 0
 68 1 60 10 60 20 c 0
213 648 m 0xe0
 213 657 227 721 232 738 c 1
 236 743 l 1
 241 747 l 1
 247 749 l 1
 259 750 l 1
 323 750 l 2
 334 750 353 749 353 728 c 0
 353 719 339 657 334 639 c 1
 327 631 324 626 307 626 c 2
 242 626 l 2
 221 626 213 635 213 648 c 0xe0
305 21 m 0
 305 33 310 53 320 99 c 0
 323 113 327 119 339 123 c 1
 351 124 l 1
 414 124 l 2
 436 124 444 117 444 101 c 0
 444 90 430 21 422 8 c 1
 415 2 413 0 399 0 c 2
 334 0 l 2xd0
 326 0 305 0 305 21 c 0
EndSplineSet
EndChar

StartChar: estimated
Encoding: 8494 8494 343
Width: 669
Flags: HW
TeX: 694 0
ItalicCorrection: 109
HStem: -11 61<287.978 543.706> 361 56<208 652.103> 649 61<395.333 574.776>
VStem: 93 86<168.607 355.568> 653 78<417.518 568.787>
LayerCount: 2
Fore
SplineSet
93 270 m 0
 93 488 288 710 501 710 c 0
 603 710 731 664 731 478 c 0
 731 439 726 399 718 361 c 1
 190 361 l 1
 184 332 179 303 179 274 c 0
 179 156 248 50 378 50 c 0
 474 50 566 73 652 106 c 1
 644 40 l 1
 545 5 448 -11 364 -11 c 0
 191 -11 93 116 93 270 c 0
208 417 m 1
 650 417 l 1
 652 433 653 449 653 466 c 0
 653 612 559 649 487 649 c 0
 363 649 250 531 208 417 c 1
EndSplineSet
EndChar

StartChar: openbullet
Encoding: 9702 9702 344
Width: 500
Flags: HW
TeX: 444 -55
HStem: 55 41<193.715 344.799> 404 41<258.512 410.503>
VStem: 104 40<145.47 288.756> 460 40<210.37 354.315>
LayerCount: 2
Fore
SplineSet
104 214 m 0
 104 332 215 445 339 445 c 0
 431 445 500 380 500 286 c 0
 500 169 391 55 265 55 c 0
 174 55 104 119 104 214 c 0
144 214 m 0
 144 143 194 96 265 96 c 0
 363 96 460 186 460 286 c 0
 460 357 410 404 339 404 c 0
 236 404 144 309 144 214 c 0
EndSplineSet
EndChar

StartChar: uni2120
Encoding: 8480 8480 345
Width: 667
Flags: HW
TeX: 749 0
ItalicCorrection: 524
HStem: 375 61<33.5185 257.569> 385 51<24.7205 249.389> 550 62<150.011 274> 689 61<158.582 386.342>
VStem: 70 79<612.725 681.99> 276 79<452.785 549.49>
LayerCount: 2
Fore
SplineSet
23 406 m 0
 23 412 28 436 62 436 c 2
 199 436 l 2xbc
 247 436 259 441 271 498 c 0
 274 513 276 523 276 531 c 0
 276 548 266 551 239 551 c 0
 233 551 226 550 220 550 c 2
 170 550 l 2
 146 550 70 553 70 622 c 0
 70 631 76 680 95 707 c 0
 125 749 177 750 218 750 c 2
 341 750 l 2
 383 750 388 728 388 719 c 0
 388 709 380 688 343 688 c 0
 339 688 334 689 330 689 c 2
 216 689 l 2
 175 689 165 687 156 661 c 1
 153 649 150 637 149 624 c 1
 149 614 l 1
 163 612 177 612 191 612 c 2
 250 612 l 2
 268 612 355 608 355 532 c 0
 355 520 348 450 319 416 c 0
 286 377 241 375 193 375 c 2
 73 375 l 2xbc
 59 375 44 375 33 385 c 0x7c
 28 390 23 397 23 406 c 0
351 384 m 0
 351 388 352 392 353 396 c 2
 425 734 l 2
 426 738 429 772 466 772 c 0
 503 772 507 737 507 737 c 1
 542 587 l 1
 663 772 657 772 688 772 c 0
 708 772 726 760 726 741 c 0
 726 737 726 734 725 730 c 2
 653 390 l 2
 652 385 648 353 611 353 c 0
 593 353 573 364 573 385 c 0
 573 402 577 402 607 554 c 1
 557 477 553 463 524 463 c 0
 485 463 485 488 467 564 c 1
 428 378 435 353 390 353 c 0x7c
 372 353 351 364 351 384 c 0
EndSplineSet
EndChar

StartChar: uni2045
Encoding: 8261 8261 346
Width: 361
Flags: HW
TeX: 749 249
ItalicCorrection: 28
HStem: -311 61<143.305 242> 219 62<287.353 354> 689 61<315.647 454>
VStem: 40 79<-224.355 -46.2704> 154 78<322.527 488.905>
LayerCount: 2
Fore
SplineSet
40 -163 m 0
 40 -140 41 -146 85 62 c 0
 93 97 97 148 153 196 c 0
 190 227 238 247 286 250 c 1
 216 255 154 298 154 371 c 0
 154 389 154 390 201 609 c 0
 211 656 219 749 467 750 c 1
 454 689 l 1
 402 689 l 2
 377 689 307 686 288 641 c 0
 281 626 232 388 232 377 c 0
 232 319 289 281 367 281 c 1
 355 220 l 1
 354 219 l 1
 278 219 210 184 182 131 c 0
 172 111 168 85 128 -102 c 0
 125 -116 119 -139 119 -162 c 0
 119 -197 136 -241 182 -248 c 0
 192 -250 203 -250 213 -250 c 2
 255 -250 l 1
 242 -311 l 1
 125 -310 40 -251 40 -163 c 0
EndSplineSet
EndChar

StartChar: uni2046
Encoding: 8262 8262 347
Width: 361
Flags: HW
TeX: 749 249
ItalicCorrection: 134
HStem: -250 61<13 156.203> 219 62<113 179.647> 689 61<213 333.415>
VStem: 235 79<13.7879 177.755> 346 80<547.801 673.415>
CounterMasks: 1 e0
LayerCount: 2
Fore
SplineSet
-0 -250 m 1
 13 -189 l 1
 31 -189 49 -189 67 -189 c 0
 93 -189 160 -186 179 -142 c 0
 186 -127 235 112 235 123 c 0
 235 181 178 219 100 219 c 1
 113 281 l 1
 189 281 257 316 285 370 c 0
 301 401 346 643 346 643 c 1
 346 661 331 689 247 689 c 2
 200 689 l 1
 213 750 l 1
 324 750 426 731 426 653 c 0
 426 643 427 652 381 435 c 0
 376 410 372 383 360 360 c 0
 307 257 181 250 181 250 c 1
 251 246 314 203 314 129 c 0
 314 111 313 110 266 -109 c 0
 255 -160 245 -249 -0 -250 c 1
EndSplineSet
EndChar

StartChar: cent
Encoding: 162 162 348
Width: 500
Flags: HW
TeX: 534 97
ItalicCorrection: 83
HStem: -10 64<212.367 246 318 412.598> 396 64<404 485.835>
VStem: 78 79<106.64 273.93>
DStem2: 228 -97 286 -97 0.207912 0.978148<12.0589 89.8194 166.412 501.893 581.421 658.203>
LayerCount: 2
Fore
SplineSet
78 175 m 0
 78 312 203 441 346 459 c 1
 364 547 l 1
 423 547 l 1
 404 460 l 1
 465 458 494 450 555 417 c 1
 529 351 l 1
 479 380 461 392 391 396 c 1
 318 54 l 1
 409 65 435 80 488 107 c 1
 480 40 l 1
 423 13 375 -5 304 -10 c 1
 286 -97 l 1
 228 -97 l 1
 246 -9 l 1
 154 2 78 68 78 175 c 0
157 183 m 0
 157 105 207 66 260 56 c 1
 332 394 l 1
 226 376 157 275 157 183 c 0
EndSplineSet
EndChar

StartChar: currency
Encoding: 164 164 349
Width: 757
Flags: HW
TeX: 577 0
ItalicCorrection: 94
HStem: -11 40<289.473 481.816> 543 40<397.171 590.118>
VStem: 136 40<137.695 326.081> 701 41<244.353 434.111>
LayerCount: 2
Fore
SplineSet
40 -27 m 0
 40 -13 59 -1 174 94 c 1
 151 128 136 176 136 228 c 0
 136 315 176 398 231 458 c 1
 257 485 l 1
 167 599 173 587 173 602 c 1
 174 609 184 618 192 618 c 0
 205 618 208 613 288 510 c 1
 289 510 l 1
 353 560 435 583 498 583 c 0
 606 583 663 526 678 510 c 1
 679 510 l 1
 807 616 806 618 818 618 c 2
 821 618 l 1
 830 617 837 609 837 599 c 0
 837 595 836 591 834 587 c 1
 793 548 746 515 703 478 c 1
 739 422 742 371 742 344 c 0
 742 257 702 174 647 114 c 1
 620 87 l 1
 705 -20 701 -13 704 -24 c 1
 704 -30 l 1
 703 -39 692 -47 686 -47 c 0
 673 -47 669 -40 590 62 c 1
 533 21 463 -11 379 -11 c 0
 271 -11 214 46 199 62 c 1
 66 -47 73 -43 63 -46 c 1
 56 -46 l 1
 46 -45 40 -34 40 -27 c 0
176 228 m 0
 176 109 264 29 380 29 c 0
 547 29 701 183 701 343 c 0
 701 462 616 543 498 543 c 0
 335 543 176 392 176 228 c 0
EndSplineSet
EndChar

StartChar: yen
Encoding: 165 165 350
Width: 667
Flags: HW
TeX: 694 0
ItalicCorrection: 172
HStem: 0 21G<289 380.304> 158 62<13.7381 323 423 731.25> 358 62<56.7334 281 412 423 563 762.531> 674 20G<150 265.343 704.117 810>
DStem2: 256 694 150 694 0.429934 -0.902861<0 258.132> 289 0 376 0 0.207912 0.978148<18.0883 161.616 243.053 279.448> 477 420 563 420 0.669697 0.742634<57.594 367.558>
LayerCount: 2
Fore
SplineSet
12 189 m 0
 12 198 18 213 35 218 c 0
 42 220 50 220 57 220 c 2
 336 220 l 1
 343 253 346 265 346 274 c 0
 346 283 348 278 310 358 c 1
 90 358 l 2
 59 358 55 382 55 388 c 0
 55 395 58 419 92 420 c 1
 281 420 l 1
 150 694 l 1
 256 694 l 1
 384 420 l 1
 477 420 l 1
 722 694 l 1
 810 694 l 1
 563 420 l 1
 722 420 l 2
 742 420 753 420 763 413 c 0
 771 407 776 397 776 388 c 0
 776 372 763 363 758 361 c 0
 749 357 740 358 731 358 c 2
 507 358 l 1
 425 266 438 294 423 220 c 1
 695 220 l 2
 725 220 733 199 733 189 c 0
 733 176 723 163 711 160 c 0
 704 158 697 158 690 158 c 2
 410 158 l 1
 376 0 l 1
 289 0 l 1
 323 158 l 1
 49 158 l 2
 22 158 12 177 12 189 c 0
412 358 m 1
 415 348 l 1
 423 358 l 1
 412 358 l 1
EndSplineSet
EndChar

StartChar: brokenbar
Encoding: 166 166 351
Width: 167
Flags: HW
TeX: 749 249
ItalicCorrection: 103
VStem: 218 40<696.75 748.993>
DStem2: 10.9614 -249 50.7103 -249 0.207912 0.978148<4.98981 430.415 597.813 1006.69>
LayerCount: 2
Fore
SplineSet
15 -230 m 1
 94 150 l 1
 98 164 107 169 115 169 c 0
 125 169 133 160 134 150 c 1
 59 -210 l 2
 56 -225 53 -249 34 -249 c 0
 23 -249 15 -240 15 -230 c 1
138 350 m 1
 218 730 l 1
 222 744 230 749 238 749 c 0
 249 749 258 740 258 728 c 0
 258 721 256 713 254 706 c 2
 177 349 l 2
 175 342 169 331 157 331 c 0
 146 331 138 340 138 350 c 1
EndSplineSet
EndChar

StartChar: copyright
Encoding: 169 169 353
Width: 1111
Flags: HW
TeX: 749 249
HStem: -272 40<379.707 634.096> -22 64<530.328 746.924> 444 64<604.979 811.105> 732 40<580.754 834.622>
VStem: 96 40<17.7058 279.494> 334 91<133.478 290.851> 1079 40<220.828 482.875>
LayerCount: 2
Fore
SplineSet
334 200 m 0
 334 351 511 508 733 508 c 0
 789 508 828 501 874 484 c 1
 842 401 l 1
 822 415 793 444 719 444 c 0
 559 444 425 327 425 209 c 0
 425 126 495 42 637 42 c 0
 707 42 733 54 794 86 c 1
 786 17 l 1
 720 -14 689 -22 624 -22 c 0
 446 -22 334 76 334 200 c 0
EndSplineSet
Refer: 300 9675 S 1 0 0 1 0 0 3
EndChar

StartChar: ordfeminine
Encoding: 170 170 354
Width: 444
Flags: HW
TeX: 749 0
ItalicCorrection: 111
HStem: 274 61<11.5276 401.45> 364 62<100 233.182> 503 51<147.767 293> 707 59<189.15 309.214>
VStem: 60 76<432.177 485.476> 318 79<556.804 700.64>
LayerCount: 2
Fore
SplineSet
10 304 m 0
 10 318 21 332 36 334 c 0
 42 335 49 335 55 335 c 2
 349 335 l 2
 379 335 381 334 387 331 c 0
 397 325 403 315 403 304 c 0
 403 295 399 274 364 274 c 2
 59 274 l 2
 55 274 52 273 48 273 c 0
 14 273 10 297 10 304 c 0
60 440 m 0
 60 475 68 507 139 530 c 0
 201 551 271 554 304 554 c 1
 317 615 318 624 318 641 c 0
 318 669 310 707 276 707 c 0
 222 707 186 687 143 656 c 1
 151 724 l 1
 193 750 234 766 290 766 c 0
 362 766 397 708 397 644 c 0
 397 615 397 623 344 375 c 1
 269 375 l 1
 275 408 l 1
 223 374 168 364 126 364 c 0
 74 364 60 408 60 440 c 0
136 462 m 0
 136 448 148 426 190 426 c 0
 223 426 278 442 293 503 c 1
 170 497 136 487 136 462 c 0
EndSplineSet
EndChar

StartChar: copyleft
Encoding: 61713 61713 355
Width: 1111
Flags: HW
TeX: 749 249
HStem: -272 40<379.707 634.096> -22 64<387.429 607.189> 444 64<477.337 681.899> 732 40<580.754 834.622>
VStem: 96 40<17.7058 279.494> 787 90<199.297 351.975> 1079 40<220.828 482.875>
LayerCount: 2
Fore
SplineSet
330 17 m 1
 351 86 l 1
 399 55 416 42 491 42 c 0
 660 42 787 166 787 277 c 0
 787 377 694 444 580 444 c 0
 512 444 479 424 437 401 c 1
 440 484 l 1
 498 502 534 508 589 508 c 0
 785 508 877 393 877 286 c 0
 877 131 698 -22 478 -22 c 0
 397 -22 371 -7 330 17 c 1
EndSplineSet
Refer: 300 9675 S 1 0 0 1 0 0 3
EndChar

StartChar: logicalnot
Encoding: 172 172 356
Width: 667
Flags: HW
TeX: 444 0
ItalicCorrection: 66
HStem: 312 40<134 635>
LayerCount: 2
Fore
SplineSet
126 332 m 0
 126 354 150 352 160 352 c 2
 653 352 l 2
 676 352 679 339 679 330 c 0
 679 325 680 329 626 75 c 0
 623 61 620 43 603 43 c 0
 592 43 584 54 584 61 c 0
 584 76 606 177 635 312 c 1
 157 312 l 2
 138 312 138 314 134 316 c 1
 129 322 l 1
 127 327 126 328 126 332 c 0
EndSplineSet
EndChar

StartChar: uni2117
Encoding: 8471 8471 357
Width: 1111
Flags: HW
TeX: 749 249
HStem: -272 40<379.707 634.096> 0 21G<344 435.216> 185 58<483 745.953> 430 56<523 781.611> 732 40<580.754 834.622>
VStem: 96 40<17.7058 279.494> 823 82<298.765 394.759> 1079 40<220.828 482.875>
DStem2: 286.185 -272 373.185 -272 0.207912 0.978148<296.165 485.231 544.666 735.896>
LayerCount: 2
Fore
SplineSet
344 0 m 1
 447 486 l 1
 687 486 l 1
 738 485 782 483 832 457 c 0
 860 442 905 410 905 356 c 0
 905 283 813 184 620 184 c 0
 608 184 596 185 584 185 c 2
 470 185 l 1
 431 0 l 1
 344 0 l 1
483 243 m 1
 616 243 l 2
 785 243 823 312 823 349 c 0
 823 377 803 405 753 420 c 0
 719 430 683 430 648 430 c 2
 523 430 l 1
 483 243 l 1
EndSplineSet
Refer: 300 9675 S 1 0 0 1 0 0 3
EndChar

StartChar: registered
Encoding: 174 174 358
Width: 1111
Flags: HW
TeX: 749 249
HStem: -272 40<379.707 634.096> 0 21G<344 435.245 757.641 860> 212 62<489 639> 430 56<523 786.078> 732 40<580.754 834.622>
VStem: 96 40<17.7058 279.494> 826 82<318.644 399.22> 1079 40<220.828 482.875>
DStem2: 286.185 -272 373.185 -272 0.207912 0.978148<296.165 512.888 576.236 735.896> 718 221 639 212 0.540565 -0.841302<0 214.037>
LayerCount: 2
Fore
SplineSet
344 0 m 1
 447 486 l 1
 674 486 l 2
 853 486 908 415 908 368 c 0
 908 309 838 247 718 221 c 1
 860 0 l 1
 770 0 l 1
 639 212 l 1
 476 212 l 1
 431 0 l 1
 344 0 l 1
489 274 m 1
 613 274 l 2
 784 274 826 325 826 359 c 0
 826 429 691 430 651 430 c 2
 523 430 l 1
 489 274 l 1
EndSplineSet
Refer: 300 9675 S 1 0 0 1 0 0 3
EndChar

StartChar: macron.uc
Encoding: 65547 -1 359
Width: 778
Flags: HW
TeX: 722 0
HStem: 682 40<233.004 841.962>
LayerCount: 2
Fore
SplineSet
233 702 m 0
 233 707 235 722 260 722 c 2
 808 722 l 2
 820 722 842 724 842 701 c 0
 842 686 829 682 814 682 c 2
 262 682 l 2
 238 682 233 694 233 702 c 0
EndSplineSet
EndChar

StartChar: degree
Encoding: 176 176 360
Width: 333
Flags: HW
TeX: 694 0
HStem: 472 41<227.849 324.457> 654 40<255.328 352.225>
VStem: 177 40<524.275 615.505> 363 40<550.78 643.263>
LayerCount: 2
Fore
SplineSet
177 565 m 0
 177 630 238 694 309 694 c 0
 361 694 403 657 403 601 c 0
 403 536 341 472 271 472 c 0
 220 472 177 510 177 565 c 0
217 565 m 0
 217 534 239 513 271 513 c 0
 319 513 363 558 363 602 c 0
 363 634 340 654 309 654 c 0
 261 654 217 608 217 565 c 0
EndSplineSet
EndChar

StartChar: plusminus
Encoding: 177 177 361
Width: 778
Flags: HW
TeX: 577 83
ItalicCorrection: 25
HStem: 0 40<60.0124 376 417 723.717> 313 40<127.012 434 484 790.988>
DStem2: 367.498 0 408.498 0 0.207912 0.978148<49.418 319.987 369.508 666.349>
LayerCount: 2
Fore
SplineSet
60 20 m 0
 60 28 64 40 87 40 c 2
 376 40 l 1
 434 313 l 1
 155 313 l 2
 143 313 127 315 127 333 c 0
 127 352 143 353 157 353 c 2
 443 353 l 1
 502 631 l 2
 505 643 507 666 526 666 c 0
 540 666 544 656 544 644 c 0
 544 638 542 632 541 625 c 2
 484 353 l 1
 761 353 l 2
 775 353 791 352 791 333 c 0
 791 315 776 313 762 313 c 2
 475 313 l 1
 417 40 l 1
 694 40 l 2
 709 40 718 39 724 25 c 1
 724 19 l 2
 724 9 719 0 696 0 c 2
 88 0 l 2
 77 0 60 3 60 20 c 0
EndSplineSet
EndChar

StartChar: twosuperior
Encoding: 178 178 362
Width: 444
Flags: HW
TeX: 749 0
ItalicCorrection: 131
HStem: 361 70<208 470> 708 64<268.473 418.871>
VStem: 444 85<585.457 683.907>
LayerCount: 2
Fore
SplineSet
126 361 m 1
 141 431 l 1
 266 497 l 1
 334 529 444 554 444 638 c 0
 444 680 405 708 344 708 c 0
 280 708 244 675 215 633 c 1
 188 691 l 1
 240 741 290 772 371 772 c 0
 468 772 529 724 529 652 c 0
 529 548 422 533 338 496 c 0
 325 490 311 483 208 431 c 1
 356 431 l 1
 381 432 l 1
 485 432 l 1
 470 361 l 1
 126 361 l 1
EndSplineSet
EndChar

StartChar: threesuperior
Encoding: 179 179 363
Width: 444
Flags: HW
TeX: 749 0
ItalicCorrection: 131
HStem: 350 62<161.638 382.637> 535 62<293 388.06> 713 59<279.229 428.144>
VStem: 414 90<440.282 520.673> 434 84<632.879 705.087>
LayerCount: 2
Fore
SplineSet
122 378 m 1
 144 439 l 1
 190 425 239 412 303 412 c 0
 386 412 414 455 414 484 c 0xf0
 414 502 403 515 389 523 c 0
 369 534 346 535 324 535 c 2
 280 535 l 1
 293 597 l 1
 369 604 393 609 421 642 c 1
 431 656 434 666 434 674 c 0
 434 709 392 713 369 713 c 0
 310 712 268 688 229 661 c 1
 207 717 l 1
 257 748 313 772 384 772 c 0
 458 772 518 737 518 683 c 0xe8
 518 643 488 596 423 565 c 1
 477 547 504 518 504 486 c 0
 504 429 424 350 292 350 c 0
 228 350 169 363 122 378 c 1
EndSplineSet
EndChar

StartChar: acute.ts1
Encoding: 61714 61714 364
Width: 500
Flags: HW
TeX: 722 0
ItalicCorrection: 97
HStem: 537 185
VStem: 319 251
DStem2: 319 537 380 537 0.716471 0.697617<43.7047 253.009>
LayerCount: 2
Fore
SplineSet
319 537 m 1
 492 722 l 1
 570 722 l 1
 380 537 l 1
 319 537 l 1
EndSplineSet
EndChar

StartChar: uni00B5
Encoding: 181 181 365
Width: 517
Flags: HW
TeX: 444 194
ItalicCorrection: 41
HStem: -195 21G<38 120.301> -11 56<182.239 298.573> -0 21G<360 439.27> 425 20G<169.75 252 447.714 530>
DStem2: 38 -195 116 -195 0.207912 0.978148<16.2171 209.099 303.351 654.29> 318.551 -195 393.551 -195 0.207912 0.978148<214.95 248.387 286.532 653.76>
LayerCount: 2
Fore
SplineSet
38 -195 m 1
 174 445 l 1
 252 445 l 1
 184 126 l 2
 178 94 178 93 178 85 c 0
 178 50 210 45 248 45 c 0xd0
 328 45 370 98 382 126 c 0
 387 138 389 152 392 165 c 2
 452 445 l 1
 530 445 l 1
 435 -0 l 1
 360 -0 l 1xb0
 370 48 l 1
 309 5 240 -11 183 -11 c 0xd0
 174 -11 165 -10 156 -9 c 1
 116 -195 l 1
 38 -195 l 1
EndSplineSet
EndChar

StartChar: paragraph
Encoding: 182 182 366
Width: 611
Flags: HW
TeX: 722 194
HStem: -194 21G<326 342.5 435 451> 682 40<535 604 645 730.766>
VStem: 424 40<-193.878 -136.088>
DStem2: 308.773 -194 349.135 -194 0.207912 0.978148<22.7895 448.582> 417.8 -194 458.8 -194 0.207912 0.978148<22.9464 895.57>
LayerCount: 2
Fore
SplineSet
154 445 m 0
 154 564 272 722 466 722 c 2
 701 722 l 2
 721 722 726 719 731 706 c 1
 732 687 719 682 704 682 c 2
 645 682 l 1
 464 -169 l 2
 463 -175 460 -194 442 -194 c 0
 428 -194 424 -184 424 -172 c 0
 424 -169 424 -165 425 -161 c 2
 604 682 l 1
 535 682 l 1
 357 -157 l 2
 354 -169 352 -194 333 -194 c 0
 319 -194 314 -184 314 -172 c 0
 314 -168 315 -164 316 -160 c 2
 401 245 l 1
 293 249 154 309 154 445 c 0
EndSplineSet
EndChar

StartChar: periodcentered
Encoding: 183 183 367
Width: 236
Flags: HW
TeX: 444 0
HStem: 175 89<129 200>
VStem: 110 108
LayerCount: 2
Fore
SplineSet
110 175 m 1
 129 264 l 1
 218 264 l 1
 200 175 l 1
 110 175 l 1
EndSplineSet
EndChar

StartChar: uni203B
Encoding: 8251 8251 368
Width: 648
Flags: HW
TeX: 534 0
ItalicCorrection: 19
HStem: 0 124<300 383.675> 207 123<133 209 215 226.651 546 623 628 639.651> 413 124<389 471.675>
VStem: 267 139<8.07812 115.395> 355 139<421.251 528.767>
DStem2: 88 53 113 22 0.771373 0.636383<-39.012 342.702 382.833 764.509> 213 513 181 489 0.619535 -0.784969<-32.5971 274.874 316.52 624.028>
CounterMasks: 1 e0
LayerCount: 2
Fore
SplineSet
60 19 m 1
 61 33 68 37 88 53 c 2
 353 272 l 1
 181 489 l 2
 177 495 166 506 166 518 c 0
 166 528 174 536 184 536 c 0
 196 536 202 528 213 513 c 2
 383 297 l 1
 648 515 l 2
 669 533 673 536 681 536 c 0
 697 536 700 521 701 518 c 1
 700 504 690 498 673 484 c 2
 408 265 l 1
 580 48 l 2
 585 41 595 30 595 19 c 0
 595 9 586 1 576 1 c 0
 565 1 560 7 547 24 c 2
 378 240 l 1
 113 22 l 2
 89 2 87 1 80 1 c 0
 64 1 61 15 60 19 c 1
104 228 m 1
 104 228 116 309 128 324 c 1
 133 328 l 1
 140 330 l 1
 213 330 l 2
 236 330 243 324 243 308 c 0
 243 293 236 268 228 232 c 0
 225 218 223 216 215 210 c 1
 209 208 l 1
 198 207 l 1
 133 207 l 2
 124 207 104 207 104 228 c 1
267 22 m 0xf0
 267 33 280 104 289 116 c 1
 295 120 l 1
 300 123 l 1
 312 124 l 1
 377 124 l 2
 385 124 406 123 406 103 c 0
 406 94 395 40 387 13 c 1
 384 8 l 1
 377 2 375 0 361 0 c 2
 295 0 l 2
 274 0 267 6 267 22 c 0xf0
355 436 m 0xe8
 355 451 368 503 374 524 c 1
 377 529 l 1
 383 534 l 1
 389 536 l 1
 400 537 l 1
 464 537 l 2
 474 537 494 536 494 516 c 0
 494 507 483 452 475 426 c 1
 472 421 l 1
 465 415 463 413 449 413 c 2
 384 413 l 2
 363 413 355 420 355 436 c 0xe8
517 228 m 1
 517 228 529 309 541 324 c 1
 546 328 l 1
 553 330 l 1xe0
 626 330 l 2
 649 330 656 324 656 308 c 0
 656 293 649 268 641 232 c 0
 638 218 636 216 628 210 c 1
 623 208 l 1
 611 207 l 1
 546 207 l 2
 537 207 517 207 517 228 c 1
EndSplineSet
EndChar

StartChar: onesuperior
Encoding: 185 185 369
Width: 444
Flags: HW
TeX: 749 0
ItalicCorrection: 131
HStem: 361 59<172 282 362 451> 639 58<217 324.046>
VStem: 160 304
DStem2: 269.459 361 349.459 361 0.207912 0.978148<76.951 310.776>
LayerCount: 2
Fore
SplineSet
160 361 m 1
 172 420 l 1
 282 420 l 1
 334 665 l 1
 305 652 264 639 205 639 c 1
 217 697 l 1
 218 697 l 1
 338 698 395 752 417 772 c 1
 437 772 l 1
 362 420 l 1
 464 420 l 1
 451 361 l 1
 160 361 l 1
EndSplineSet
EndChar

StartChar: ordmasculine
Encoding: 186 186 370
Width: 444
Flags: HW
TeX: 749 0
ItalicCorrection: 111
HStem: 274 61<11.5276 401.45> 364 64<172.734 301.63> 705 61<220.454 352.727>
VStem: 65 79<457.156 609.411> 381 76<520.595 676.951>
LayerCount: 2
Fore
SplineSet
10 304 m 0
 10 318 21 332 36 334 c 0
 42 335 49 335 55 335 c 2
 349 335 l 2
 379 335 381 334 387 331 c 0
 397 325 403 315 403 304 c 0
 403 295 399 274 364 274 c 2
 59 274 l 2
 55 274 52 273 48 273 c 0
 14 273 10 297 10 304 c 0
65 518 m 0
 65 640 180 766 304 766 c 0
 396 766 457 698 457 606 c 0
 457 473 336 364 219 364 c 0
 132 364 65 424 65 518 c 0
144 525 m 0
 144 447 196 428 233 428 c 0
 328 428 381 532 381 610 c 0
 381 686 328 705 291 705 c 0
 196 705 144 607 144 525 c 0
EndSplineSet
EndChar

StartChar: radical
Encoding: 8730 8730 371
Width: 472
Flags: HW
TeX: 749 209
ItalicCorrection: 159
HStem: 722 40<561 678.959>
VStem: 142 79<85 137>
DStem2: 41 95 76 51 0.619753 0.784797<0 96.1763> 221 85 188 -80 0.421709 0.906731<0 720.969>
LayerCount: 2
Fore
SplineSet
41 95 m 1
 225 328 l 1
 221 107 l 1
 221 85 l 1
 525 739 l 2
 533 755 536 762 557 762 c 2
 649 762 l 2
 665 762 679 759 679 743 c 0
 679 721 654 722 647 722 c 2
 561 722 l 1
 188 -80 l 2
 179 -100 176 -104 156 -105 c 1
 139 -105 l 1
 142 65 l 1
 143 137 l 1
 76 51 l 1
 41 95 l 1
EndSplineSet
EndChar

